<svg width="12" height="12" viewBox="0 0 12 12" fill="none" xmlns="http://www.w3.org/2000/svg">
<path fill-rule="evenodd" clip-rule="evenodd" d="M2.7416 1.04463C2.28301 0.592015 1.54191 0.594443 1.0863 1.05005C0.630686 1.50567 0.633099 2.24193 1.09169 2.69455L4.41344 5.97303L1.11341 9.27306C0.657795 9.72867 0.660208 10.4649 1.1188 10.9176C1.57738 11.3702 2.31849 11.3677 2.7741 10.9121L6.07413 7.6121L9.39516 10.8899C9.85375 11.3425 10.5949 11.3401 11.0505 10.8845C11.5061 10.4288 11.5037 9.69258 11.0451 9.23996L7.72405 5.96218L11.0237 2.66255C11.4793 2.20694 11.4769 1.47067 11.0183 1.01806C10.5597 0.565443 9.8186 0.567871 9.36299 1.02348L6.06335 4.32312L2.7416 1.04463Z" fill="#192F4D"/>
</svg>
