<svg width="20" height="20" viewBox="0 0 20 20" fill="none" xmlns="http://www.w3.org/2000/svg">
  <path fill-rule="evenodd" clip-rule="evenodd"
    d="M11.2903 2.77419C11.2903 2.34662 11.6369 2 12.0645 2H17.2258C17.6534 2 18 2.34662 18 2.77419V7.93548C18 8.36306 17.6534 8.70968 17.2258 8.70968C16.7982 8.70968 16.4516 8.36306 16.4516 7.93548V4.64326L8.48292 12.612C8.18058 12.9143 7.69039 12.9143 7.38805 12.612C7.0857 12.3096 7.0857 11.8194 7.38805 11.5171L15.3567 3.54839H12.0645C11.6369 3.54839 11.2903 3.20177 11.2903 2.77419ZM4.42581 5.6129C4.1931 5.6129 3.96993 5.70535 3.80538 5.86989C3.64083 6.03444 3.54839 6.25762 3.54839 6.49032V15.5742C3.54839 15.8069 3.64083 16.0301 3.80538 16.1946C3.96993 16.3592 4.1931 16.4516 4.42581 16.4516H13.5097C13.7424 16.4516 13.9656 16.3592 14.1301 16.1946C14.2947 16.0301 14.3871 15.8069 14.3871 15.5742V10.6194C14.3871 10.1918 14.7337 9.84516 15.1613 9.84516C15.5889 9.84516 15.9355 10.1918 15.9355 10.6194V15.5742C15.9355 16.2176 15.6799 16.8346 15.225 17.2895C14.7701 17.7444 14.153 18 13.5097 18H4.42581C3.78244 18 3.16543 17.7444 2.7105 17.2895C2.25558 16.8346 2 16.2176 2 15.5742V6.49032C2 5.84696 2.25558 5.22995 2.7105 4.77502C3.16543 4.32009 3.78244 4.06452 4.42581 4.06452H9.38065C9.80822 4.06452 10.1548 4.41113 10.1548 4.83871C10.1548 5.26628 9.80822 5.6129 9.38065 5.6129H4.42581Z"
    fill="#A8A9B3" />
</svg>
