<svg width="16" height="16" viewBox="0 0 16 16" fill="none" xmlns="http://www.w3.org/2000/svg">
<path fill-rule="evenodd" clip-rule="evenodd" d="M9.29032 0.774194C9.29032 0.346618 9.63694 0 10.0645 0H15.2258C15.6534 0 16 0.346618 16 0.774194V5.93548C16 6.36306 15.6534 6.70968 15.2258 6.70968C14.7982 6.70968 14.4516 6.36306 14.4516 5.93548V2.64326L6.48292 10.612C6.18058 10.9143 5.69039 10.9143 5.38805 10.612C5.0857 10.3096 5.0857 9.81942 5.38805 9.51708L13.3567 1.54839H10.0645C9.63694 1.54839 9.29032 1.20177 9.29032 0.774194ZM2.42581 3.6129C2.1931 3.6129 1.96993 3.70535 1.80538 3.86989C1.64083 4.03444 1.54839 4.25762 1.54839 4.49032V13.5742C1.54839 13.8069 1.64083 14.0301 1.80538 14.1946C1.96993 14.3592 2.1931 14.4516 2.42581 14.4516H11.5097C11.7424 14.4516 11.9656 14.3592 12.1301 14.1946C12.2947 14.0301 12.3871 13.8069 12.3871 13.5742V8.61936C12.3871 8.19178 12.7337 7.84516 13.1613 7.84516C13.5889 7.84516 13.9355 8.19178 13.9355 8.61936V13.5742C13.9355 14.2176 13.6799 14.8346 13.225 15.2895C12.7701 15.7444 12.153 16 11.5097 16H2.42581C1.78244 16 1.16543 15.7444 0.710502 15.2895C0.255575 14.8346 0 14.2176 0 13.5742V4.49032C0 3.84696 0.255575 3.22995 0.710502 2.77502C1.16543 2.32009 1.78244 2.06452 2.42581 2.06452H7.38065C7.80822 2.06452 8.15484 2.41113 8.15484 2.83871C8.15484 3.26628 7.80822 3.6129 7.38065 3.6129H2.42581Z" fill="#192F4D"/>
</svg>
