<svg width="21" height="20" viewBox="0 0 21 20" fill="none" xmlns="http://www.w3.org/2000/svg">
<path fill-rule="evenodd" clip-rule="evenodd" d="M8.37845 4.34207C8.91761 3.8029 9.64888 3.5 10.4114 3.5C11.1739 3.5 11.9051 3.8029 12.4443 4.34207C12.9835 4.88124 13.2864 5.6125 13.2864 6.375V8.52499H7.53638V6.375C7.53638 5.6125 7.83928 4.88124 8.37845 4.34207ZM6.78342 10.025C6.7844 10.025 6.78539 10.025 6.78638 10.025C6.78736 10.025 6.78835 10.025 6.78934 10.025H14.0334C14.0344 10.025 14.0354 10.025 14.0364 10.025C14.0374 10.025 14.0384 10.025 14.0393 10.025H15.4864C15.873 10.025 16.1864 10.3384 16.1864 10.725V15.8C16.1864 16.1866 15.873 16.5 15.4864 16.5H5.33635C4.94975 16.5 4.63635 16.1866 4.63635 15.8V10.725C4.63635 10.3384 4.94975 10.025 5.33635 10.025H6.78342ZM6.03638 8.52499V6.375C6.03638 5.21468 6.49731 4.10188 7.31778 3.28141C8.13826 2.46094 9.25105 2 10.4114 2C11.5717 2 12.6845 2.46094 13.505 3.28141C14.3254 4.10188 14.7864 5.21468 14.7864 6.375V8.52499H15.4864C16.7014 8.52499 17.6864 9.50997 17.6864 10.725V15.8C17.6864 17.015 16.7014 18 15.4864 18H5.33635C4.12133 18 3.13635 17.015 3.13635 15.8V10.725C3.13635 9.50997 4.12133 8.52499 5.33635 8.52499H6.03638Z" fill="#192F4D"/>
</svg>
