<svg width="41" height="34" viewBox="0 0 41 34" fill="none" xmlns="http://www.w3.org/2000/svg">
<path fill-rule="evenodd" clip-rule="evenodd" d="M4.46168 5.42183C4.75954 4.8753 5.34035 4.5 6.00006 4.5H35.0001C35.6598 4.5 36.2407 4.87535 36.5385 5.42194L20.5002 16.6488L4.46168 5.42183ZM0.500101 6.22887C0.499981 6.24042 0.499968 6.25197 0.500061 6.26351V28C0.500061 31.0293 2.97078 33.5 6.00006 33.5H35.0001C38.0293 33.5 40.5001 31.0293 40.5001 28C40.5001 25.581 40.5076 23.1616 40.5152 20.7421C40.5303 15.912 40.5455 11.0814 40.5003 6.25246C40.5004 6.23798 40.5002 6.22349 40.4999 6.209C40.4999 6.20577 40.4999 6.20254 40.4998 6.19931C40.472 3.24638 38.0121 0.75 35.0001 0.75H6.00006C2.97782 0.75 0.511559 3.20923 0.500101 6.22887ZM36.7501 9.8513V28C36.7501 28.9582 35.9583 29.75 35.0001 29.75H6.00006C5.04184 29.75 4.25006 28.9582 4.25006 28V9.85116L19.4249 20.4736C20.0705 20.9255 20.9298 20.9255 21.5754 20.4736L36.7501 9.8513Z" fill="url(#paint0_linear_5735_2928)"/>
<defs>
<linearGradient id="paint0_linear_5735_2928" x1="5.31746" y1="23.7058" x2="29.6633" y2="3.53511" gradientUnits="userSpaceOnUse">
<stop stop-color="#3383C5"/>
<stop offset="1" stop-color="#29C4B8"/>
</linearGradient>
</defs>
</svg>
