<svg width="40" height="40" viewBox="0 0 40 40" fill="none" xmlns="http://www.w3.org/2000/svg">
<circle cx="20" cy="20" r="18.5" stroke="url(#paint0_linear_6349_145659)" stroke-width="3"/>
<path fill-rule="evenodd" clip-rule="evenodd" d="M19.9998 12C20.7362 12 21.3332 12.597 21.3332 13.3333V26.6667C21.3332 27.403 20.7362 28 19.9998 28C19.2635 28 18.6665 27.403 18.6665 26.6667V13.3333C18.6665 12.597 19.2635 12 19.9998 12Z" fill="#FCFCFC"/>
<path fill-rule="evenodd" clip-rule="evenodd" d="M12 20C12 19.2636 12.597 18.6667 13.3333 18.6667H26.6667C27.403 18.6667 28 19.2636 28 20C28 20.7364 27.403 21.3334 26.6667 21.3334H13.3333C12.597 21.3334 12 20.7364 12 20Z" fill="#FCFCFC"/>
<defs>
<linearGradient id="paint0_linear_6349_145659" x1="4.81379" y1="28.0376" x2="32.9246" y2="8.98345" gradientUnits="userSpaceOnUse">
<stop stop-color="#3383C5"/>
<stop offset="1" stop-color="#29C4B8"/>
</linearGradient>
</defs>
</svg>
