<svg width="48" height="36" viewBox="0 0 48 36" fill="none" xmlns="http://www.w3.org/2000/svg">
<path d="M30.2405 5.93275e-05C30.0437 0.0039518 29.852 0.0634246 29.6876 0.171611C29.5231 0.279798 29.3926 0.432287 29.3111 0.611472C29.3111 0.611472 28.9622 1.38663 28.7446 2.50074C26.6962 2.17299 24.9782 2.08702 24 2.08702C23.0218 2.08702 21.3038 2.17299 19.2554 2.50074C19.0378 1.38663 18.6889 0.611472 18.6889 0.611472C18.6017 0.420073 18.4587 0.259477 18.2787 0.150736C18.0987 0.0419959 17.89 -0.00981419 17.68 0.00209737C17.6719 0.00268083 17.6637 0.00336024 17.6556 0.00413541C17.6556 0.00413541 11.0125 0.438873 6.65829 3.87642C6.63361 3.89572 6.6098 3.91612 6.58696 3.93756C5.84884 4.63467 5.27994 5.72214 4.58152 7.27587C3.8831 8.82961 3.14681 10.8057 2.47011 13.0415C1.11671 17.513 0 23.0131 0 28.174C0.000255805 28.3572 0.0487567 28.5372 0.140625 28.6957C1.68533 31.3692 4.48324 32.9862 7.09647 33.9987C9.70969 35.0112 12.1258 35.4144 13.3023 35.4763C13.477 35.4857 13.6512 35.451 13.8089 35.3756C13.9667 35.3001 14.1029 35.1861 14.2052 35.0442L16.7221 31.5367C18.7807 32.017 21.1998 32.3479 24 32.3479C26.8002 32.3479 29.2193 32.017 31.2779 31.5367L33.7948 35.0442C33.8971 35.1861 34.0333 35.3001 34.1911 35.3756C34.3488 35.451 34.523 35.4857 34.6977 35.4763C35.8742 35.4144 38.2903 35.0112 40.9035 33.9987C43.5168 32.9862 46.3147 31.3692 47.8594 28.6957C47.9512 28.5372 47.9997 28.3572 48 28.174C48 23.0131 46.8833 17.513 45.5299 13.0415C44.8532 10.8057 44.1169 8.82961 43.4185 7.27587C42.7201 5.72214 42.1512 4.63467 41.413 3.93756C41.3902 3.91612 41.3664 3.89572 41.3417 3.87642C36.9875 0.438869 30.3444 0.00413541 30.3444 0.00413541C30.3099 0.0010498 30.2752 -0.000310623 30.2405 5.93275e-05ZM16.9708 2.23783C17.0484 2.45622 17.1305 2.64522 17.199 2.90631C14.8399 3.44626 12.2358 4.31824 9.7928 5.78403C9.67342 5.85361 9.56905 5.9462 9.48574 6.05644C9.40243 6.16667 9.34184 6.29236 9.30749 6.42619C9.27313 6.56003 9.2657 6.69936 9.28562 6.83609C9.30554 6.97282 9.35242 7.10424 9.42353 7.22271C9.49464 7.34118 9.58857 7.44436 9.69987 7.52624C9.81117 7.60812 9.93762 7.66709 10.0719 7.69972C10.2062 7.73234 10.3456 7.73798 10.482 7.7163C10.6185 7.69462 10.7493 7.64606 10.8668 7.57343C15.8035 4.61142 21.9412 4.17397 24 4.17397C26.0588 4.17397 32.1965 4.61142 37.1332 7.57343C37.2507 7.64606 37.3815 7.69462 37.518 7.7163C37.6544 7.73798 37.7938 7.73234 37.9281 7.69972C38.0624 7.66709 38.1888 7.60812 38.3001 7.52624C38.4114 7.44436 38.5054 7.34118 38.5765 7.22271C38.6476 7.10424 38.6945 6.97282 38.7144 6.83609C38.7343 6.69936 38.7269 6.56003 38.6925 6.42619C38.6582 6.29236 38.5976 6.16667 38.5143 6.05644C38.431 5.9462 38.3266 5.85361 38.2072 5.78403C35.7642 4.31824 33.1601 3.44626 30.801 2.90631C30.8695 2.64522 30.9516 2.45622 31.0292 2.23783C32.2266 2.38392 36.8389 3.02478 39.9966 5.48443C40.2062 5.69139 40.8709 6.69906 41.5149 8.13185C42.1665 9.58138 42.8789 11.4869 43.5326 13.6468C44.8103 17.8681 45.833 23.0665 45.8804 27.8336C44.6738 29.7482 42.4367 31.1662 40.1495 32.0524C37.9954 32.8869 36.0749 33.1754 35.0931 33.2711L33.4259 30.9478C34.2972 30.6687 35.0854 30.3707 35.7779 30.0694C38.4125 28.9226 39.8173 27.7073 39.8173 27.7073C39.9217 27.6174 40.0073 27.5078 40.0692 27.3847C40.1311 27.2617 40.168 27.1276 40.1778 26.9901C40.1875 26.8527 40.17 26.7147 40.1262 26.5841C40.0824 26.4535 40.0132 26.3329 39.9225 26.2292C39.8318 26.1255 39.7215 26.0407 39.598 25.9798C39.4744 25.919 39.34 25.8832 39.2025 25.8745C39.065 25.8658 38.9272 25.8845 38.7969 25.9293C38.6667 25.9742 38.5466 26.0444 38.4436 26.1359C38.4436 26.1359 37.3444 27.111 34.9443 28.1556C33.992 28.5701 32.8374 28.9834 31.4939 29.3357C31.4789 29.3394 31.4639 29.3435 31.449 29.3479C29.4148 29.8775 26.9408 30.2609 24 30.2609C21.0813 30.2609 18.6235 29.8835 16.5978 29.3601C16.5783 29.3541 16.5586 29.3487 16.5387 29.3438C16.5255 29.3404 16.5112 29.3371 16.498 29.3336C16.4946 29.3329 16.4912 29.3322 16.4878 29.3316C15.1519 28.9803 14.0038 28.5683 13.0557 28.1556C10.6556 27.111 9.55639 26.1359 9.55639 26.1359C9.37334 25.9714 9.13801 25.8768 8.89198 25.8689C8.67562 25.862 8.46245 25.9225 8.282 26.0421C8.10156 26.1617 7.96276 26.3344 7.88484 26.5364C7.80692 26.7383 7.79374 26.9595 7.84711 27.1693C7.90049 27.3791 8.01778 27.5671 8.18274 27.7073C8.18274 27.7073 9.58745 28.9226 12.2221 30.0694C12.9146 30.3707 13.7028 30.6687 14.574 30.9478L12.9069 33.2711C11.9251 33.1754 10.0046 32.8869 7.85054 32.0524C5.56325 31.1662 3.32617 29.7482 2.11957 27.8336C2.16699 23.0665 3.18973 17.8681 4.46739 13.6468C5.12113 11.4869 5.83348 9.58138 6.48505 8.13185C7.12911 6.69906 7.79377 5.69139 8.0034 5.48443C11.1611 3.02478 15.7734 2.38392 16.9708 2.23783ZM17.2174 14.6088C15.7019 14.6088 14.4361 15.3123 13.6549 16.3166C12.8737 17.321 12.5217 18.5798 12.5217 19.8261C12.5217 21.0725 12.8737 22.3313 13.6549 23.3357C14.4361 24.34 15.7019 25.0435 17.2174 25.0435C18.7329 25.0435 19.9987 24.34 20.7799 23.3357C21.5611 22.3313 21.913 21.0725 21.913 19.8261C21.913 18.5798 21.5611 17.321 20.7799 16.3166C19.9987 15.3123 18.7329 14.6088 17.2174 14.6088ZM30.7826 14.6088C28.141 14.6088 26.087 17.0246 26.087 19.8261C26.087 22.6277 28.141 25.0435 30.7826 25.0435C33.4243 25.0435 35.4783 22.6277 35.4783 19.8261C35.4783 17.0246 33.4243 14.6088 30.7826 14.6088ZM17.2174 16.6957C18.1366 16.6957 18.6969 17.0357 19.1332 17.5965C19.5694 18.1574 19.8261 18.9856 19.8261 19.8261C19.8261 20.6667 19.5694 21.4949 19.1332 22.0558C18.6969 22.6166 18.1366 22.9566 17.2174 22.9566C16.2981 22.9566 15.7378 22.6166 15.3016 22.0558C14.8654 21.4949 14.6087 20.6667 14.6087 19.8261C14.6087 18.9856 14.8654 18.1574 15.3016 17.5965C15.7378 17.0357 16.2981 16.6957 17.2174 16.6957ZM30.7826 16.6957C32.1062 16.6957 33.3913 18.0364 33.3913 19.8261C33.3913 21.6159 32.1062 22.9566 30.7826 22.9566C29.459 22.9566 28.1739 21.6159 28.1739 19.8261C28.1739 18.0364 29.459 16.6957 30.7826 16.6957Z" fill="#FCFCFC"/>
</svg>
