<svg width="48" height="44" viewBox="0 0 48 44" fill="none" xmlns="http://www.w3.org/2000/svg">
<path d="M45.168 0.00321164C44.6363 0.0265377 44.1188 0.174516 43.6521 0.361411C43.1901 0.547056 40.5306 1.68219 36.6032 3.36133C32.6758 5.04047 27.5705 7.22706 22.5098 9.39528C12.3882 13.7317 2.44208 17.9985 2.44208 17.9985L2.51458 17.9707C2.51458 17.9707 1.91428 18.1714 1.30565 18.5955C1.00134 18.8075 0.673953 19.0812 0.405891 19.4803C0.137829 19.8794 -0.0581426 20.445 0.0157096 21.0432C0.275112 23.1443 2.45274 23.7403 2.45274 23.7403L2.46127 23.7446L12.1796 27.0707C12.4273 27.8973 15.1272 36.9084 15.721 38.8167C16.049 39.8717 16.356 40.4803 16.6762 40.8955C16.8365 41.1033 17.0044 41.264 17.1901 41.3816C17.2639 41.4283 17.3415 41.4634 17.4182 41.4946H17.4225C17.4319 41.4988 17.4408 41.4992 17.4502 41.5032L17.4246 41.4968C17.4425 41.504 17.4601 41.5161 17.4779 41.5224C17.5126 41.5345 17.5338 41.5341 17.5781 41.5437C18.6911 41.9323 19.6122 41.2111 19.6122 41.2111L19.6506 41.1812L25.6206 35.644L35.309 43.1982L35.4305 43.2537C37.1264 44.0066 38.66 43.5865 39.5093 42.8955C40.3586 42.2044 40.6927 41.3134 40.6927 41.3134L40.7289 41.2196L47.8481 4.11398C48.0303 3.28384 48.0562 2.56628 47.8844 1.91787C47.7126 1.26946 47.2952 0.70581 46.7714 0.393393C46.2476 0.0809765 45.6997 -0.0201144 45.168 0.00321164ZM45.2256 2.22277C45.4415 2.21277 45.6016 2.23745 45.652 2.26754C45.7025 2.29763 45.7251 2.29367 45.7735 2.47649C45.822 2.65931 45.8482 3.04438 45.716 3.64704L45.7117 3.65983L38.633 40.5501C38.6163 40.5872 38.4687 40.9285 38.132 41.2025C37.7884 41.4821 37.4063 41.7003 36.3921 41.275L25.7975 33.013L25.499 32.7785L25.4926 32.7848L22.3243 30.4075L40.1298 9.45925C40.2666 9.2987 40.354 9.10196 40.3813 8.8928C40.4087 8.68365 40.3749 8.47104 40.284 8.28069C40.1931 8.09034 40.049 7.9304 39.8692 7.8202C39.6893 7.70999 39.4814 7.65426 39.2705 7.65972C39.0645 7.66507 38.8641 7.72865 38.6927 7.84309L12.9279 25.0196L3.19473 21.6871C3.19473 21.6871 2.22822 21.1492 2.18196 20.7745C2.1794 20.7537 2.16799 20.7725 2.21821 20.6978C2.26843 20.623 2.39468 20.4967 2.55296 20.3865C2.86951 20.1659 3.23098 20.0325 3.23098 20.0325L3.26722 20.0197L3.30347 20.0048C3.30347 20.0048 13.2501 15.7378 23.3712 11.4016C28.4317 9.23352 33.5361 7.04853 37.4625 5.36981C41.3879 3.69151 44.2242 2.48349 44.4644 2.38694C44.7378 2.27745 45.0097 2.23277 45.2256 2.22277ZM33.4178 13.9836L19.915 29.8702L19.9086 29.8766C19.8875 29.902 19.8676 29.9283 19.8489 29.9555C19.8274 29.985 19.8075 30.0156 19.7892 30.0472C19.7133 30.1759 19.6647 30.3189 19.6463 30.4672C19.6463 30.4701 19.6463 30.4729 19.6463 30.4757L17.8873 38.386C17.8581 38.3005 17.8376 38.2692 17.8063 38.1685V38.1664C17.2476 36.3712 14.7004 27.8729 14.3479 26.6976L33.4178 13.9836ZM21.4394 32.4736L23.8658 34.2944L20.3009 37.5992L21.4394 32.4736Z" fill="#FCFCFC"/>
</svg>
