<svg width="50" height="42" viewBox="0 0 50 42" fill="none" xmlns="http://www.w3.org/2000/svg">
<path d="M49 1.02194C46.9107 2.49571 44.5973 3.62291 42.1491 4.36012C40.8351 2.84924 39.0887 1.77836 37.1463 1.29232C35.2038 0.80629 33.1589 0.928548 31.2882 1.64257C29.4175 2.35658 27.8111 3.62791 26.6865 5.28459C25.5619 6.94128 24.9732 8.9034 25 10.9056V13.0874C21.1657 13.1868 17.3664 12.3364 13.9404 10.612C10.5143 8.88757 7.56796 6.3426 5.36364 3.20376C5.36364 3.20376 -3.36364 22.8401 16.2727 31.5674C11.7793 34.6175 6.42652 36.1469 1 35.931C20.6364 46.8401 44.6364 35.931 44.6364 10.8401C44.6344 10.2324 44.5759 9.62615 44.4618 9.02921C46.6886 6.8332 48.26 4.06059 49 1.02194Z" stroke="#FCFCFC" stroke-width="2" stroke-linecap="round" stroke-linejoin="round"/>
</svg>
