<svg width="29" height="28" viewBox="0 0 29 28" fill="none" xmlns="http://www.w3.org/2000/svg">
<path d="M8.75 7.75L4.0625 12.4375" stroke="#3383C5" stroke-linecap="round" stroke-linejoin="round"/>
<path d="M4.99999 11.5C3.12499 8.375 5.62499 5.25 10.9375 5.5625C11.25 10.875 8.12499 13.375 4.99999 11.5Z" stroke="#3383C5" stroke-linecap="round" stroke-linejoin="round"/>
<path d="M3.47122 15.7038C3.76886 15.4748 4.11529 15.3175 4.4836 15.2442C4.85191 15.1708 5.23217 15.1834 5.59483 15.2809L9.77806 16.2427C9.68074 15.8316 9.67774 15.4038 9.76927 14.9913C9.86081 14.5788 10.0445 14.1924 10.3066 13.8611C10.5687 13.5297 10.9024 13.262 11.2827 13.0779C11.663 12.8939 12.0801 12.7983 12.5026 12.7983H17.5076C17.928 12.7973 18.3443 12.8795 18.7327 13.0403C19.121 13.2011 19.4737 13.4373 19.7702 13.7352L22.0318 15.9978H24.9003C25.3246 15.9978 25.7315 16.1663 26.0315 16.4663C26.3315 16.7663 26.5 17.1732 26.5 17.5975V21.5967C26.5 22.021 26.3315 22.4279 26.0315 22.7279C25.7315 23.0279 25.3246 23.1964 24.9003 23.1964H14.5022C14.4368 23.1965 14.3717 23.1884 14.3082 23.1724L7.90941 21.5727C7.86862 21.563 7.8288 21.5496 7.79043 21.5327L3.90414 19.8791L3.86015 19.8591C3.48665 19.6724 3.16681 19.3938 2.93076 19.0494C2.69471 18.705 2.55023 18.3061 2.51093 17.8904C2.47162 17.4748 2.53878 17.0559 2.70608 16.6734C2.87339 16.2908 3.13533 15.9572 3.46722 15.7038H3.47122ZM24.9003 17.5975H22.5007V21.5967H24.9003V17.5975ZM4.56102 18.4183L8.36032 20.036L14.6022 21.5967H20.901V17.1286L18.6384 14.867C18.4904 14.7178 18.3142 14.5995 18.1201 14.519C17.926 14.4385 17.7178 14.3974 17.5076 14.3981H12.5026C12.1844 14.3981 11.8792 14.5245 11.6542 14.7495C11.4292 14.9745 11.3028 15.2796 11.3028 15.5978C11.3028 15.916 11.4292 16.2212 11.6542 16.4462C11.8792 16.6712 12.1844 16.7976 12.5026 16.7976H15.3021C15.5142 16.7976 15.7176 16.8819 15.8676 17.0319C16.0176 17.1819 16.1019 17.3853 16.1019 17.5975C16.1019 17.8096 16.0176 18.0131 15.8676 18.1631C15.7176 18.3131 15.5142 18.3973 15.3021 18.3973H12.1026C12.0424 18.3972 11.9824 18.3904 11.9237 18.3773L5.2249 16.8366L5.1939 16.8286C4.98941 16.7718 4.77115 16.7927 4.58111 16.8872C4.39108 16.9817 4.2427 17.1431 4.16452 17.3404C4.08634 17.5377 4.0839 17.7569 4.15765 17.9559C4.2314 18.1549 4.37614 18.3196 4.56402 18.4183H4.56102Z" fill="#3383C5"/>
</svg>
