<svg width="28" height="20" viewBox="0 0 28 20" fill="none" xmlns="http://www.w3.org/2000/svg">
<path d="M10.5 9.125C15.3325 9.125 19.25 7.36212 19.25 5.1875C19.25 3.01288 15.3325 1.25 10.5 1.25C5.66751 1.25 1.75 3.01288 1.75 5.1875C1.75 7.36212 5.66751 9.125 10.5 9.125Z" stroke="#3383C5" stroke-width="2" stroke-linecap="round" stroke-linejoin="round"/>
<path d="M1.75 5.1875V9.5625C1.75 11.7391 5.66562 13.5 10.5 13.5C15.3344 13.5 19.25 11.7391 19.25 9.5625V5.1875" stroke="#3383C5" stroke-width="2" stroke-linecap="round" stroke-linejoin="round"/>
<path d="M7 8.79688V13.1719" stroke="#3383C5" stroke-width="2" stroke-linecap="round" stroke-linejoin="round"/>
<path d="M19.25 6.57666C23.2422 6.94854 26.25 8.53447 26.25 10.4376C26.25 12.6142 22.3344 14.3751 17.5 14.3751C15.3562 14.3751 13.3875 14.0251 11.8672 13.4563" stroke="#3383C5" stroke-width="2" stroke-linecap="round" stroke-linejoin="round"/>
<path d="M8.75 13.4234V14.8125C8.75 16.9891 12.6656 18.75 17.5 18.75C22.3344 18.75 26.25 16.9891 26.25 14.8125V10.4375" stroke="#3383C5" stroke-width="2" stroke-linecap="round" stroke-linejoin="round"/>
<path d="M21 14.0469V18.4219" stroke="#3383C5" stroke-width="2" stroke-linecap="round" stroke-linejoin="round"/>
<path d="M14 8.79688V18.4219" stroke="#3383C5" stroke-width="2" stroke-linecap="round" stroke-linejoin="round"/>
</svg>
