<svg width="25" height="24" viewBox="0 0 25 24" fill="none" xmlns="http://www.w3.org/2000/svg">
<path d="M17.0184 9.34686H21.5184V4.84686" stroke="#3383C5" stroke-width="2" stroke-linecap="round" stroke-linejoin="round"/>
<path d="M6.66907 6.16873C7.43444 5.40224 8.34341 4.79417 9.34399 4.37929C10.3446 3.9644 11.4171 3.75085 12.5003 3.75085C13.5835 3.75085 14.6561 3.9644 15.6566 4.37929C16.6572 4.79417 17.5662 5.40224 18.3316 6.16873L21.5191 9.34685" stroke="#3383C5" stroke-width="2" stroke-linecap="round" stroke-linejoin="round"/>
<path d="M7.98157 14.6531H3.48157V19.1531" stroke="#3383C5" stroke-width="2" stroke-linecap="round" stroke-linejoin="round"/>
<path d="M18.3316 17.8313C17.5662 18.5977 16.6572 19.2058 15.6566 19.6207C14.6561 20.0356 13.5835 20.2491 12.5003 20.2491C11.4171 20.2491 10.3446 20.0356 9.34399 19.6207C8.34341 19.2058 7.43444 18.5977 6.66907 17.8313L3.48157 14.6531" stroke="#3383C5" stroke-width="2" stroke-linecap="round" stroke-linejoin="round"/>
</svg>
