<svg width="57" height="56" viewBox="0 0 57 56" fill="none" xmlns="http://www.w3.org/2000/svg">
<path d="M33.3851 56V32.984C38.8839 33.572 42.6152 36.092 42.6152 36.092L46.122 32.144C40.3708 28.056 31.8421 27.888 31.8421 27.888L30.4393 12.432C31.3652 11.816 31.9824 10.78 31.9824 9.576C31.9824 7.7 30.4393 6.16 28.5597 6.16C26.68 6.16 25.137 7.7 25.137 9.576C25.137 10.78 25.7542 11.844 26.68 12.432L25.2773 27.888C25.2773 27.888 16.7486 28.028 10.9973 32.144L14.5042 36.092C14.5042 36.092 18.2355 33.572 23.7342 32.984V56C2.2442 40.096 0.476743 16.996 0.532852 9.324C0.532852 7.728 1.48672 6.272 2.94557 5.628C7.23797 3.724 17.0291 0 28.5316 0C40.0341 0 49.8253 3.724 54.1177 5.628C55.5765 6.272 56.5304 7.728 56.5304 9.324C56.5865 16.996 54.819 40.096 33.3851 56Z" fill="#FFAF1D"/>
</svg>
