<svg width="57" height="58" viewBox="0 0 57 58" fill="none" xmlns="http://www.w3.org/2000/svg">
<path fill-rule="evenodd" clip-rule="evenodd" d="M7.05675 18.187L18.9237 0L1.23309 17.3852C-0.239009 18.8319 0.453781 21.3035 2.47179 21.8054L11.8483 24.1382C11.011 25.4314 10.063 27.0623 9.32626 28.7911C8.65091 30.3745 8.08822 32.1877 8.03256 33.9834C7.97555 35.8223 8.45507 37.7926 10.0375 39.3474C12.415 41.6839 14.1413 42.4992 15.5201 43.15C15.6227 43.1985 15.7233 43.2459 15.8219 43.293C16.4634 43.5992 16.9376 43.8503 17.4402 44.2454C17.9479 44.6442 18.5642 45.2535 19.3556 46.3232C19.4965 46.5137 19.646 46.717 19.8033 46.9319C21.5296 49.2858 24.2387 52.9804 27.7345 55.4328C29.6854 56.8011 32.0006 57.8761 34.648 58.0867C37.3296 58.2999 40.1299 57.6075 42.9802 55.8036C45.7102 54.0754 47.5092 52.1506 48.3556 49.9087C49.208 47.651 48.9555 45.4381 48.3355 43.4311C47.7677 41.5929 46.8201 39.7185 45.9358 37.9689L45.9342 37.9656L45.9167 37.9313L45.7692 37.639C44.8018 35.7224 43.8893 33.8697 43.282 31.93C42.0967 28.1435 42.9008 26.503 43.4061 25.8532C43.649 25.5409 43.9573 25.2835 44.3102 25.0985C44.4416 25.0296 44.5469 24.9888 44.6049 24.9683L44.6361 24.9578L44.6918 24.9449L44.7873 24.9143L45.2072 24.7792L46.3131 24.4213C47.2289 24.1247 48.4525 23.7273 49.6821 23.3246C50.9098 22.9225 52.1502 22.5126 53.0971 22.1919C53.5683 22.0324 53.9787 21.891 54.2822 21.782C54.4307 21.7286 54.5729 21.6759 54.6903 21.6294C54.7459 21.6073 54.8231 21.5757 54.9029 21.5388C54.9655 21.51 55.0271 21.4789 55.0873 21.4455L55.091 21.4435C55.2803 21.3385 55.4544 21.2088 55.6084 21.058C56.5618 20.1211 56.2566 18.9729 56.2254 18.8549L56.2237 18.8493C56.1741 18.6587 56.1005 18.4749 56.0044 18.3023C55.9418 18.1903 55.8712 18.0828 55.7932 17.9807C55.7104 17.8719 55.6185 17.7655 55.5487 17.6864C55.3517 17.4668 55.151 17.2506 54.9465 17.0378C54.6567 16.734 49.0319 11.134 44.3065 6.42976C41.034 3.1722 38.1931 0.343716 37.8531 0C37.8933 0.0405341 40.9196 4.72008 43.9151 9.35184C46.8506 13.8907 49.7566 18.3837 49.7945 18.4223C49.2797 18.5926 48.7389 18.7703 48.1976 18.9475C46.7137 19.4334 45.2286 19.9161 43.7424 20.3956L43.388 20.5099L43.3592 20.5178L43.3377 20.5238C43.2549 20.5475 43.1506 20.5798 43.0285 20.6226C42.7854 20.7076 42.4662 20.8368 42.1054 21.0253C41.1574 21.5215 40.3291 22.2124 39.6769 23.051C38.003 25.2023 37.2981 28.505 38.795 33.2867C39.529 35.6311 40.6078 37.7949 41.5631 39.6888L41.657 39.8743C42.608 41.758 43.393 43.3131 43.8434 44.7714C44.2924 46.2247 44.3226 47.328 43.9544 48.3038C43.5798 49.2957 42.6543 50.522 40.4381 51.9248C38.3423 53.2513 36.555 53.6095 35.0262 53.4879C33.4636 53.3636 31.9462 52.719 30.4621 51.6777C27.6319 49.6922 25.361 46.6083 23.5714 44.1775C23.4285 43.9838 23.289 43.7943 23.1522 43.6097C22.1757 42.2899 21.2794 41.3547 20.371 40.6412C19.4579 39.9241 18.6122 39.4957 17.8725 39.1427C17.7658 39.0917 17.6599 39.0419 17.5542 38.9921C16.3393 38.4197 15.1721 37.8691 13.3569 36.0852C12.9388 35.674 12.695 35.0831 12.7248 34.1241C12.756 33.1223 13.0903 31.901 13.656 30.5736C14.7841 27.928 16.5734 25.4435 17.2883 24.505C18.4553 22.9726 17.6247 20.8161 15.7934 20.3603L7.05675 18.187ZM26.8469 37.0485C26.8469 37.0485 23.2287 37.0485 20.817 34.8676C18.4053 32.6863 20.817 28.3244 20.817 28.3244C20.817 28.3244 21.5205 28.7604 24.1837 31.814C26.8469 34.8676 26.8469 37.0485 26.8469 37.0485Z" fill="url(#paint0_linear_4778_129381)"/>
<defs>
<linearGradient id="paint0_linear_4778_129381" x1="28.4638" y1="26.1824" x2="28.3741" y2="58.1239" gradientUnits="userSpaceOnUse">
<stop stop-color="#22E1FF"/>
<stop offset="1" stop-color="#002EFF"/>
</linearGradient>
</defs>
</svg>
