<svg width="107" height="121" viewBox="0 0 107 121" fill="none" xmlns="http://www.w3.org/2000/svg">
<path fill-rule="evenodd" clip-rule="evenodd" d="M63.2002 95.2325L63.0663 95.1552C60.8073 93.8525 58.3721 93.584 55.8835 94.3632C53.8318 95.0055 51.5274 94.8206 49.5188 93.6629C45.7113 91.4662 44.4052 86.5994 46.6044 82.7932C48.8036 78.987 53.6732 77.6834 57.4822 79.8802C59.49 81.0403 60.8025 82.9406 61.2714 85.0361C61.8407 87.5787 63.2919 89.5539 65.5509 90.8558L66.7055 91.5219C68.9629 92.8247 71.3989 93.0932 73.8867 92.3139C75.4089 91.8374 77.069 91.8159 78.6447 92.3107C81.1333 93.09 83.5709 92.8207 85.8282 91.5179L86.9852 90.8502C89.2426 89.5475 90.6938 87.5755 91.2632 85.0337C91.4346 84.2664 91.7249 83.5111 92.1395 82.794C94.3379 78.9886 99.2082 77.6834 103.017 79.881C106.826 82.0785 108.131 86.9452 105.932 90.7506C104.032 94.0382 100.139 95.458 96.659 94.368C94.1704 93.588 91.7328 93.8565 89.4731 95.1592L88.3193 95.8245C86.0619 97.1273 84.6106 99.1009 84.0405 101.643C83.8683 102.411 83.578 103.168 83.1634 103.885C81.2648 107.172 77.372 108.592 73.8915 107.502C71.4021 106.722 68.9653 106.99 66.7063 108.293L65.5501 108.961C63.2927 110.263 61.8415 112.236 61.2722 114.779C61.1007 115.547 60.8097 116.303 60.3951 117.021C58.1967 120.825 53.3263 122.13 49.5172 119.933C47.5102 118.774 46.1985 116.875 45.7289 114.779C45.1588 112.237 43.7083 110.265 41.4509 108.963L40.29 108.293C38.0326 106.991 35.5982 106.722 33.1104 107.501C31.0611 108.141 28.7575 107.955 26.7505 106.798C22.943 104.601 21.6369 99.7343 23.8361 95.9281C26.0352 92.1219 30.9048 90.8184 34.7139 93.0167C36.7217 94.1744 38.0342 96.0747 38.503 98.1703C39.0724 100.712 40.5228 102.685 42.7794 103.987L43.9396 104.656C46.1969 105.959 48.6329 106.228 51.12 105.45C52.6406 104.976 54.3007 104.954 55.8755 105.447C58.3641 106.227 60.8009 105.957 63.0599 104.656L63.2002 104.576C64.9162 103.585 65.8986 101.886 65.8986 99.9057C65.8978 97.9241 64.9154 96.2245 63.1994 95.2357L63.2002 95.2325ZM1.06852 82.7932C-1.12986 86.5986 0.174654 91.4654 3.98293 93.6621C7.79201 95.8596 12.6616 94.5561 14.8608 90.7498C16.7593 87.4631 16.0457 83.3852 13.3625 80.92C11.444 79.1567 10.4592 76.9137 10.4592 74.3091V72.9633C10.4592 70.3602 11.4432 68.1189 13.3585 66.3556C13.9366 65.8226 14.4461 65.1947 14.8608 64.4784C15.2746 63.7613 15.5657 63.0059 15.7371 62.2379C16.3064 59.6953 17.7576 57.7225 20.015 56.4198L21.1712 55.7521C23.4302 54.4485 25.867 54.1808 28.3564 54.9609C31.8362 56.0509 35.7298 54.6302 37.6283 51.3435C39.8275 47.5373 38.523 42.6705 34.7139 40.4738C30.9048 38.2763 26.0352 39.5798 23.8361 43.3868C23.4214 44.1039 23.1312 44.8601 22.9597 45.6266C22.3904 48.1691 20.9392 50.1419 18.6818 51.4447L18.555 51.5172C16.8391 52.5076 14.8743 52.5076 13.1584 51.5172C11.4424 50.5276 10.46 48.8272 10.46 46.848V46.6919C10.46 44.088 11.444 41.8474 13.3593 40.0834C13.9374 39.5519 14.4469 38.9225 14.8616 38.2078C15.2754 37.4899 15.5664 36.7345 15.7379 35.9664C16.3072 33.4247 17.7584 31.4519 20.0166 30.1491L21.172 29.4822C23.431 28.1795 25.8678 27.911 28.3572 28.691C31.837 29.781 35.7305 28.3611 37.6291 25.0736C39.8283 21.2682 38.5238 16.4015 34.7147 14.2039C30.9056 12.0064 26.036 13.3108 23.8369 17.117C23.4222 17.8341 23.1312 18.5894 22.9597 19.3567C22.3904 21.8993 20.94 23.8721 18.6818 25.1756L17.5256 25.8409C15.2658 27.1445 12.8298 27.4122 10.3404 26.6321C6.86067 25.5421 2.96867 26.9636 1.06772 30.2503C-0.830042 33.537 -0.117186 37.615 2.56519 40.0802C4.48369 41.8443 5.46845 44.0856 5.46845 46.6903V48.0368C5.46845 50.6399 4.48528 52.8805 2.56918 54.6445C1.99188 55.176 1.48235 55.8054 1.06772 56.5218C-0.830042 59.8077 -0.117186 63.8856 2.56519 66.3524C4.48369 68.1149 5.46845 70.3578 5.46845 72.9617V74.3099C5.46845 76.9129 4.48608 79.1535 2.56998 80.9176C1.99188 81.4498 1.48235 82.0785 1.06772 82.794L1.06852 82.7932ZM68.4972 75.3704C68.9653 77.4667 70.2794 79.3678 72.2864 80.5256C76.0954 82.7223 80.965 81.4195 83.1642 77.6133C85.3634 73.8079 84.0589 68.9412 80.2506 66.7436C78.242 65.5843 75.9384 65.4011 73.8867 66.0433C71.3981 66.8233 68.9629 66.5532 66.7039 65.2505L65.5501 64.5852C63.2919 63.2824 61.8415 61.3088 61.2714 58.7655C60.9245 57.211 60.1128 55.764 58.8984 54.6477C56.9799 52.8845 55.9951 50.6415 55.9951 48.0368V46.6919C55.9951 44.088 56.9783 41.8466 58.8952 40.0834C59.4733 39.5503 59.9828 38.9225 60.3967 38.2078C62.5958 34.4015 61.2905 29.5348 57.4822 27.3381C53.6732 25.1406 48.8036 26.4441 46.6044 30.2503C44.7058 33.537 45.4195 37.615 48.1019 40.0802C50.0204 41.8443 51.0043 44.0856 51.0043 46.6903V48.0368C51.0043 50.6407 50.0212 52.8813 48.1051 54.6445C47.5278 55.176 47.0182 55.8062 46.6044 56.5225C46.1898 57.2412 45.8979 57.9966 45.7265 58.7663C45.158 61.3096 43.7067 63.284 41.4486 64.5868L40.3003 65.2489C38.0406 66.554 35.6022 66.8201 33.112 66.0393C29.6306 64.9477 25.7362 66.3684 23.8361 69.6567C21.6377 73.4621 22.9422 78.3288 26.7505 80.5256C30.5596 82.7231 35.4291 81.4195 37.6283 77.6133C38.0437 76.8946 38.3348 76.1385 38.5062 75.3688C39.0748 72.8255 40.526 70.8511 42.785 69.5475L43.9316 68.8862C46.1914 67.5819 48.6305 67.3141 51.12 68.095C52.6972 68.5906 54.3605 68.5691 55.8835 68.0926C58.3721 67.3133 60.8073 67.5819 63.0663 68.8838L64.2185 69.5483C66.4775 70.851 67.9287 72.8255 68.4972 75.3696V75.3704ZM92.1403 56.5225C92.5541 55.8062 93.0644 55.1776 93.6417 54.6453C95.5578 52.8813 96.5402 50.6407 96.5402 48.0376V46.6919C96.5402 44.0872 95.5563 41.8451 93.6378 40.081C92.4242 38.9663 91.614 37.5193 91.2656 35.968C90.6962 33.4263 89.245 31.4534 86.9876 30.1515L86.8593 30.0782C85.1433 29.0878 83.1786 29.0878 81.4626 30.0782C79.7466 31.0686 78.7643 32.7681 78.7643 34.7481V34.9035C78.7643 37.5082 79.749 39.7495 81.6667 41.5136C84.3491 43.9796 85.0636 48.0576 83.1634 51.3443C80.9642 55.1489 76.0946 56.4532 72.2856 54.2565C68.4773 52.0598 67.1728 47.193 69.3711 43.3876C69.785 42.6713 70.2953 42.0427 70.8734 41.5096C72.7895 39.7455 73.7727 37.505 73.7727 34.9019V33.5569C73.7727 30.9523 72.7879 28.7101 70.8694 26.9461C69.6558 25.8306 68.8457 24.3836 68.4972 22.8307C67.9279 20.289 66.4767 18.3169 64.2193 17.015L63.0591 16.3457C60.8017 15.043 58.3665 14.7744 55.8787 15.5521C53.8294 16.1935 51.525 16.0079 49.5172 14.8493C45.7089 12.6526 44.4036 7.78588 46.6028 3.98046C48.802 0.174241 53.6724 -1.13009 57.4806 1.06743C59.4868 2.22436 60.7993 4.12547 61.269 6.22101C61.8383 8.76194 63.2887 10.7348 65.5461 12.0367L66.7087 12.7068C68.9653 14.0087 71.3997 14.2773 73.8875 13.5004C75.9384 12.8598 78.2412 13.0446 80.2482 14.2024C82.2552 15.3601 83.5669 17.2612 84.0365 19.3559C84.6059 21.8977 86.0571 23.8697 88.3145 25.1724L89.4746 25.8417C91.732 27.1445 94.168 27.4138 96.655 26.6353C98.7059 25.9947 101.008 26.1796 103.016 27.3381C106.824 29.5348 108.129 34.4023 105.93 38.2078C105.517 38.9233 105.007 39.5511 104.429 40.0834C102.513 41.8459 101.529 44.088 101.529 46.6919V48.0368C101.529 50.6407 102.513 52.8845 104.432 54.6469C107.115 57.113 107.829 61.1917 105.93 64.4776C103.731 68.283 98.8614 69.5874 95.0523 67.3898C91.244 65.1931 89.9395 60.3264 92.1379 56.521L92.1403 56.5225Z" fill="url(#paint0_linear_4156_123404)"/>
<defs>
<linearGradient id="paint0_linear_4156_123404" x1="12.8769" y1="84.8138" x2="93.6145" y2="36.4198" gradientUnits="userSpaceOnUse">
<stop stop-color="#3383C5"/>
<stop offset="1" stop-color="#29C4B8"/>
</linearGradient>
</defs>
</svg>
