<svg width="106" height="56" viewBox="0 0 106 56" fill="none" xmlns="http://www.w3.org/2000/svg">
<path d="M62.7197 1.7877C63.0548 1.14278 63.5905 0.626036 64.2457 0.315897C65.1458 -0.105815 66.0567 -0.148452 66.895 0.453544C67.1783 0.660068 67.4042 0.936062 67.5512 1.25506C68.3065 2.9162 69.0582 4.58035 69.7484 6.27544C70.8565 9.01345 72.3585 11.5583 73.5855 14.2409C75.3284 18.0563 77.0858 21.8628 78.8576 25.6609C79.8728 27.8356 80.8344 30.0591 82.1091 32.1078C82.4581 32.6478 82.8399 33.1653 83.2525 33.6578C83.4266 33.8592 83.6431 34.0195 83.8862 34.1269C85.7462 34.9906 87.7498 35.156 89.7472 35.2826C90.7662 35.3484 91.7662 35.2092 92.7786 35.2086C94.7175 35.212 96.6562 35.2154 98.5847 35.2829C99.8625 35.3293 101.139 35.4786 102.411 35.6136C102.902 35.6834 103.388 35.7869 103.865 35.9238C104.064 35.9807 104.257 36.0597 104.438 36.1595C105.475 36.6979 105.682 37.6004 104.969 38.517C104.373 39.2907 103.603 39.9112 102.722 40.3274C100.844 41.1839 98.8854 41.8516 96.875 42.3201C94.8933 42.8134 92.9259 43.3636 90.9728 43.97C87.9851 44.9268 84.9223 45.6319 81.8164 46.078C79.7492 46.3482 77.6659 46.4807 75.5802 46.4742C73.7052 46.4816 71.8328 46.3378 69.9523 46.2687C67.0839 46.1618 64.2242 45.9455 61.3594 45.7084C57.1659 45.3945 52.9534 45.8729 48.9403 47.1186C46.2305 47.9224 43.5106 48.6976 40.8106 49.5711C39.5386 49.9823 38.3086 50.5769 37.0951 51.1113C35.4913 51.8119 33.9051 52.5693 32.2864 53.2474C28.3451 54.9169 24.2404 55.9739 19.9123 55.9888C17.6401 56.0433 15.3669 55.8988 13.1185 55.5571C11.7757 55.3214 10.4191 55.2145 9.10117 54.7479C4.87965 53.2291 2.06603 50.3831 1.06634 45.9328C0.795468 44.7746 0.785576 43.5711 1.03742 42.4104C1.28926 41.2497 1.79647 40.1612 2.52185 39.2244C3.23276 38.2732 3.91831 37.2711 4.68413 36.3499C6.21335 34.4715 8.11616 32.9347 10.2714 31.8375C12.2767 30.8019 14.4691 30.1798 16.7197 30.0082C18.1588 29.8696 19.6086 29.8772 21.0471 30.0307C21.5372 30.0853 22.0192 30.2147 22.5063 30.2965C22.7328 30.3218 22.9524 30.3463 23.2363 30.3781C23.297 30.1995 23.343 30.0164 23.3738 29.8299C23.4844 28.2586 23.5814 26.6858 23.6852 25.1136C23.7297 24.6996 23.7501 24.2861 23.7672 23.8724C23.8016 23.0413 23.8087 22.2108 23.8598 21.3853C23.9751 19.5464 23.9552 17.6925 24.3552 15.8786C24.4114 15.5934 24.4425 15.3037 24.4481 15.0129C24.5073 13.5698 25.0139 12.2591 25.6198 10.98C25.6795 10.8481 25.7503 10.7215 25.8314 10.6017C26.9909 9.0141 28.4024 7.62929 30.0095 6.50239C33.1231 4.30745 36.5864 2.66108 40.2523 1.63357C42.816 0.907909 45.4386 0.409724 48.0903 0.144755C50.5394 -0.0736952 53.0066 0.0101463 55.4371 0.394395C56.2746 0.525657 57.1204 0.644093 57.9521 0.702537C59.3976 0.798726 60.821 1.11159 62.1754 1.63079C62.3434 1.69075 62.504 1.72582 62.7197 1.7877ZM25.1508 30.8632C25.4162 30.9718 25.676 31.1003 25.951 31.1828C27.9793 31.8074 30.0104 32.4293 32.0437 33.0477L32.3424 33.1017C32.1287 32.9347 31.8834 32.8126 31.6216 32.7431C30.102 32.2746 28.5897 31.8035 27.0648 31.3515C26.4353 31.1645 25.7899 31.0272 25.1538 30.8669C25.0296 30.0493 25.1001 29.9025 25.837 29.5689C26.1575 29.4193 26.4817 29.2975 26.7992 29.1439C31.7105 26.9653 36.8606 25.3737 42.1449 24.4014C46.1608 23.6367 50.2205 23.1215 54.3012 22.8588C57.8034 22.6068 61.3189 22.5837 64.8255 22.7896C67.5311 22.9156 70.2201 23.2927 72.8581 23.9163C74.0672 24.1936 75.2481 24.584 76.3854 25.0829C76.7901 25.2573 77.12 25.5706 77.3167 25.9666C77.8579 27.0404 78.4317 28.1008 78.9945 29.1667L81.5238 33.9596C81.6148 34.1311 81.788 34.3016 81.5811 34.6048C81.1376 34.4661 80.6659 34.3379 80.2079 34.1733C77.8447 33.3453 75.4009 32.7732 72.9182 32.4667C70.4645 32.1309 67.9874 31.9163 65.5152 31.7537C63.5619 31.6285 61.5956 31.66 59.634 31.6437C58.4577 31.6049 57.2807 31.6283 56.1072 31.714C53.9293 31.9312 51.7633 32.2597 49.5938 32.526L38.9723 33.9137C38.8545 33.9281 38.7389 33.9531 38.6242 33.9711L38.6104 34.1002C40.1957 34.3007 41.7614 34.6388 43.29 35.1102C42.3283 35.0511 41.3736 34.9307 40.4153 34.841C39.457 34.751 38.4838 34.7043 37.5128 34.6062C36.5418 34.5083 35.6656 34.1941 34.7015 34.3201C34.8993 34.4678 35.1167 34.5868 35.3476 34.674C37.1892 35.4156 39.0713 36.051 40.9846 36.5775C43.608 37.2446 46.2118 37.9989 48.8194 38.7195C49.7562 38.9752 50.6836 39.2882 51.6373 39.453C53.1818 39.7216 54.7409 39.9162 56.2989 40.0901C57.4076 40.2138 58.5217 40.2833 59.6343 40.3696C60.5435 40.4402 61.4444 40.4892 62.3506 40.5558C64.5789 40.7291 66.8075 40.7097 69.0375 40.677C72.5285 40.6337 76.0097 40.3182 79.4504 39.7332C80.6259 39.5208 81.782 39.1999 82.9381 38.8821C83.9949 38.5949 85.0202 38.218 86.0742 37.9267C87.8775 37.4409 89.7227 37.6468 91.5632 37.7697C92.0354 37.7984 92.5041 37.8921 92.9755 37.9618C93.5882 38.0543 94.194 38.1767 94.8097 38.2386C96.0805 38.3803 97.3575 38.4956 98.6355 38.5693C99.8288 38.6374 101.019 38.6672 102.224 38.654C102.739 38.6197 103.247 38.5288 103.741 38.3834C103.959 38.3218 104.161 38.2133 104.333 38.0648C104.836 37.6502 104.806 37.1659 104.224 36.8846C103.76 36.6576 103.264 36.5027 102.755 36.425C100.936 36.1466 99.0995 36.0105 97.2609 36.0181C96.4356 36.029 95.6091 36.0501 94.7848 36.051C94.248 36.0496 93.7107 36.0203 93.1719 36.0048C94.2196 36.2799 95.2759 36.4768 96.3277 36.6835C97.299 36.8742 98.2691 37.0753 99.2391 37.2798C99.4401 37.3371 99.6371 37.4086 99.8285 37.4932L99.7946 37.6167C99.6572 37.6218 99.5188 37.6372 99.383 37.6291C98.9916 37.6094 98.5974 37.5861 98.2082 37.5495C96.9315 37.4311 95.6552 37.3402 94.3873 37.1712C93.1195 37.0022 91.7791 36.7462 90.4738 36.542C89.27 36.3528 88.0571 36.2138 86.8593 35.9978C85.3843 35.7149 83.9411 35.2834 82.5513 34.7097C82.239 34.5972 81.9803 34.3708 81.8258 34.0757C80.6038 31.7613 79.3453 29.4668 78.1451 27.1378C76.7948 24.5204 75.4812 21.8797 74.1673 19.239C73.177 17.2493 72.1798 15.2623 71.2468 13.2481C69.9194 10.3517 68.626 7.45907 67.3421 4.54002C66.9195 3.57214 66.4004 2.64161 66.2914 1.58511C65.4589 1.24828 64.2107 1.5659 63.7012 2.23391C64.3406 2.64881 65.2321 2.53187 65.8909 3.24437C65.7014 3.34174 65.4981 3.40941 65.2879 3.44504C64.9378 3.43751 64.5897 3.39057 64.2496 3.30509C63.4504 3.10256 62.6739 2.78573 61.8631 2.62997C60.4872 2.35274 59.0972 2.14264 57.7127 1.91258C56.2835 1.68704 54.8369 1.59577 53.3917 1.6399C51.805 1.66895 50.2089 1.62823 48.625 1.69536C43.4221 1.9598 38.5809 3.53572 33.9548 5.85019C32.4481 6.62853 31.0103 7.53335 29.6559 8.55506C28.8363 9.12429 28.1773 9.89676 27.7426 10.7978C26.517 13.454 26.0487 16.2874 25.8752 19.1779C25.7859 20.7103 25.6959 22.2496 25.5908 23.77C25.4857 25.2905 25.3656 26.7921 25.2447 28.3005C25.1783 28.9184 25.1116 29.5397 25.069 30.1601C24.9767 30.4144 24.9358 30.6675 25.1508 30.8632ZM103.636 38.8902C103.053 39.0933 102.483 39.3355 101.889 39.4823C101.137 39.6969 100.365 39.8409 99.5858 39.9123C98.0749 40.0012 96.5829 39.7213 95.0888 39.527C93.5945 39.3329 92.1835 39.1273 90.732 38.9172C90.0131 38.8295 89.2854 38.8559 88.5757 38.996C86.8965 39.2829 85.3361 39.9607 83.7118 40.4354C82.7441 40.7192 81.7872 41.0624 80.8049 41.2927C79.4819 41.6055 78.1308 41.7984 76.8045 42.1106C75.1441 42.4458 73.4523 42.6025 71.7574 42.578C69.2331 42.6123 66.7264 42.3876 64.2109 42.2442C62.8107 42.1635 61.4085 42.1615 60.0042 42.1182C58.4346 42.0529 56.8644 42.022 55.3058 41.8549C53.9337 41.7019 52.5757 41.4165 51.2152 41.1546C49.6729 40.861 48.1554 40.447 46.6763 39.9162C44.1443 39.005 41.6147 38.101 39.0611 37.2595C35.8022 36.1834 32.5308 35.1473 29.2474 34.1511C26.7175 33.3774 24.1772 32.6371 21.6161 31.9629C20.6559 31.7118 19.667 31.5909 18.6757 31.6041C16.3325 31.6578 14.029 32.211 11.9177 33.2272C10.6665 33.8184 9.45269 34.4861 8.28302 35.2263C7.37157 35.7956 6.51579 36.4498 5.72699 37.1808C3.92752 38.8852 2.68582 41.0989 2.16556 43.5304C1.74569 45.2443 2.00342 47.0573 2.8846 48.5884C3.62687 49.8409 4.57566 50.9574 5.6903 51.8904C5.76387 51.9494 5.84155 52.0029 5.92279 52.0504C5.72084 51.6639 5.47776 51.3003 5.19782 50.9664C4.35084 49.9396 3.68245 48.7766 3.22089 47.5267C2.61556 45.7106 2.63498 43.9368 3.5976 42.2338C4.26547 41.111 5.17838 40.1559 6.26769 39.4398C8.23704 38.076 10.4605 37.3071 12.7617 36.7704C15.8363 36.0375 18.9819 35.6409 22.1435 35.5877C23.4824 35.5723 24.823 35.6052 26.165 35.6243C26.9503 35.6364 27.7387 35.6215 28.5166 35.7014C29.8537 35.7959 31.1833 35.9776 32.4975 36.2453C33.9377 36.5915 35.3313 37.149 36.7365 37.6322C39.6327 38.6253 42.53 39.6083 45.4121 40.6374C47.764 41.4915 50.1846 42.1387 52.6466 42.5716C55.71 43.0463 58.8017 43.3076 61.8996 43.3535C63.8598 43.4142 65.8203 43.5025 67.7783 43.5492C69.1802 43.5855 70.5909 43.664 71.9867 43.5655C75.3256 43.3335 78.6416 42.9341 81.8625 41.9536C83.1072 41.574 84.3615 41.2328 85.6028 40.8525C86.2323 40.6585 86.8405 40.3758 87.4747 40.2028C89.5478 39.6268 91.6498 39.8614 93.746 40.0884C94.4422 40.166 95.1291 40.3286 95.8262 40.3994C96.523 40.4703 97.2284 40.4633 97.9254 40.5342C98.7682 40.6143 99.6167 40.6031 100.456 40.5007C101.712 40.3693 102.695 39.7199 103.627 38.9375L103.636 38.8902Z" fill="#DE6B38"/>
</svg>
