<svg width="41" height="41" viewBox="0 0 41 41" fill="none" xmlns="http://www.w3.org/2000/svg">
<path d="M20.499 5.35083C21.005 7.27737 21.7691 9.10231 22.7608 10.7687C23.1368 10.4741 23.5046 10.1956 23.8603 9.93551C22.1593 7.01115 21.1818 3.61532 21.1818 0H19.8162C19.8162 3.61532 18.8387 7.01115 17.1377 9.93551C17.4933 10.1956 17.8612 10.4761 18.2371 10.7687C19.2288 9.10231 19.993 7.27737 20.499 5.35083Z" fill="#E5D540"/>
<path d="M31.0647 17.1376C30.6623 16.912 30.2721 16.6661 29.8962 16.406C29.4856 16.1316 29.0975 15.839 28.7134 15.5321C28.3517 15.2517 28.0021 14.959 27.6607 14.644C27.2096 14.2274 26.7726 13.7905 26.356 13.3394C26.0004 13.5914 25.6326 13.8718 25.2627 14.1665C25.7545 14.7192 26.2808 15.2456 26.8336 15.7313C27.1689 16.0381 27.5164 16.3389 27.8782 16.6194C28.2602 16.9262 28.6565 17.2148 29.0609 17.4932C29.443 17.7533 29.8332 17.9992 30.2294 18.237C31.904 19.2287 33.7208 19.9928 35.6473 20.4989C33.7208 21.0049 31.902 21.769 30.2294 22.7607C29.8332 23.0005 29.443 23.2464 29.0609 23.5045C28.6585 23.785 28.2622 24.0715 27.8782 24.3784C27.5164 24.6588 27.1669 24.9596 26.8336 25.2664C26.2808 25.7521 25.7545 26.2785 25.2627 26.8313C25.6326 27.1259 26.0004 27.4043 26.356 27.6584C26.7726 27.2072 27.2096 26.7703 27.6607 26.3537C28.0021 26.0387 28.3517 25.746 28.7134 25.4656C29.0955 25.1587 29.4856 24.8641 29.8962 24.5917C30.2721 24.3316 30.6623 24.0857 31.0647 23.8601C33.989 22.1592 37.3788 21.1817 41.0002 21.1817V19.816C37.3788 19.816 33.989 18.8385 31.0647 17.1376Z" fill="#E5D540"/>
<path d="M11.104 24.5917C11.5145 24.8661 11.9027 25.1587 12.2868 25.4656C12.6485 25.746 12.9981 26.0387 13.3395 26.3537C13.7906 26.7703 14.2276 27.2072 14.6442 27.6584C14.9998 27.4064 15.3676 27.1259 15.7375 26.8313C15.2457 26.2785 14.7194 25.7521 14.1666 25.2664C13.8313 24.9596 13.4838 24.6588 13.122 24.3784C12.74 24.0715 12.3437 23.7829 11.9393 23.5045C11.5572 23.2444 11.167 22.9985 10.7708 22.7607C9.09621 21.769 7.27941 21.0049 5.35286 20.4989C7.27941 19.9928 9.09824 19.2287 10.7708 18.237C11.167 17.9972 11.5572 17.7513 11.9393 17.4932C12.3417 17.2128 12.7379 16.9262 13.122 16.6194C13.4838 16.3389 13.8333 16.0381 14.1666 15.7313C14.7194 15.2456 15.2457 14.7192 15.7375 14.1665C15.3676 13.8718 14.9998 13.5934 14.6442 13.3394C14.2276 13.7905 13.7906 14.2274 13.3395 14.644C12.9981 14.959 12.6485 15.2517 12.2868 15.5321C11.9047 15.839 11.5145 16.1337 11.104 16.406C10.7281 16.6661 10.3379 16.912 9.93551 17.1376C7.01115 18.8385 3.62141 19.816 0 19.816V21.1817C3.62141 21.1817 7.01115 22.1592 9.93551 23.8601C10.3379 24.0857 10.7281 24.3316 11.104 24.5917Z" fill="#E5D540"/>
<path d="M20.499 35.6493C19.993 33.7228 19.2288 31.8979 18.2371 30.2314C17.8612 30.5261 17.4933 30.8045 17.1377 31.0647C18.8387 33.989 19.8162 37.3849 19.8162 41.0002H21.1818C21.1818 37.3849 22.1593 33.989 23.8603 31.0647C23.5046 30.8045 23.1368 30.5241 22.7608 30.2314C21.7691 31.8979 21.005 33.7228 20.499 35.6493Z" fill="#E5D540"/>
<path d="M30.6804 25.7137C30.278 25.9861 29.8817 26.2807 29.4976 26.5957C31.1925 29.1441 31.9708 31.1662 32.3123 32.3144C31.1641 31.973 29.142 31.1946 26.5936 29.4998C26.2319 29.2539 25.8559 28.9937 25.4657 28.7133C25.1101 28.4532 24.7544 28.1809 24.3785 27.8801C24.0371 27.6057 23.6814 27.3131 23.3197 27.0062C23.0677 26.7868 22.8076 26.5551 22.5414 26.3153H22.5353C22.2081 26.0145 21.8789 25.7076 21.5435 25.3784L24.9394 21.9826L25.3763 21.5457C25.7035 21.881 26.0185 22.2163 26.3131 22.5374H26.3192C26.5509 22.8036 26.7846 23.0637 27.0021 23.3239C27.3841 23.017 27.7804 22.7223 28.1848 22.45C27.9247 22.1431 27.6524 21.8281 27.3516 21.507C27.0569 21.186 26.7501 20.8364 26.4229 20.5031C26.7501 20.1678 27.059 19.8203 27.3516 19.4992C27.6524 19.1781 27.9247 18.8631 28.1848 18.5563C27.7824 18.2819 27.3862 17.9893 27.0021 17.6824C26.7826 17.9425 26.5509 18.2027 26.3192 18.4689H26.3131C26.0185 18.79 25.7055 19.1253 25.3763 19.4606L24.9394 19.0237L21.5435 15.6278C21.8789 15.3007 22.206 14.9918 22.5353 14.691H22.5414C22.8076 14.4512 23.0677 14.2195 23.3197 14C23.6814 13.6932 24.0371 13.3985 24.3785 13.1262C24.7544 12.8254 25.1101 12.5531 25.4657 12.293C25.8559 12.0125 26.2319 11.7524 26.5936 11.5065C29.142 9.81163 31.1641 9.03329 32.3123 8.69188C31.9708 9.84009 31.1925 11.8621 29.4976 14.4105C29.8797 14.7255 30.276 15.0182 30.6804 15.2925C33.6251 10.9131 34.001 7.96028 34.0214 7.79567L34.1311 6.87305L33.2085 6.98279C33.0439 7.00311 30.0931 7.37907 25.7116 10.3238C25.3499 10.5636 24.9739 10.8216 24.5919 11.1102C24.2362 11.3703 23.8745 11.6427 23.5046 11.9434C23.1571 12.2157 22.8015 12.5104 22.4377 12.8254C22.1308 13.0774 21.8159 13.3579 21.5009 13.6525H21.4948C21.1676 13.9472 20.8384 14.2602 20.503 14.5894L20.4969 14.5833L20.4908 14.5894C20.1555 14.2622 19.8283 13.9472 19.4991 13.6525H19.493C19.178 13.3579 18.8651 13.0794 18.5562 12.8254C18.1944 12.5104 17.8388 12.2178 17.4893 11.9434C17.1194 11.6427 16.7577 11.3703 16.402 11.1102C16.02 10.8237 15.644 10.5636 15.2823 10.3238C10.9028 7.37907 7.95003 7.00311 7.78542 6.98279L6.86279 6.87305L6.97253 7.79567C6.99286 7.96028 7.36882 10.9111 10.3135 15.2925C10.7159 15.0202 11.1122 14.7255 11.4962 14.4105C9.80138 11.8621 9.02304 9.84009 8.68163 8.69188C9.82983 9.03329 11.8519 9.81163 14.4003 11.5065C14.762 11.7524 15.138 12.0125 15.5282 12.293C15.8838 12.5531 16.2394 12.8254 16.6154 13.1262C16.9568 13.4005 17.3125 13.6932 17.6742 14C17.9262 14.2195 18.1863 14.4512 18.4525 14.691H18.4586C18.7858 14.9918 19.115 15.2986 19.4504 15.6278L16.0545 19.0237L15.6176 19.4606C15.2904 19.1253 14.9754 18.79 14.6807 18.4689H14.6746C14.443 18.2027 14.2093 17.9425 13.9918 17.6824C13.6098 17.9893 13.2135 18.284 12.8091 18.5563C13.0692 18.8631 13.3415 19.1781 13.6423 19.4992C13.9369 19.8203 14.2438 20.1698 14.571 20.5031C14.2438 20.8384 13.9349 21.186 13.6423 21.507C13.3415 21.8281 13.0692 22.1431 12.8091 22.45C13.2114 22.7243 13.6077 23.017 13.9918 23.3239C14.2113 23.0637 14.443 22.8036 14.6746 22.5374H14.6807C14.9754 22.2163 15.2884 21.881 15.6176 21.5457L16.0545 21.9826L19.4504 25.3784C19.115 25.7056 18.7878 26.0145 18.4586 26.3153H18.4525C18.1863 26.5551 17.9262 26.7868 17.6742 27.0062C17.3125 27.3131 16.9568 27.6078 16.6154 27.8801C16.2394 28.1809 15.8838 28.4532 15.5282 28.7133C15.138 28.9937 14.762 29.2539 14.4003 29.4998C11.8519 31.1946 9.82983 31.973 8.68163 32.3144C9.02304 31.1662 9.80138 29.1441 11.4962 26.5957C11.1142 26.2807 10.7179 25.9881 10.3135 25.7137C7.36882 30.0932 6.99286 33.046 6.97253 33.2106L6.86279 34.1332L7.78542 34.0235C7.95003 34.0032 10.9008 33.6272 15.2823 30.6825C15.644 30.4427 16.02 30.1846 16.402 29.896C16.7577 29.6359 17.1194 29.3636 17.4893 29.0628C17.8368 28.7905 18.1924 28.4958 18.5562 28.1809C18.863 27.9289 19.178 27.6484 19.493 27.3537H19.4991C19.8263 27.0591 20.1555 26.7461 20.4908 26.4169L20.4969 26.423L20.503 26.4169C20.8384 26.7441 21.1655 27.0591 21.4948 27.3537H21.5009C21.8159 27.6484 22.1288 27.9268 22.4377 28.1809C22.7994 28.4958 23.1551 28.7885 23.5046 29.0628C23.8745 29.3636 24.2362 29.6359 24.5919 29.896C24.9739 30.1826 25.3499 30.4427 25.7116 30.6825C30.091 33.6272 33.0439 34.0032 33.2085 34.0235L34.1311 34.1332L34.0214 33.2106C34.001 33.046 33.6251 30.0952 30.6804 25.7137ZM20.944 23.903L20.499 24.3481L20.0539 23.903L17.095 20.9441L16.65 20.4991L17.095 20.054L20.0539 17.0951L20.499 16.65L20.944 17.0951L23.9029 20.054L24.348 20.4991L23.9029 20.9441L20.944 23.903Z" fill="#E5D540"/>
</svg>
