<svg width="40" height="40" viewBox="0 0 40 40" fill="none" xmlns="http://www.w3.org/2000/svg">
<path d="M20.0018 39.9997C16.0453 40.0006 12.1775 38.8281 8.88753 36.6306C5.59752 34.433 3.03312 31.3092 1.51866 27.6541C0.00420058 23.999 -0.392278 19.9768 0.379371 16.0964C1.15102 12.2159 3.05613 8.65149 5.85375 5.85387C8.65137 3.05625 12.2158 1.15114 16.0962 0.379494C19.9767 -0.392156 23.9988 0.00432277 27.6539 1.51878C31.309 3.03324 34.4329 5.59764 36.6304 8.88765C38.828 12.1777 40.0004 16.0455 39.9996 20.0019C39.9927 25.3035 37.8835 30.386 34.1347 34.1349C30.3859 37.8837 25.3034 39.9928 20.0018 39.9997ZM20.0018 1.30792C16.3043 1.30706 12.6895 2.40271 9.61478 4.45631C6.53999 6.5099 4.14326 9.42921 2.72768 12.845C1.31211 16.2608 0.941281 20.0197 1.6621 23.6463C2.38292 27.2728 4.16301 30.6042 6.77724 33.219C9.39146 35.8339 12.7224 37.6147 16.3488 38.3364C19.9752 39.0581 23.7341 38.6881 27.1503 37.2733C30.5664 35.8586 33.4863 33.4625 35.5406 30.3882C37.5949 27.3139 38.6914 23.6994 38.6914 20.0019C38.6856 15.0465 36.7148 10.2956 33.2112 6.79117C29.7076 3.28674 24.9572 1.31485 20.0018 1.30792Z" fill="white"/>
<path d="M14.4466 13.2388H10.3956L15.9031 20.0021L10.3956 26.7611H14.4466L19.9541 20.0021L14.4466 13.2388Z" fill="white"/>
<path d="M21.742 30.9213H14.329L23.2203 20.0197L14.329 9.11816H21.742L30.6334 20.0197L21.742 30.9213ZM16.1692 30.0492H21.3278L29.5083 20.0197L21.3278 9.99029H16.1692L24.3497 20.0197L16.1692 30.0492Z" fill="white"/>
</svg>
