<svg id="MUX" xmlns="http://www.w3.org/2000/svg" width="40" height="40" viewBox="0 0 40 40">
  <circle id="Ellipse_1" data-name="Ellipse 1" cx="20" cy="20" r="20" fill="#00a9b3"/>
  <path id="Path_1" data-name="Path 1" d="M28.108,24.691a2.187,2.187,0,0,0-1.484-.589,2.157,2.157,0,0,0-1.6.707,6.294,6.294,0,0,1-5.089,2.4,6.534,6.534,0,0,1-5.254-2.427,2.2,2.2,0,0,0-1.6-.707,2.245,2.245,0,0,0-1.508.589,2.2,2.2,0,0,0-.118,3.11,10.8,10.8,0,0,0,8.459,3.817,10.586,10.586,0,0,0,8.317-3.817A2.171,2.171,0,0,0,28.108,24.691Z" fill="#fff"/>
  <path id="Path_2" data-name="Path 2" d="M28.06,20.309a2.474,2.474,0,1,0-2.474-2.474A2.474,2.474,0,0,0,28.06,20.309Z" fill="#fff"/>
  <path id="Path_3" data-name="Path 3" d="M10.672,19.931a2.49,2.49,0,0,1-.848-3.416l4.147-6.9a2.489,2.489,0,1,1,4.265,2.568l-4.147,6.9A2.511,2.511,0,0,1,10.672,19.931Z" fill="#fff"/>
  <path id="Path_4" data-name="Path 4" d="M18.706,19.931a2.49,2.49,0,0,1-.848-3.416L22,9.611A2.489,2.489,0,1,1,26.27,12.18l-4.147,6.9A2.511,2.511,0,0,1,18.706,19.931Z" fill="#fff"/>
</svg>
