<svg width="38" height="36" viewBox="0 0 38 36" fill="none" xmlns="http://www.w3.org/2000/svg">
<path d="M11.288 22.357L11.291 22.157L11.293 22.107L11.296 22.057L11.302 21.907L11.308 21.81L11.312 21.76L11.316 21.712L11.319 21.662L11.328 21.566L11.333 21.516L11.359 21.279L11.391 21.045L11.406 20.952L11.413 20.907L11.421 20.861L11.429 20.815L11.437 20.769L11.445 20.725L11.462 20.634L11.472 20.59L11.481 20.545L11.49 20.501L11.5 20.456L11.518 20.369L11.528 20.325L11.569 20.152L11.592 20.067L11.602 20.024L11.615 19.982L11.625 19.941L11.636 19.898L11.649 19.856L11.659 19.815L11.672 19.773L11.685 19.733L11.696 19.693L11.709 19.651L11.734 19.571L11.746 19.53L11.76 19.49L11.786 19.41L11.799 19.372L11.812 19.332L11.826 19.292L11.839 19.254L11.853 19.214L11.867 19.177L11.88 19.139L11.894 19.099L11.937 18.986L11.951 18.95L11.98 18.875L11.995 18.838L12.009 18.801L12.024 18.765L12.039 18.728L12.084 18.62L12.1 18.585L12.114 18.549L12.13 18.514L12.145 18.478L12.16 18.444L12.176 18.409L12.191 18.375L12.207 18.34L12.223 18.305L12.239 18.272L12.269 18.203L12.319 18.103L12.333 18.069L12.349 18.037L12.354 18.029L12.332 17.986L12.285 17.886L12.268 17.852L12.252 17.819L12.237 17.784L12.221 17.751L12.205 17.716L12.19 17.681L12.174 17.646L12.159 17.612L12.143 17.577L12.128 17.542L12.112 17.506L12.098 17.471L12.082 17.435L12.068 17.399L12.021 17.291L12.007 17.254L11.993 17.217L11.977 17.181L11.962 17.144L11.949 17.107L11.935 17.069L11.92 17.032L11.877 16.917L11.864 16.879L11.836 16.802L11.768 16.605L11.756 16.567L11.692 16.364L11.68 16.323L11.667 16.282L11.657 16.242L11.632 16.158L11.621 16.115L11.608 16.074L11.598 16.032L11.575 15.946L11.555 15.861L11.545 15.818L11.533 15.775L11.493 15.599L11.476 15.511L11.466 15.466L11.456 15.422L11.416 15.195L11.4 15.103L11.393 15.057L11.378 14.964L11.372 14.918L11.365 14.87L11.36 14.823L11.353 14.776L11.347 14.729L11.321 14.49L11.316 14.441L11.313 14.393L11.309 14.343L11.302 14.247L11.298 14.197L11.288 14L11.286 13.95L11.284 13.9V13.85L11.281 13.8V13.647L11.28 13.626L11.266 13.634L11.221 13.659L11.176 13.686L11.132 13.712L11.086 13.738L11.042 13.765L10.997 13.793L10.953 13.82L10.908 13.849L10.863 13.876L10.819 13.905L10.773 13.934L10.73 13.963L10.685 13.993L10.641 14.022L10.551 14.082L10.508 14.113L10.464 14.144L10.332 14.239L10.289 14.272L10.244 14.304L10.201 14.337L10.157 14.37L10.114 14.404L10.071 14.438L10.027 14.473L9.98502 14.507L9.89802 14.577L9.85602 14.614L9.81302 14.649L9.77002 14.685L9.72802 14.722L9.68602 14.759L9.64302 14.796L9.60202 14.833L9.56002 14.872L9.51802 14.909L9.47602 14.949L9.43502 14.986L9.35202 15.065L9.31102 15.106L9.27002 15.146L9.23002 15.186L9.18802 15.226L9.14802 15.269L9.10802 15.309L9.02802 15.393L8.98902 15.436L8.94902 15.479L8.90902 15.522L8.87102 15.565L8.83102 15.608L8.79302 15.652L8.75402 15.698L8.71602 15.742L8.67802 15.788L8.64002 15.832L8.56402 15.924L8.41802 16.11L8.38102 16.159L8.34602 16.206L8.27302 16.303L8.20302 16.401L8.16902 16.451L8.13302 16.5L8.06502 16.6L7.93202 16.804L7.83402 16.96L7.73902 17.12L7.61602 17.336L7.58702 17.39L7.55702 17.445L7.52802 17.501L7.50002 17.556L7.44302 17.668L7.36002 17.838L7.28002 18.008L7.27002 18.032L7.27802 18.051L7.33102 18.166L7.38502 18.279L7.41402 18.336L7.44102 18.392L7.47002 18.449L7.49702 18.505L7.61602 18.725L7.70602 18.887L7.73902 18.94L7.76902 18.993L7.80202 19.046L7.83302 19.098L7.86502 19.152L7.89802 19.202L7.93102 19.255L8.03102 19.409L8.09902 19.509L8.13402 19.559L8.16802 19.609L8.20302 19.659L8.23802 19.708L8.34502 19.852L8.38202 19.9L8.41702 19.948L8.45502 19.996L8.49202 20.042L8.52902 20.088L8.60302 20.18L8.64102 20.227L8.67802 20.272L8.71802 20.317L8.75602 20.362L8.83302 20.449L8.87202 20.493L8.91102 20.536L8.99102 20.623L9.07002 20.706L9.11002 20.748L9.15002 20.79L9.19102 20.831L9.27102 20.912L9.31302 20.953L9.39502 21.032L9.43702 21.071L9.47902 21.109L9.51902 21.149L9.56202 21.186L9.60302 21.224L9.73002 21.336L9.85902 21.445L9.90102 21.48L9.94402 21.515L9.98702 21.55L10.03 21.585L10.073 21.619L10.117 21.653L10.203 21.72L10.247 21.752L10.291 21.786L10.335 21.818L10.38 21.849L10.423 21.881L10.556 21.974L10.6 22.004L10.645 22.034L10.733 22.094L10.778 22.122L10.822 22.152L10.956 22.236L11.18 22.371L11.27 22.421L11.288 22.432V22.357ZM11.358 13.584L11.403 13.558L11.449 13.534L11.493 13.51L11.628 13.44L11.673 13.417L11.718 13.393L11.764 13.371L11.808 13.349L11.853 13.328L11.898 13.305L12.123 13.201L12.168 13.182L12.212 13.162L12.258 13.143L12.302 13.123L12.57 13.016L12.658 12.982L12.703 12.966L12.748 12.949L12.792 12.934L12.836 12.917L12.88 12.902L12.924 12.886L12.968 12.871L13.012 12.857L13.057 12.842L13.187 12.8L13.231 12.787L13.275 12.773L13.361 12.747L13.405 12.734L13.448 12.722L13.491 12.71L13.534 12.699L13.577 12.686L13.62 12.674L13.663 12.664L13.833 12.62L13.876 12.61L13.917 12.6L13.96 12.59L14.044 12.572L14.086 12.562L14.252 12.526L14.377 12.502L14.417 12.495L14.458 12.487L14.54 12.473L14.58 12.466L14.661 12.452L14.701 12.446L14.742 12.439L14.782 12.433L14.862 12.421L14.9 12.416L14.94 12.41L14.98 12.405L15.019 12.399L15.098 12.389L15.136 12.384L15.176 12.379L15.213 12.375L15.253 12.37L15.291 12.367L15.329 12.363L15.368 12.359L15.443 12.351L15.483 12.347L15.519 12.344L15.557 12.341L15.595 12.337L15.706 12.327L15.715 12.317L15.735 12.288L15.801 12.198L15.821 12.167L15.843 12.137L15.866 12.105L15.889 12.075L15.911 12.045L15.933 12.015L15.956 11.985L15.979 11.954L16.097 11.801L16.121 11.769L16.145 11.739L16.171 11.707L16.195 11.677L16.219 11.646L16.245 11.615L16.27 11.585L16.346 11.492L16.373 11.46L16.4 11.43L16.425 11.4L16.48 11.336L16.506 11.306L16.534 11.275L16.562 11.244L16.589 11.212L16.703 11.089L16.732 11.057L16.761 11.027L16.79 10.996L16.82 10.966L16.88 10.903L16.91 10.873L16.94 10.842L16.97 10.812L17.001 10.779L17.033 10.749L17.065 10.719L17.096 10.689L17.128 10.656L17.16 10.626L17.192 10.596L17.258 10.534L17.291 10.505L17.324 10.475L17.358 10.444L17.391 10.413L17.427 10.383L17.495 10.323L17.53 10.293L17.564 10.263L17.599 10.233L17.636 10.203L17.706 10.143L17.744 10.113L17.78 10.085L17.817 10.055L17.855 10.027L17.892 9.99695L17.929 9.96795L18.005 9.90995L18.045 9.87995L18.082 9.85295L18.2 9.76595L18.401 9.62595L18.443 9.59895L18.483 9.57095L18.526 9.54395L18.609 9.48895L18.694 9.43595L18.737 9.40795L18.781 9.38195L18.823 9.35495L18.911 9.30295L18.955 9.27795L18.999 9.25195L19.044 9.22595L19.062 9.21595L19.057 9.21295L19.012 9.18795L18.966 9.16295L18.92 9.13695L18.828 9.08795L18.782 9.06295L18.735 9.03995L18.688 9.01595L18.642 8.99295L18.547 8.94495L18.45 8.89895L18.401 8.87595L18.352 8.85395L18.304 8.83095L18.255 8.80895L18.205 8.78595L18.155 8.76595L18.105 8.74295L18.055 8.72195L18.005 8.70195L17.955 8.68095L17.903 8.66095L17.853 8.63895L17.801 8.61895L17.749 8.59895L17.594 8.54195L17.54 8.52295L17.488 8.50395L17.435 8.48595L17.381 8.46795L17.328 8.44995L17.274 8.43195L17.22 8.41495L17.165 8.39895L17.112 8.38195L17.057 8.36495L17.003 8.34895L16.891 8.31895L16.837 8.30295L16.781 8.28795L16.668 8.25895L16.613 8.24495L16.556 8.23095L16.442 8.20395L16.386 8.19095L16.212 8.15495L16.155 8.14395L16.038 8.12195L15.98 8.11195L15.862 8.09095L15.804 8.08095L15.744 8.07195L15.684 8.06195L15.626 8.05495L15.566 8.04595L15.506 8.03895L15.446 8.03095L15.386 8.02395L15.326 8.01695L15.205 8.00395L15.143 7.99995L14.961 7.98395L14.838 7.97595L14.776 7.97395L14.714 7.96895L14.654 7.96695L14.59 7.96495L14.528 7.96295L14.466 7.96095H14.403L14.341 7.95895H14.09L14.027 7.95995L13.964 7.96295L13.901 7.96395L13.837 7.96695L13.774 7.96995L13.711 7.97195L13.647 7.97595L13.583 7.98095L13.52 7.98495L13.392 7.99495L13.328 8.00095L13.264 8.00595L13.201 8.01295L13.161 8.01795L13.157 8.02395L13.082 8.12495L13.045 8.17795L13.008 8.22795L12.973 8.28095L12.936 8.33195L12.901 8.38395L12.867 8.43595L12.831 8.48795L12.797 8.54095L12.764 8.59395L12.729 8.64695L12.697 8.69895L12.665 8.75295L12.632 8.80495L12.569 8.91095L12.539 8.96495L12.507 9.01695L12.477 9.07095L12.389 9.23295L12.36 9.28595L12.332 9.34095L12.304 9.39395L12.277 9.44895L12.249 9.50295L12.197 9.61195L12.171 9.66495L12.121 9.77495L12.071 9.88295L12.047 9.93895L12.001 10.048L11.979 10.102L11.934 10.212L11.913 10.267L11.831 10.487L11.811 10.542L11.793 10.596L11.773 10.652L11.754 10.706L11.701 10.871L11.684 10.926L11.668 10.981L11.62 11.145L11.591 11.255L11.549 11.419L11.509 11.583L11.498 11.637L11.453 11.855L11.443 11.908L11.433 11.964L11.404 12.126L11.396 12.179L11.388 12.232L11.38 12.287L11.365 12.394L11.357 12.447L11.35 12.5L11.327 12.713L11.322 12.766L11.31 12.924L11.304 12.976L11.302 13.029L11.295 13.133L11.293 13.185L11.291 13.237L11.289 13.289L11.284 13.443V13.495L11.283 13.545V13.627L11.313 13.609L11.359 13.585L11.358 13.584ZM18.965 26.767L18.746 26.637L18.576 26.528L18.536 26.5009L18.493 26.474L18.453 26.447L18.41 26.419L18.37 26.391L18.33 26.363L18.289 26.3349L18.249 26.3069L18.209 26.2789L18.169 26.25L18.131 26.221L18.091 26.193L17.938 26.077L17.901 26.049L17.863 26.019L17.826 25.991L17.788 25.961L17.753 25.9319L17.715 25.902L17.681 25.872L17.644 25.8419L17.608 25.812L17.573 25.782L17.537 25.753L17.503 25.7229L17.433 25.663L17.401 25.6329L17.366 25.603L17.332 25.573L17.233 25.482L17.201 25.451L17.168 25.421L17.136 25.389L17.104 25.359L17.072 25.329L16.947 25.206L16.917 25.1749L16.887 25.145L16.827 25.082L16.797 25.052L16.709 24.959L16.682 24.928L16.652 24.8969L16.624 24.867L16.597 24.8349L16.569 24.805L16.541 24.773L16.515 24.743L16.487 24.711L16.461 24.681L16.433 24.649L16.353 24.556L16.328 24.526L16.302 24.4939L16.277 24.464L16.252 24.433L16.226 24.403L16.201 24.371L16.178 24.341L16.152 24.311L16.127 24.2789L16.08 24.218L16.056 24.187L15.985 24.095L15.963 24.065L15.94 24.034L15.917 24.004L15.895 23.9729L15.851 23.913L15.829 23.883L15.806 23.853L15.784 23.821L15.763 23.792L15.741 23.762L15.721 23.731L15.715 23.725L15.711 23.724L15.674 23.721L15.637 23.718L15.524 23.708L15.486 23.705L15.449 23.701L15.409 23.697L15.372 23.694L15.334 23.69L15.295 23.685L15.218 23.677L15.18 23.672L15.14 23.668L15.102 23.663L15.062 23.658L14.984 23.648L14.944 23.643L14.866 23.632L14.786 23.619L14.746 23.614L14.666 23.601L14.624 23.594L14.584 23.587L14.544 23.58L14.504 23.573L14.421 23.559L14.339 23.543L14.297 23.534L14.257 23.527L14.047 23.483L14.007 23.473L13.964 23.464L13.879 23.444L13.836 23.434L13.752 23.414L13.708 23.402L13.667 23.391L13.58 23.369L13.495 23.345L13.452 23.333L13.364 23.308L13.321 23.296L13.278 23.282L13.234 23.269L13.19 23.254L13.146 23.242L13.103 23.228L12.97 23.184L12.927 23.168L12.883 23.154L12.84 23.138L12.705 23.089L12.662 23.074L12.617 23.057L12.572 23.039L12.528 23.022L12.483 23.004L12.439 22.987L12.394 22.968L12.349 22.95L12.305 22.931L12.259 22.913L12.214 22.893L12.17 22.874L12.124 22.854L12.08 22.834L12.035 22.814L11.901 22.752L11.855 22.729L11.81 22.709L11.72 22.663L11.676 22.641L11.629 22.618L11.585 22.594L11.54 22.571L11.495 22.547L11.449 22.523L11.406 22.498L11.36 22.474L11.315 22.448L11.288 22.433V22.51L11.29 22.562V22.612L11.294 22.767L11.301 22.924L11.304 22.974L11.308 23.028L11.31 23.08L11.315 23.132L11.319 23.185L11.324 23.237L11.328 23.291L11.338 23.395L11.345 23.449L11.364 23.609L11.372 23.662L11.378 23.716L11.388 23.769L11.402 23.877L11.412 23.93L11.42 23.984L11.43 24.038L11.44 24.093L11.46 24.201L11.472 24.255L11.482 24.309L11.494 24.364L11.506 24.4179L11.518 24.472L11.531 24.527L11.544 24.582L11.57 24.69L11.614 24.8549L11.63 24.91L11.644 24.965L11.661 25.019L11.676 25.075L11.694 25.13L11.71 25.184L11.728 25.238L11.745 25.294L11.765 25.3479L11.782 25.403L11.82 25.513L11.84 25.568L11.86 25.623L11.88 25.677L11.9 25.733L11.945 25.843L11.965 25.8969L11.989 25.9529L12.011 26.006L12.033 26.061L12.057 26.116L12.082 26.171L12.107 26.225L12.13 26.2789L12.155 26.3349L12.207 26.443L12.233 26.498L12.261 26.551L12.288 26.606L12.342 26.713L12.371 26.768L12.4 26.8209L12.428 26.875L12.458 26.929L12.488 26.983L12.518 27.0359L12.548 27.09L12.58 27.142L12.612 27.1959L12.643 27.249L12.708 27.354L12.742 27.408L12.775 27.459L12.809 27.512L12.913 27.669L12.948 27.721L13.057 27.8759L13.094 27.926L13.17 28.0289L13.178 28.039L13.21 28.0429L13.274 28.0499L13.339 28.056L13.53 28.072L13.594 28.075L13.658 28.08L13.721 28.083L13.785 28.086L13.847 28.088L13.911 28.091L13.974 28.093H14.037L14.1 28.095L14.164 28.096H14.414L14.538 28.0919L14.6 28.089L14.662 28.088L14.725 28.0849L14.848 28.0779L14.91 28.073L14.97 28.07L15.215 28.049L15.275 28.0429L15.396 28.0289L15.456 28.0219L15.516 28.0149L15.576 28.005L15.636 27.998L15.696 27.989L15.754 27.981L15.814 27.971L15.873 27.961L15.932 27.951L15.99 27.941L16.107 27.92L16.165 27.908L16.224 27.8969L16.281 27.885L16.453 27.847L16.567 27.82L16.791 27.764L16.846 27.748L16.901 27.733L17.013 27.701L17.231 27.635L17.337 27.6L17.392 27.582L17.445 27.565L17.551 27.527L17.603 27.509L17.863 27.4109L17.913 27.389L18.015 27.349L18.065 27.326L18.115 27.306L18.165 27.283L18.215 27.263L18.265 27.24L18.315 27.219L18.362 27.195L18.412 27.173L18.46 27.149L18.508 27.128L18.555 27.104L18.651 27.0569L18.745 27.009L18.791 26.984L18.838 26.9599L18.976 26.886L19.066 26.8349L19.075 26.83L19.054 26.817L18.965 26.767ZM26.847 13.67V13.722L26.844 13.872L26.842 13.922V13.972L26.839 14.022L26.836 14.072L26.834 14.122L26.821 14.317L26.817 14.367L26.805 14.512L26.799 14.559L26.795 14.607L26.79 14.655L26.784 14.704L26.778 14.75L26.772 14.798L26.747 14.985L26.739 15.032L26.732 15.077L26.709 15.216L26.701 15.261L26.694 15.306L26.685 15.352L26.675 15.397L26.668 15.441L26.658 15.486L26.65 15.53L26.64 15.575L26.63 15.618L26.621 15.662L26.611 15.706L26.601 15.75L26.581 15.836L26.57 15.879L26.56 15.922L26.514 16.092L26.504 16.133L26.491 16.175L26.481 16.217L26.456 16.3L26.444 16.341L26.431 16.381L26.419 16.421L26.407 16.461L26.393 16.503L26.367 16.583L26.355 16.623L26.341 16.661L26.329 16.701L26.315 16.741L26.288 16.817L26.274 16.857L26.26 16.895L26.247 16.933L26.232 16.972L26.217 17.009L26.204 17.048L26.189 17.085L26.175 17.121L26.146 17.197L26.131 17.232L26.117 17.27L26.087 17.342L26.072 17.379L26.056 17.414L26.026 17.486L26.01 17.521L25.996 17.556L25.965 17.626L25.935 17.695L25.918 17.73L25.903 17.764L25.887 17.797L25.871 17.832L25.855 17.865L25.84 17.899L25.824 17.933L25.808 17.965L25.792 17.999L25.782 18.019L25.794 18.044L25.81 18.077L25.873 18.21L25.889 18.245L25.905 18.278L25.92 18.313L25.936 18.348L25.952 18.381L25.967 18.417L25.982 18.452L25.999 18.487L26.014 18.521L26.028 18.557L26.075 18.665L26.089 18.701L26.119 18.773L26.134 18.809L26.164 18.884L26.177 18.921L26.207 18.995L26.221 19.033L26.236 19.07L26.264 19.147L26.276 19.186L26.305 19.262L26.372 19.459L26.385 19.5L26.397 19.539L26.423 19.619L26.435 19.661L26.448 19.701L26.46 19.743L26.473 19.783L26.483 19.825L26.508 19.908L26.519 19.951L26.529 19.993L26.542 20.034L26.553 20.077L26.606 20.292L26.646 20.468L26.672 20.6L26.682 20.646L26.691 20.691L26.708 20.781L26.715 20.827L26.723 20.873L26.731 20.919L26.737 20.965L26.753 21.057L26.759 21.103L26.766 21.151L26.772 21.197L26.779 21.245L26.785 21.291L26.79 21.339L26.796 21.386L26.801 21.434L26.805 21.483L26.815 21.578L26.82 21.628L26.824 21.676L26.828 21.725L26.831 21.773L26.834 21.823L26.838 21.873L26.841 21.921L26.844 21.97L26.846 22.02L26.848 22.07L26.852 22.17V22.27L26.855 22.321V22.423L26.887 22.403L26.932 22.378L26.977 22.351L27.021 22.325L27.067 22.299L27.111 22.272L27.156 22.243L27.2 22.216L27.335 22.132L27.379 22.102L27.424 22.072L27.468 22.044L27.557 21.984L27.601 21.954L27.645 21.922L27.689 21.892L27.733 21.86L27.776 21.828L27.821 21.796L27.864 21.762L27.908 21.731L27.952 21.697L27.995 21.663L28.082 21.596L28.125 21.562L28.212 21.492L28.254 21.456L28.297 21.42L28.339 21.385L28.382 21.348L28.424 21.312L28.466 21.274L28.509 21.237L28.593 21.162L28.633 21.122L28.676 21.085L28.8 20.966L28.84 20.926L28.882 20.886L28.922 20.846L28.962 20.805L29.122 20.638L29.162 20.595L29.202 20.552L29.28 20.465L29.318 20.421L29.358 20.377L29.396 20.333L29.434 20.287L29.472 20.243L29.586 20.105L29.696 19.965L29.733 19.918L29.769 19.87L29.805 19.822L29.84 19.775L29.946 19.628L29.98 19.578L30.016 19.528L30.05 19.478L30.083 19.428L30.118 19.377L30.184 19.275L30.314 19.066L30.377 18.961L30.439 18.853L30.471 18.799L30.5 18.745L30.531 18.69L30.561 18.636L30.589 18.58L30.619 18.525L30.648 18.469L30.675 18.414L30.703 18.358L30.759 18.245L30.785 18.188L30.813 18.131L30.838 18.073L30.865 18.016L30.841 17.963L30.815 17.906L30.788 17.849L30.761 17.791L30.733 17.734L30.706 17.679L30.676 17.623L30.649 17.567L30.619 17.511L30.502 17.291L30.441 17.183L30.41 17.13L30.378 17.077L30.347 17.024L30.315 16.97L30.282 16.918L30.251 16.866L30.218 16.814L30.151 16.711L30.119 16.661L30.084 16.609L30.015 16.509L29.876 16.312L29.839 16.263L29.769 16.167L29.732 16.119L29.659 16.025L29.621 15.979L29.584 15.933L29.547 15.886L29.51 15.84L29.471 15.795L29.434 15.75L29.395 15.704L29.357 15.661L29.317 15.616L29.279 15.572L29.239 15.529L29.201 15.486L29.161 15.443L29.121 15.4L29.081 15.358L29.041 15.316L29.001 15.274L28.961 15.234L28.92 15.193L28.84 15.112L28.797 15.072L28.715 14.992L28.632 14.916L28.59 14.877L28.548 14.839L28.379 14.689L28.337 14.654L28.252 14.582L28.208 14.547L28.166 14.512L28.122 14.477L28.079 14.443L28.035 14.409L27.905 14.309L27.861 14.276L27.773 14.212L27.73 14.18L27.597 14.086L27.553 14.056L27.508 14.026L27.465 13.996L27.421 13.966L27.375 13.937L27.331 13.907L27.198 13.823L27.152 13.796L27.108 13.768L27.018 13.714L26.973 13.689L26.928 13.662L26.883 13.637L26.847 13.617V13.67ZM19.144 9.26495L19.188 9.29195L19.233 9.31695L19.321 9.36995L19.363 9.39695L19.406 9.42195L19.576 9.52995L19.617 9.55795L19.659 9.58595L19.822 9.69595L19.942 9.78095L19.982 9.80895L20.02 9.83795L20.06 9.86595L20.175 9.95295L20.212 9.98095L20.25 10.011L20.288 10.041L20.434 10.158L20.47 10.188L20.506 10.218L20.576 10.277L20.611 10.307L20.716 10.397L20.748 10.427L20.783 10.457L20.816 10.487L20.85 10.517L20.882 10.549L20.948 10.609L20.981 10.64L21.012 10.67L21.045 10.701L21.169 10.824L21.199 10.855L21.229 10.885L21.261 10.915L21.437 11.102L21.494 11.162L21.522 11.195L21.551 11.225L21.577 11.256L21.605 11.287L21.633 11.317L21.659 11.349L21.687 11.38L21.74 11.442L21.766 11.473L21.792 11.504L21.817 11.534L21.843 11.566L21.869 11.596L21.893 11.627L21.919 11.657L21.968 11.72L21.993 11.75L22.017 11.78L22.042 11.812L22.136 11.934L22.159 11.966L22.181 11.996L22.205 12.026L22.227 12.056L22.249 12.087L22.272 12.117L22.293 12.147L22.316 12.177L22.338 12.209L22.359 12.238L22.381 12.268L22.402 12.298L22.42 12.323L22.44 12.325L22.477 12.328L22.589 12.338L22.626 12.341L22.664 12.345L22.703 12.348L22.74 12.351L22.78 12.355L22.817 12.36L22.895 12.368L22.933 12.373L22.971 12.377L23.011 12.382L23.049 12.386L23.128 12.397L23.168 12.401L23.246 12.412L23.286 12.419L23.326 12.424L23.526 12.456L23.567 12.464L23.607 12.47L23.649 12.477L23.73 12.493L23.772 12.5L23.812 12.508L23.896 12.525L23.936 12.533L24.062 12.559L24.104 12.569L24.146 12.578L24.189 12.588L24.231 12.598L24.401 12.639L24.444 12.65L24.486 12.66L24.529 12.673L24.572 12.683L24.615 12.696L24.658 12.709L24.702 12.719L24.744 12.732L24.788 12.745L24.831 12.759L24.919 12.784L24.962 12.798L25.006 12.812L25.049 12.826L25.226 12.885L25.27 12.9L25.314 12.917L25.358 12.931L25.403 12.948L25.447 12.965L25.537 12.998L25.58 13.015L25.625 13.033L25.669 13.05L25.805 13.105L25.893 13.143L25.939 13.163L25.983 13.182L26.029 13.202L26.072 13.222L26.118 13.242L26.163 13.262L26.209 13.284L26.253 13.304L26.298 13.327L26.344 13.348L26.389 13.371L26.433 13.393L26.478 13.416L26.523 13.44L26.569 13.463L26.659 13.51L26.704 13.535L26.748 13.559L26.794 13.584L26.839 13.609L26.848 13.615L26.847 13.567V13.465L26.845 13.413L26.843 13.363L26.842 13.311L26.839 13.259V13.208L26.833 13.103L26.829 13.052L26.827 12.999L26.823 12.946L26.819 12.895L26.814 12.841L26.81 12.789L26.805 12.736L26.8 12.683L26.793 12.63L26.788 12.578L26.781 12.523L26.768 12.417L26.761 12.363L26.753 12.31L26.737 12.203L26.729 12.149L26.71 12.042L26.701 11.987L26.671 11.825L26.659 11.771L26.648 11.717L26.636 11.662L26.599 11.498L26.559 11.335L26.515 11.17L26.499 11.116L26.484 11.06L26.435 10.897L26.383 10.731L26.287 10.457L26.267 10.402L26.247 10.348L26.226 10.292L26.16 10.127L26.137 10.073L26.115 10.018L26.02 9.79995L25.994 9.74595L25.969 9.69095L25.944 9.63695L25.917 9.58195L25.891 9.52795L25.809 9.36695L25.724 9.20395L25.666 9.09695L25.636 9.04295L25.604 8.98995L25.574 8.93595L25.542 8.88295L25.511 8.82995L25.478 8.77695L25.446 8.72395L25.381 8.61895L25.347 8.56595L25.243 8.40995L25.208 8.35695L25.172 8.30695L25.1 8.20295L25.062 8.15095L25.025 8.10095L24.988 8.04795L24.958 8.00795H24.951L24.887 7.99995L24.822 7.99395L24.759 7.98695L24.695 7.98195L24.631 7.97795L24.567 7.97195L24.441 7.96495L24.377 7.96295L24.313 7.95895L24.25 7.95695L24.124 7.95295H24.06L23.997 7.94995H23.809L23.747 7.95195H23.684L23.622 7.95395L23.56 7.95695L23.498 7.95795L23.435 7.96095L23.251 7.97095L23.191 7.97495L23.128 7.97995L22.945 7.99495L22.885 8.00095L22.703 8.02095L22.583 8.03695L22.523 8.04595L22.463 8.05295L22.227 8.09095L22.169 8.10095L22.111 8.11095L21.993 8.13395L21.763 8.18095L21.649 8.20795L21.592 8.21995L21.536 8.23395L21.479 8.24795L21.422 8.26295L21.366 8.27695L21.311 8.29195L21.256 8.30795L21.201 8.32295L21.145 8.33895L21.091 8.35495L21.035 8.37095L20.98 8.38795L20.927 8.40495L20.873 8.42195L20.819 8.43895L20.765 8.45695L20.713 8.47495L20.659 8.49295L20.606 8.51295L20.553 8.52995L20.502 8.54995L20.449 8.56895L20.345 8.60895L20.295 8.62895L20.242 8.64895L20.191 8.66895L20.141 8.68995L20.091 8.71095L20.041 8.73295L19.991 8.75295L19.941 8.77595L19.891 8.79695L19.792 8.84295L19.744 8.86395L19.695 8.88795L19.646 8.90995L19.598 8.93395L19.551 8.95595L19.316 9.07595L19.178 9.14995L19.134 9.17595L19.088 9.20095L19.061 9.21695L19.1 9.23895L19.144 9.26395V9.26495ZM25.039 27.942L25.077 27.892L25.113 27.84L25.149 27.788L25.186 27.736L25.256 27.632L25.359 27.476L25.491 27.264L25.586 27.104L25.677 26.944L25.736 26.836L25.764 26.783L25.794 26.729L25.848 26.622L25.876 26.567L25.956 26.4039L25.98 26.35L26.006 26.295L26.03 26.242L26.055 26.186L26.079 26.132L26.103 26.077L26.125 26.0219L26.148 25.968L26.171 25.912L26.192 25.858L26.215 25.803L26.236 25.749L26.298 25.584L26.337 25.474L26.374 25.364L26.392 25.308L26.41 25.254L26.428 25.2L26.445 25.144L26.462 25.09L26.478 25.034L26.51 24.924L26.525 24.8689L26.539 24.815L26.554 24.761L26.567 24.706L26.581 24.652L26.595 24.596L26.609 24.542L26.62 24.4869L26.633 24.433L26.646 24.378L26.679 24.215L26.689 24.1609L26.699 24.106L26.71 24.053L26.729 23.945L26.736 23.891L26.746 23.837L26.776 23.622L26.783 23.57L26.79 23.515L26.807 23.355L26.812 23.304L26.816 23.251L26.822 23.198L26.826 23.145L26.829 23.093L26.833 23.04L26.84 22.937L26.847 22.78L26.853 22.575V22.472L26.854 22.422L26.841 22.427L26.751 22.478L26.706 22.503L26.662 22.527L26.481 22.622L26.391 22.667L26.346 22.689L26.302 22.711L26.257 22.732L26.211 22.754L26.076 22.816L26.032 22.836L25.987 22.857L25.942 22.876L25.897 22.896L25.852 22.915L25.808 22.933L25.763 22.953L25.629 23.006L25.585 23.023L25.54 23.041L25.496 23.058L25.451 23.074L25.407 23.091L25.363 23.107L25.318 23.123L25.274 23.138L25.23 23.154L25.142 23.184L25.01 23.227L24.968 23.241L24.924 23.255L24.879 23.269L24.706 23.32L24.663 23.332L24.62 23.345L24.576 23.355L24.534 23.368L24.49 23.378L24.448 23.391L24.405 23.401L24.363 23.411L24.32 23.421L24.279 23.433L24.109 23.473L24.067 23.481L24.027 23.491L23.942 23.508L23.901 23.516L23.861 23.525L23.735 23.549L23.695 23.556L23.655 23.564L23.532 23.584L23.492 23.592L23.452 23.599L23.371 23.611L23.331 23.617L23.251 23.629L23.213 23.635L23.173 23.64L23.133 23.646L23.093 23.65L23.055 23.656L23.015 23.66L22.977 23.666L22.938 23.669L22.899 23.674L22.861 23.678L22.823 23.682L22.785 23.686L22.745 23.691L22.708 23.694L22.671 23.698L22.631 23.702L22.558 23.708L22.518 23.712L22.482 23.715L22.446 23.717L22.428 23.719L22.409 23.746L22.387 23.776L22.367 23.807L22.257 23.958L22.235 23.989L22.212 24.019L22.167 24.081L22.143 24.111L22.12 24.141L22.073 24.2029L22.048 24.234L22.001 24.295L21.976 24.326L21.952 24.356L21.902 24.419L21.877 24.449L21.827 24.512L21.8 24.542L21.774 24.574L21.747 24.604L21.722 24.635L21.695 24.667L21.668 24.697L21.614 24.76L21.585 24.79L21.559 24.8209L21.502 24.882L21.474 24.915L21.446 24.945L21.416 24.976L21.387 25.0079L21.359 25.038L21.329 25.07L21.299 25.1L21.209 25.193L21.147 25.254L21.117 25.2859L21.054 25.346L21.022 25.3759L20.99 25.408L20.957 25.438L20.924 25.468L20.892 25.498L20.826 25.561L20.792 25.591L20.758 25.621L20.726 25.651L20.69 25.681L20.656 25.711L20.621 25.742L20.516 25.832L20.48 25.8619L20.407 25.92L20.371 25.95L20.335 25.9799L20.297 26.009L20.26 26.038L20.184 26.096L20.146 26.125L20.108 26.155L20.03 26.212L19.992 26.241L19.952 26.268L19.912 26.297L19.712 26.437L19.587 26.519L19.544 26.547L19.502 26.574L19.417 26.627L19.373 26.6539L19.331 26.68L19.2 26.759L19.154 26.785L19.11 26.81L19.074 26.83L19.098 26.844L19.143 26.8689L19.19 26.894L19.235 26.92L19.28 26.944L19.327 26.969L19.373 26.992L19.42 27.017L19.467 27.041L19.514 27.065L19.562 27.088L19.61 27.1119L19.754 27.18L19.804 27.2029L19.902 27.246L19.952 27.269L20 27.291L20.102 27.333L20.152 27.354L20.356 27.435L20.408 27.455L20.46 27.475L20.512 27.4939L20.565 27.513L20.618 27.531L20.67 27.551L20.724 27.568L20.777 27.586L20.83 27.603L20.885 27.621L20.938 27.638L20.993 27.655L21.047 27.671L21.157 27.705L21.212 27.719L21.323 27.75L21.378 27.764L21.434 27.78L21.491 27.794L21.547 27.8069L21.603 27.8209L21.717 27.8479L21.775 27.86L21.832 27.872L22.006 27.909L22.063 27.919L22.122 27.929L22.18 27.941L22.238 27.95L22.357 27.97L22.416 27.979L22.476 27.988L22.536 27.995L22.595 28.004L22.655 28.012L22.715 28.019L22.775 28.025L22.835 28.033L22.896 28.038L22.957 28.045L23.14 28.06L23.201 28.0639L23.261 28.069L23.324 28.072L23.385 28.076L23.448 28.079L23.508 28.081L23.634 28.0849L23.695 28.087L23.759 28.088H24.071L24.135 28.0849H24.198L24.261 28.082L24.388 28.077L24.578 28.066L24.77 28.051L24.834 28.044L24.898 28.038L24.962 28.032L24.974 28.03L25.001 27.9939L25.039 27.942Z" fill="white"/>
<path d="M21.535 13.656C21.5733 13.6562 21.6108 13.6663 21.6441 13.6852C21.6774 13.7041 21.7052 13.7312 21.725 13.764L24.17 17.91C24.1896 17.9426 24.1999 17.9799 24.1999 18.018C24.1999 18.056 24.1896 18.0933 24.17 18.126L21.726 22.282C21.7065 22.3149 21.6787 22.3423 21.6454 22.3612C21.6121 22.3802 21.5744 22.3901 21.536 22.39L16.634 22.404C16.5957 22.4039 16.5581 22.394 16.5246 22.3753C16.4912 22.3565 16.4631 22.3296 16.443 22.297L13.988 18.138C13.9688 18.1052 13.9586 18.0679 13.9586 18.03C13.9586 17.992 13.9688 17.9547 13.988 17.922L16.433 13.752C16.4526 13.7185 16.4806 13.6909 16.5144 13.6719C16.5481 13.6529 16.5863 13.6433 16.625 13.644L21.535 13.656Z" fill="#EA5CF7"/>
<path d="M3.49 26.737L3.437 26.565L3.414 26.479L3.388 26.391L3.341 26.218L3.255 25.87L3.198 25.607L3.18 25.521L3.147 25.344L3.1 25.083L3.048 24.732L3.037 24.643L3.025 24.556L3.006 24.381L2.998 24.292L2.988 24.205L2.974 24.029L2.956 23.767L2.951 23.679L2.947 23.592L2.943 23.505L2.939 23.331V23.243L2.936 23.156V22.981L2.937 22.895L2.94 22.808L2.941 22.721L2.944 22.635L2.948 22.548L2.951 22.462L2.955 22.375L2.96 22.289L2.967 22.204L2.972 22.117L2.979 22.032L2.987 21.948L2.995 21.861L3.003 21.776L3.033 21.521L3.043 21.437L3.055 21.353L3.068 21.267L3.081 21.184L3.093 21.1L3.108 21.017L3.122 20.932L3.136 20.85L3.152 20.766L3.168 20.684L3.202 20.518L3.219 20.437L3.256 20.272L3.316 20.028L3.336 19.948L3.358 19.866L3.381 19.786L3.402 19.706L3.426 19.626L3.449 19.546L3.473 19.466L3.521 19.309L3.547 19.231L3.574 19.152L3.6 19.074L3.627 18.997L3.654 18.918L3.711 18.766L3.74 18.688L3.8 18.537L3.83 18.46L3.86 18.385L3.89 18.31L3.923 18.236L3.955 18.16L3.987 18.087L4.007 18.043L3.983 17.993L3.92 17.845L3.888 17.77L3.765 17.468L3.735 17.391L3.707 17.316L3.68 17.238L3.65 17.161L3.622 17.084L3.596 17.005L3.57 16.929L3.543 16.85L3.518 16.772L3.492 16.692L3.444 16.533L3.421 16.455L3.397 16.375L3.353 16.215L3.29 15.971L3.27 15.889L3.251 15.809L3.232 15.727L3.214 15.644L3.195 15.563L3.179 15.48L3.163 15.397L3.146 15.314L3.13 15.231L3.116 15.148L3.1 15.064L3.074 14.896L3.049 14.729L3.037 14.644L3.025 14.559L3.015 14.475L3.005 14.389L2.995 14.305L2.987 14.22L2.98 14.134L2.971 14.049L2.958 13.877L2.953 13.791L2.947 13.705L2.938 13.532L2.935 13.447L2.927 13.099V12.924L2.93 12.751L2.933 12.663L2.934 12.577L2.938 12.49L2.941 12.402L2.947 12.314L2.952 12.225L2.957 12.139L2.963 12.052L2.972 11.963L2.978 11.876L2.986 11.788L2.996 11.7L3.004 11.612L3.014 11.525L3.026 11.437L3.037 11.348L3.049 11.26L3.063 11.173L3.075 11.085L3.088 10.998L3.104 10.911L3.119 10.822L3.134 10.735L3.152 10.648L3.168 10.559L3.186 10.472L3.264 10.123L3.285 10.036L3.306 9.94898L3.328 9.86098L3.351 9.77398L3.376 9.68798L3.399 9.60098L3.425 9.51398L3.449 9.42798L3.476 9.34098L3.502 9.25598L3.505 9.25198L3.461 9.29598L3.338 9.43198L3.278 9.49798L3.097 9.70298L3.037 9.77398L2.977 9.84398L2.921 9.91398L2.862 9.98598L2.805 10.056L2.691 10.201L2.635 10.271L2.579 10.345L2.526 10.419L2.47 10.493L2.416 10.567L2.257 10.793L2.103 11.021L2.053 11.099L2.004 11.176L1.954 11.255L1.905 11.332L1.763 11.57L1.625 11.81L1.535 11.97L1.448 12.135L1.408 12.217L1.365 12.3L1.324 12.382L1.283 12.466L1.243 12.549L1.202 12.633L1.164 12.716L1.126 12.802L1.051 12.971L1.013 13.056L0.978 13.142L0.944 13.227L0.908 13.313L0.875 13.4L0.841 13.486L0.808 13.572L0.682 13.923L0.652 14.011L0.624 14.1L0.596 14.188L0.568 14.278L0.54 14.365L0.514 14.455L0.489 14.544L0.463 14.635L0.439 14.723L0.414 14.813L0.392 14.904L0.369 14.995L0.326 15.175L0.306 15.267L0.266 15.449L0.247 15.541L0.23 15.631L0.211 15.723L0.195 15.814L0.18 15.908L0.163 15.998L0.149 16.091L0.135 16.184L0.123 16.275L0.11 16.368L0.077 16.645L0.057 16.831L0.049 16.923L0.04 17.017L0.034 17.111L0.027 17.203L0.021 17.297L0.016 17.389L0.012 17.483L0.008 17.576L0.006 17.67L0.003 17.762V17.856L0 17.95V18.135L0.004 18.323L0.008 18.509L0.012 18.602L0.018 18.695L0.022 18.789L0.028 18.882L0.035 18.976L0.042 19.068L0.05 19.161L0.058 19.254L0.068 19.347L0.078 19.439L0.088 19.533L0.1 19.625L0.113 19.717L0.125 19.81L0.138 19.901L0.151 19.995L0.168 20.087L0.182 20.179L0.232 20.454L0.288 20.728L0.309 20.818L0.329 20.91L0.351 21L0.372 21.09L0.442 21.36L0.492 21.54L0.519 21.63L0.545 21.719L0.601 21.897L0.63 21.985L0.658 22.074L0.688 22.161L0.718 22.249L0.781 22.424L0.813 22.512L0.913 22.772L0.949 22.857L0.983 22.942L1.02 23.027L1.057 23.114L1.093 23.199L1.248 23.535L1.289 23.619L1.331 23.701L1.371 23.784L1.414 23.867L1.456 23.949L1.499 24.029L1.587 24.193L1.677 24.353L1.724 24.435L1.77 24.514L1.817 24.594L1.962 24.828L2.012 24.906L2.062 24.983L2.112 25.061L2.266 25.291L2.318 25.365L2.372 25.441L2.425 25.515L2.479 25.59L2.534 25.663L2.589 25.737L2.645 25.809L2.7 25.882L2.757 25.954L2.814 26.026L2.871 26.096L2.988 26.239L3.046 26.309L3.106 26.378L3.286 26.583L3.349 26.651L3.409 26.718L3.472 26.784L3.519 26.835L3.516 26.824L3.49 26.737ZM18.893 35.573L18.805 35.553L18.538 35.484L18.45 35.46L18.361 35.435L18.273 35.411L18.186 35.386L18.098 35.359L18.012 35.332L17.924 35.305L17.838 35.278L17.751 35.248L17.666 35.22L17.408 35.129L17.325 35.098L17.155 35.034L16.987 34.968L16.905 34.934L16.739 34.864L16.574 34.792L16.329 34.68L16.249 34.644L16.169 34.604L15.849 34.444L15.772 34.404L15.693 34.362L15.46 34.234L15.307 34.146L15.005 33.964L14.931 33.918L14.858 33.871L14.784 33.824L14.711 33.777L14.638 33.727L14.565 33.68L14.494 33.63L14.423 33.581L14.28 33.481L14.21 33.429L14.14 33.379L14.07 33.327L14.002 33.276L13.865 33.171L13.73 33.063L13.664 33.011L13.598 32.955L13.533 32.901L13.466 32.846L13.273 32.679L13.146 32.565L13.084 32.509L13.021 32.45L12.959 32.394L12.899 32.335L12.838 32.278L12.718 32.16L12.659 32.1L12.6 32.04L12.542 31.98L12.485 31.92L12.427 31.86L12.37 31.799L12.315 31.738L12.258 31.677L12.203 31.615L12.149 31.553L12.094 31.491L11.986 31.366L11.934 31.302L11.88 31.239L11.83 31.175L11.777 31.111L11.727 31.049L11.677 30.984L11.627 30.919L11.578 30.855L11.539 30.803L11.501 30.799L11.419 30.789L11.336 30.779L11.255 30.769L11.008 30.736L10.845 30.71L10.762 30.697L10.516 30.652L10.433 30.637L10.352 30.62L10.187 30.586L10.023 30.549L9.94 30.529L9.859 30.511L9.694 30.47L9.613 30.448L9.529 30.426L9.448 30.404L9.366 30.38L9.285 30.358L9.203 30.333L9.122 30.307L9.038 30.282L8.958 30.256L8.875 30.23L8.795 30.203L8.631 30.147L8.47 30.088L8.388 30.058L8.308 30.028L8.228 29.998L8.147 29.965L8.066 29.933L7.905 29.867L7.745 29.799L7.665 29.764L7.586 29.728L7.506 29.691L7.427 29.656L7.269 29.58L7.191 29.54L7.111 29.502L7.034 29.462L6.955 29.422L6.8 29.341L6.568 29.213L6.338 29.08L6.186 28.99L5.96 28.848L5.736 28.703L5.589 28.603L5.514 28.551L5.369 28.448L5.225 28.343L5.151 28.29L5.009 28.182L4.939 28.126L4.867 28.07L4.797 28.014L4.657 27.901L4.588 27.841L4.451 27.725L4.248 27.547L4.114 27.425L3.917 27.238L3.787 27.11L3.723 27.046L3.595 26.916L3.533 26.85L3.517 26.835L3.542 26.91L3.598 27.081L3.658 27.254L3.718 27.424L3.752 27.508L3.783 27.594L3.818 27.679L3.851 27.762L3.886 27.847L3.956 28.015L3.993 28.098L4.03 28.183L4.067 28.266L4.105 28.348L4.144 28.432L4.184 28.515L4.224 28.596L4.264 28.679L4.347 28.843L4.433 29.005L4.477 29.086L4.521 29.166L4.567 29.246L4.657 29.408L4.705 29.488L4.753 29.566L4.8 29.646L4.897 29.802L5.048 30.035L5.099 30.112L5.152 30.189L5.206 30.265L5.257 30.341L5.312 30.416L5.367 30.493L5.421 30.567L5.477 30.643L5.532 30.716L5.646 30.864L5.703 30.936L5.822 31.083L5.88 31.154L5.94 31.226L6.061 31.368L6.124 31.438L6.185 31.508L6.248 31.578L6.311 31.647L6.439 31.784L6.503 31.851L6.569 31.92L6.634 31.987L6.7 32.053L6.768 32.118L6.835 32.185L6.901 32.25L7.039 32.378L7.109 32.443L7.319 32.631L7.389 32.693L7.46 32.754L7.606 32.876L7.678 32.934L7.751 32.994L7.825 33.053L7.899 33.113L7.974 33.17L8.2 33.34L8.277 33.396L8.354 33.451L8.431 33.505L8.509 33.56L8.586 33.613L8.744 33.719L8.982 33.873L9.062 33.923L9.143 33.972L9.224 34.022L9.306 34.069L9.388 34.119L9.551 34.212L9.718 34.305L9.968 34.438L10.137 34.524L10.223 34.566L10.308 34.607L10.565 34.727L10.653 34.767L10.826 34.844L10.913 34.88L11.001 34.916L11.089 34.953L11.177 34.989L11.265 35.022L11.354 35.057L11.442 35.089L11.532 35.124L11.62 35.156L11.8 35.217L11.89 35.249L11.98 35.278L12.07 35.307L12.16 35.335L12.25 35.362L12.342 35.39L12.523 35.442L12.616 35.467L12.8 35.516L12.89 35.538L12.983 35.561L13.076 35.583L13.167 35.605L13.538 35.683L13.63 35.7L13.724 35.718L13.817 35.734L13.909 35.751L14.003 35.766L14.096 35.781L14.189 35.795L14.283 35.808L14.563 35.844L14.658 35.855L14.752 35.864L14.844 35.874L14.94 35.884L15.032 35.891L15.221 35.905L15.314 35.912L15.502 35.922L15.595 35.924L15.689 35.929L15.783 35.932L15.972 35.935L16.065 35.937L16.346 35.935L16.439 35.933L16.533 35.931L16.72 35.925L16.813 35.919L16.907 35.915L16.999 35.909L17.093 35.903L17.185 35.895L17.279 35.888L17.37 35.881L17.463 35.871L17.555 35.861L17.649 35.851L17.741 35.841L17.832 35.828L17.925 35.817L18.015 35.805L18.2 35.778L18.474 35.731L18.564 35.715L18.654 35.699L18.746 35.681L18.836 35.662L18.926 35.644L19.016 35.624L19.066 35.612L18.983 35.593L18.893 35.573ZM33.299 29.662L33.442 29.424L33.532 29.265L33.666 29.024L33.71 28.941L33.752 28.861L33.876 28.615L33.956 28.45L34.033 28.283L34.071 28.201L34.108 28.116L34.145 28.034L34.181 27.949L34.216 27.865L34.25 27.781L34.285 27.697L34.318 27.612L34.35 27.527L34.383 27.442L34.414 27.356L34.445 27.272L34.475 27.186L34.505 27.101L34.562 26.929L34.589 26.842L34.599 26.812L34.479 26.936L34.416 27.001L34.351 27.067L34.287 27.13L34.157 27.257L34.092 27.319L34.025 27.382L33.959 27.443L33.825 27.564L33.757 27.624L33.69 27.685L33.621 27.743L33.553 27.803L33.415 27.918L33.274 28.031L33.204 28.087L33.133 28.142L32.991 28.252L32.918 28.305L32.847 28.358L32.775 28.411L32.555 28.566L32.481 28.616L32.409 28.666L32.334 28.716L32.26 28.766L32.185 28.814L32.11 28.86L32.035 28.908L31.96 28.954L31.884 29.002L31.808 29.046L31.732 29.092L31.654 29.136L31.578 29.18L31.423 29.266L31.27 29.35L31.114 29.431L31.034 29.471L30.956 29.511L30.877 29.551L30.799 29.589L30.721 29.626L30.641 29.664L30.562 29.7L30.482 29.735L30.404 29.771L30.324 29.806L30.244 29.84L30.163 29.873L30.083 29.908L30.003 29.939L29.921 29.971L29.841 30.003L29.76 30.033L29.68 30.064L29.598 30.093L29.518 30.123L29.436 30.151L29.192 30.234L29.112 30.26L28.866 30.335L28.702 30.381L28.621 30.405L28.539 30.428L28.456 30.449L28.374 30.471L28.291 30.491L28.209 30.511L28.129 30.531L27.881 30.586L27.718 30.62L27.634 30.636L27.552 30.652L27.472 30.666L27.388 30.681L27.224 30.708L27.143 30.72L27.06 30.734L26.978 30.744L26.898 30.756L26.814 30.766L26.651 30.786L26.585 30.793L26.571 30.811L26.522 30.877L26.472 30.941L26.422 31.006L26.373 31.07L26.27 31.198L26.219 31.261L26.059 31.451L26.006 31.511L25.951 31.574L25.895 31.636L25.841 31.698L25.785 31.76L25.727 31.82L25.671 31.88L25.556 32.002L25.439 32.122L25.259 32.299L25.199 32.356L25.076 32.473L25.013 32.53L24.951 32.586L24.888 32.644L24.823 32.7L24.76 32.755L24.695 32.812L24.629 32.867L24.564 32.922L24.498 32.975L24.432 33.031L24.366 33.084L24.298 33.137L24.229 33.191L24.162 33.244L23.954 33.399L23.886 33.449L23.815 33.5L23.743 33.55L23.673 33.601L23.601 33.65L23.528 33.699L23.456 33.748L23.384 33.795L23.088 33.983L23.013 34.03L22.937 34.074L22.861 34.12L22.709 34.208L22.477 34.337L22.398 34.379L22.32 34.419L22.242 34.462L22.004 34.582L21.923 34.622L21.843 34.659L21.763 34.698L21.518 34.808L21.353 34.881L21.27 34.915L21.186 34.95L21.019 35.018L20.935 35.049L20.851 35.082L20.765 35.113L20.681 35.145L20.596 35.175L20.51 35.205L20.424 35.234L20.337 35.264L20.251 35.292L20.164 35.32L20.078 35.346L19.991 35.374L19.728 35.45L19.639 35.473L19.552 35.497L19.462 35.52L19.374 35.543L19.284 35.565L19.196 35.586L19.106 35.606L19.066 35.616L19.073 35.618L19.163 35.637L19.253 35.657L19.343 35.674L19.434 35.693L19.707 35.742L19.798 35.757L19.888 35.771L19.98 35.786L20.071 35.799L20.164 35.812L20.531 35.858L20.625 35.866L20.717 35.876L20.81 35.884L20.995 35.899L21.088 35.906L21.182 35.911L21.275 35.917L21.46 35.925L21.555 35.929L21.649 35.932H21.742L21.836 35.933L22.022 35.934L22.209 35.932L22.399 35.928L22.492 35.925L22.68 35.915L22.773 35.91L22.868 35.905L23.055 35.891L23.149 35.883L23.242 35.874L23.336 35.866L23.524 35.846L23.616 35.834L23.803 35.809L23.897 35.795L23.991 35.782L24.085 35.768L24.178 35.752L24.271 35.737L24.363 35.72L24.458 35.703L24.55 35.686L24.643 35.667L24.735 35.647L24.827 35.627L24.921 35.607L25.012 35.586L25.105 35.566L25.289 35.519L25.472 35.471L25.564 35.446L25.654 35.42L25.745 35.395L25.927 35.34L26.019 35.312L26.108 35.283L26.198 35.253L26.288 35.223L26.378 35.193L26.468 35.162L26.556 35.129L26.646 35.096L26.735 35.063L26.824 35.029L27 34.959L27.088 34.923L27.175 34.888L27.349 34.813L27.696 34.656L27.781 34.616L27.951 34.531L28.036 34.491L28.12 34.446L28.205 34.403L28.288 34.358L28.372 34.313L28.538 34.223L28.621 34.175L28.703 34.129L28.783 34.08L28.866 34.032L28.948 33.982L29.027 33.933L29.109 33.883L29.189 33.833L29.425 33.677L29.505 33.624L29.583 33.571L29.66 33.517L29.738 33.463L29.814 33.407L29.891 33.351L29.967 33.295L30.043 33.239L30.117 33.182L30.192 33.124L30.266 33.065L30.341 33.008L30.413 32.948L30.487 32.888L30.559 32.828L30.632 32.768L30.704 32.706L30.774 32.643L30.844 32.583L30.916 32.519L30.986 32.456L31.055 32.393L31.122 32.328L31.192 32.264L31.259 32.199L31.327 32.133L31.394 32.067L31.459 32L31.525 31.934L31.655 31.8L31.72 31.731L31.783 31.661L31.847 31.593L31.91 31.523L31.97 31.453L32.033 31.383L32.093 31.313L32.156 31.241L32.214 31.17L32.274 31.097L32.334 31.026L32.392 30.953L32.449 30.88L32.565 30.733L32.621 30.658L32.675 30.584L32.731 30.509L32.785 30.433L32.839 30.358L32.946 30.206L33.049 30.053L33.2 29.82L33.299 29.662ZM34.657 9.46198L34.682 9.54898L34.753 9.80898L34.798 9.98198L34.818 10.071L34.84 10.158L34.86 10.244L34.918 10.507L34.951 10.683L34.998 10.945L35.012 11.033L35.026 11.12L35.039 11.208L35.052 11.297L35.064 11.384L35.074 11.472L35.084 11.558L35.096 11.647L35.104 11.736L35.112 11.822L35.122 11.91L35.129 11.998L35.135 12.085L35.142 12.173L35.145 12.261L35.151 12.348L35.156 12.437L35.161 12.523V12.611L35.168 12.871V13.133L35.167 13.219L35.164 13.307L35.163 13.394L35.16 13.48L35.156 13.567L35.15 13.653L35.146 13.738L35.136 13.91L35.129 13.996L35.121 14.082L35.113 14.167L35.104 14.253L35.096 14.338L35.065 14.593L35.054 14.676L35.041 14.761L35.029 14.846L35.003 15.012L34.989 15.097L34.974 15.18L34.959 15.264L34.944 15.346L34.927 15.429L34.909 15.512L34.893 15.594L34.856 15.758L34.777 16.084L34.756 16.164L34.733 16.244L34.713 16.324L34.689 16.406L34.665 16.484L34.642 16.564L34.618 16.643L34.592 16.723L34.568 16.801L34.541 16.878L34.516 16.956L34.488 17.035L34.461 17.112L34.434 17.191L34.377 17.343L34.347 17.419L34.318 17.497L34.288 17.572L34.258 17.647L34.226 17.723L34.164 17.872L34.099 18.02L34.1 18.026L34.133 18.101L34.167 18.175L34.199 18.249L34.259 18.399L34.291 18.474L34.321 18.55L34.351 18.626L34.381 18.703L34.409 18.78L34.437 18.856L34.465 18.933L34.493 19.011L34.519 19.089L34.546 19.167L34.573 19.245L34.597 19.325L34.622 19.403L34.671 19.561L34.694 19.641L34.76 19.881L34.824 20.125L34.881 20.37L34.916 20.534L34.933 20.616L34.949 20.7L34.965 20.782L34.981 20.866L34.995 20.949L35.01 21.034L35.024 21.116L35.036 21.201L35.049 21.285L35.061 21.369L35.084 21.539L35.092 21.623L35.104 21.708L35.113 21.793L35.12 21.878L35.128 21.965L35.136 22.049L35.142 22.135L35.148 22.222L35.155 22.308L35.168 22.567L35.171 22.652L35.177 22.912V23.174L35.176 23.26L35.173 23.348L35.172 23.435L35.169 23.523L35.162 23.697L35.157 23.785L35.138 24.048L35.131 24.135L35.124 24.225L35.105 24.4L35.085 24.575L35.074 24.662L35.063 24.752L35.049 24.838L35.037 24.926L35.024 25.013L35.009 25.101L34.993 25.189L34.98 25.276L34.963 25.365L34.929 25.538L34.893 25.715L34.873 25.802L34.853 25.888L34.833 25.975L34.811 26.063L34.79 26.15L34.72 26.41L34.695 26.498L34.67 26.584L34.643 26.671L34.619 26.757L34.599 26.812L34.669 26.739L34.73 26.672L34.791 26.605L34.853 26.538L34.973 26.4L35.033 26.331L35.092 26.261L35.151 26.191L35.208 26.121L35.266 26.049L35.322 25.978L35.381 25.906L35.436 25.833L35.493 25.761L35.548 25.689L35.656 25.54L35.711 25.465L35.869 25.24L35.971 25.088L36.071 24.933L36.121 24.854L36.171 24.778L36.219 24.698L36.267 24.62L36.315 24.54L36.499 24.22L36.543 24.14L36.63 23.976L36.673 23.895L36.715 23.812L36.757 23.73L36.799 23.647L36.839 23.564L36.879 23.479L36.918 23.397L36.958 23.312L37.032 23.143L37.07 23.058L37.141 22.888L37.21 22.715L37.245 22.628L37.31 22.454L37.34 22.368L37.374 22.281L37.434 22.104L37.464 22.016L37.47 22L37.498 21.912L37.526 21.822L37.554 21.734L37.58 21.645L37.605 21.555L37.631 21.467L37.656 21.377L37.726 21.105L37.748 21.015L37.77 20.924L37.791 20.834L37.831 20.652L37.868 20.469L37.886 20.379L37.903 20.286L37.919 20.194L37.934 20.101L37.95 20.01L37.963 19.918L37.977 19.826L37.989 19.733L38.002 19.641L38.014 19.547L38.024 19.455L38.034 19.363L38.053 19.177L38.06 19.084L38.068 18.99L38.075 18.899L38.087 18.712L38.091 18.618L38.098 18.432L38.101 18.338L38.102 18.245L38.104 18.152V17.872L38.102 17.779L38.1 17.685L38.098 17.592L38.094 17.499L38.088 17.406L38.085 17.312L38.066 17.033L38.05 16.848L38.02 16.568L38.01 16.476L37.998 16.383L37.985 16.292L37.972 16.198L37.959 16.107L37.945 16.014L37.928 15.923L37.914 15.83L37.898 15.739L37.88 15.646L37.862 15.556L37.825 15.373L37.805 15.281L37.741 15.009L37.718 14.919L37.696 14.83L37.672 14.74L37.648 14.649L37.571 14.38L37.544 14.292L37.488 14.114L37.46 14.026L37.4 13.849L37.337 13.675L37.304 13.587L37.272 13.501L37.239 13.415L37.205 13.327L37.17 13.242L37.063 12.984L37.026 12.901L36.95 12.73L36.911 12.645L36.871 12.563L36.831 12.479L36.791 12.396L36.751 12.313L36.666 12.148L36.623 12.065L36.58 11.985L36.536 11.903L36.446 11.743L36.4 11.661L36.354 11.582L36.259 11.422L36.163 11.266L36.113 11.189L36.063 11.11L36.013 11.034L35.963 10.957L35.913 10.88L35.86 10.805L35.807 10.728L35.755 10.653L35.7 10.578L35.647 10.505L35.593 10.43L35.427 10.21L35.315 10.067L35.257 9.99498L35.199 9.92298L35.141 9.85498L35.082 9.78298L35.022 9.71298L34.782 9.43998L34.721 9.37298L34.657 9.30598L34.597 9.23898L34.585 9.22898L34.605 9.28998L34.657 9.46198ZM19.352 0.521977L19.529 0.567977L19.793 0.639977L19.881 0.666977L20.055 0.716977L20.143 0.745977L20.229 0.771977L20.316 0.801977L20.401 0.829977L20.488 0.858977L20.659 0.918977L20.744 0.948977L20.829 0.981977L20.913 1.01498L20.998 1.04698L21.08 1.08098L21.164 1.11398L21.33 1.18398L21.577 1.29098L21.822 1.40398L21.901 1.44098L21.981 1.48098L22.221 1.60098L22.298 1.64098L22.456 1.72498L22.533 1.76698L22.61 1.81098L22.688 1.85398L22.841 1.94198L22.991 2.03198L23.288 2.21798L23.435 2.31298L23.652 2.45998L23.723 2.50998L23.793 2.55998L23.865 2.60998L24.003 2.71298L24.073 2.76598L24.142 2.81598L24.21 2.86898L24.345 2.97698L24.411 3.02898L24.479 3.08298L24.544 3.13698L24.61 3.19298L24.868 3.41498L24.931 3.47198L24.993 3.52898L25.056 3.58698L25.116 3.64498L25.179 3.70298L25.241 3.76098L25.301 3.81998L25.36 3.87798L25.42 3.93698L25.478 3.99698L25.538 4.05698L25.594 4.11698L25.652 4.17698L25.71 4.23698L25.766 4.29998L25.822 4.35998L25.877 4.42098L25.933 4.48398L25.988 4.54498L26.042 4.60798L26.094 4.66998L26.147 4.73398L26.2 4.79598L26.304 4.92298L26.405 5.05298L26.505 5.17998L26.555 5.24598L26.565 5.25798L26.636 5.26698L26.8 5.28498L26.882 5.29598L26.963 5.30598L27.045 5.31798L27.128 5.33098L27.21 5.34398L27.292 5.35798L27.374 5.36998L27.62 5.41498L27.867 5.46598L27.949 5.48198L28.032 5.50198L28.113 5.51998L28.197 5.53998L28.277 5.55998L28.524 5.62198L28.607 5.64498L28.688 5.66698L29.016 5.76398L29.096 5.78998L29.179 5.81598L29.26 5.84198L29.505 5.92598L29.666 5.98498L29.746 6.01498L29.828 6.04498L29.908 6.07598L29.988 6.10898L30.07 6.14098L30.15 6.17498L30.23 6.20798L30.389 6.27698L30.469 6.31198L30.549 6.34798L30.629 6.38498L30.708 6.42198L30.786 6.45998L30.865 6.49798L31.1 6.61598L31.179 6.65698L31.257 6.69698L31.567 6.86698L31.72 6.95498L31.947 7.09098L32.174 7.23198L32.323 7.32898L32.544 7.47898L32.618 7.53098L32.764 7.63398L32.836 7.68598L32.907 7.73998L32.98 7.79398L33.052 7.84798L33.122 7.90298L33.193 7.95698L33.263 8.01498L33.334 8.06998L33.473 8.18398L33.543 8.24398L33.68 8.35898L33.748 8.41898L33.814 8.47998L33.882 8.53998L33.949 8.59998L34.015 8.66298L34.082 8.72298L34.148 8.78598L34.278 8.91398L34.342 8.97698L34.47 9.10698L34.532 9.17298L34.585 9.22698L34.577 9.20198L34.521 9.03198L34.491 8.94498L34.463 8.85898L34.433 8.77498L34.369 8.60298L34.339 8.51798L34.306 8.43398L34.271 8.34898L34.236 8.26498L34.202 8.17998L34.132 8.01198L34.02 7.76198L33.981 7.67798L33.943 7.59598L33.903 7.51298L33.863 7.43198L33.737 7.18498L33.651 7.02398L33.607 6.94198L33.472 6.70198L33.426 6.62198L33.332 6.46198L33.283 6.38498L33.233 6.30498L33.185 6.22798L33.033 5.99498L32.982 5.91798L32.929 5.84098L32.769 5.61398L32.714 5.53898L32.658 5.46398L32.603 5.38898L32.49 5.24098L32.432 5.16898L32.376 5.09498L32.316 5.02298L32.256 4.94898L32.198 4.87798L32.138 4.80798L32.078 4.73498L32.015 4.66498L31.954 4.59498L31.892 4.52498L31.829 4.45498L31.637 4.24898L31.573 4.18098L31.507 4.11598L31.441 4.04698L31.375 3.98098L31.239 3.85098L31.173 3.78598L31.105 3.71998L31.036 3.65598L30.966 3.59398L30.896 3.52998L30.826 3.46798L30.756 3.40598L30.612 3.28198L30.54 3.22198L30.467 3.16198L30.32 3.04198L30.248 2.98398L30.173 2.92598L30.098 2.86998L30.022 2.80998L29.947 2.75398L29.718 2.58898L29.64 2.53398L29.562 2.47998L29.327 2.32198L29.168 2.21898L28.926 2.06898L28.765 1.97198L28.599 1.87598L28.351 1.73898L28.101 1.60598L28.016 1.56298L27.93 1.52098L27.76 1.43798L27.673 1.39798L27.501 1.31798L27.328 1.23998L27.153 1.16598L27.066 1.13098L26.89 1.05898L26.8 1.02498L26.625 0.957977L26.535 0.923977L26.445 0.893977L26.357 0.861977L26.267 0.831977L26.177 0.801977L26.087 0.771977L25.995 0.743977L25.905 0.713977L25.815 0.686977L25.723 0.660977L25.541 0.608977L25.358 0.559977L25.173 0.513977L25.083 0.491977L24.989 0.469977L24.899 0.447977L24.619 0.389977L24.526 0.371977L24.435 0.352977L24.342 0.336977L24.247 0.320977L24.061 0.288977L23.969 0.274977L23.875 0.260977L23.595 0.223977L23.406 0.202977L23.313 0.192977L23.033 0.166977L22.938 0.159977L22.845 0.153977L22.469 0.133977L22.282 0.127977L22.093 0.125977H22L21.625 0.128977L21.439 0.134977L21.345 0.139977L21.252 0.144977L21.158 0.148977L21.065 0.154977L20.973 0.161977L20.879 0.168977L20.787 0.176977L20.601 0.194977L20.51 0.204977L20.416 0.214977L20.324 0.224977L20.232 0.237977L20.142 0.249977L20.048 0.262977L19.958 0.276977L19.866 0.289977L19.776 0.304977L19.593 0.335977L19.502 0.353977L19.412 0.369977L19.23 0.405977L19.14 0.425977L19.05 0.444977L19.037 0.447977L19.083 0.457977L19.352 0.521977Z" fill="white"/>
<path d="M3.59006 9.16593L3.65406 9.09993L3.78106 8.97093L3.84606 8.90693L3.91006 8.84493L3.97706 8.78193L4.04206 8.71793L4.10906 8.65793L4.17406 8.59593L4.30906 8.47493L4.37706 8.41493L4.44406 8.35593L4.51306 8.29593L4.58206 8.23893L4.65206 8.17893L4.72006 8.12393L4.86006 8.00993L4.93106 7.95593L5.00106 7.89893L5.07306 7.84393L5.21706 7.73693L5.28906 7.68493L5.36106 7.63093L5.50706 7.52793L5.58106 7.47793L5.65306 7.42793L5.72906 7.37793L5.80306 7.32793L6.02706 7.18293L6.25306 7.04493L6.40706 6.95493L6.55906 6.86593L6.71406 6.77993L6.79006 6.73893L6.86906 6.69593L6.94706 6.65593L7.02506 6.61593L7.10306 6.57593L7.33906 6.45993L7.41906 6.42293L7.57706 6.34993L7.65706 6.31393L7.73506 6.27893L7.81506 6.24393L7.89706 6.21093L7.97706 6.17593L8.05706 6.14393L8.13706 6.11093L8.21706 6.07893L8.29906 6.04893L8.62206 5.92893L8.70206 5.90193L8.78506 5.87293L8.86506 5.84693L8.94706 5.81993L9.02906 5.79293L9.19306 5.74293L9.27306 5.71893L9.43806 5.67293L9.51906 5.64893L9.60206 5.62893L9.68406 5.60493L9.84806 5.56493L10.0941 5.50593L10.2591 5.47193L10.3391 5.45393L10.4231 5.43693L10.5061 5.42193L10.5871 5.40593L10.6701 5.39293L10.7511 5.37693L10.9161 5.34993L10.9971 5.33793L11.0801 5.32593L11.1611 5.31393L11.2441 5.30393L11.4081 5.28393L11.4881 5.27393L11.5211 5.27093L11.5641 5.21293L11.6141 5.14993L11.7141 5.01993L11.7641 4.95593L11.8151 4.89193L11.8681 4.82993L11.9191 4.76593L12.0251 4.63893L12.0801 4.57693L12.1341 4.51593L12.1881 4.45293L12.4121 4.20693L12.4681 4.14693L12.5281 4.08693L12.5841 4.02693L12.6441 3.96693L12.8841 3.72993L12.9441 3.67393L13.0681 3.55693L13.1311 3.49993L13.1931 3.44393L13.2571 3.38693L13.3211 3.33193L13.3851 3.27493L13.4511 3.21993L13.5161 3.16493L13.5821 3.10993L13.6471 3.05493L13.7131 3.00193L13.7821 2.94793L13.8481 2.89493L13.9181 2.84293L13.9851 2.78993L14.1931 2.63493L14.3341 2.53293L14.4061 2.48393L14.4771 2.43393L14.5491 2.38593L14.6211 2.33793L14.6931 2.28793L14.7671 2.24093L14.8401 2.19293L14.9141 2.14593L14.9891 2.09993L15.0631 2.05293L15.1391 2.00893L15.2151 1.96293L15.4431 1.83093L15.5971 1.74493L15.7551 1.65993L15.8331 1.61993L15.9121 1.57693L16.0701 1.49693L16.1511 1.45793L16.2311 1.41993L16.3111 1.38093L16.4741 1.30693L16.5561 1.26893L16.6381 1.23493L16.8041 1.16293L16.8871 1.12893L16.9691 1.09393L17.1391 1.02793L17.2211 0.99393L17.3071 0.96393L17.3901 0.93193L17.4761 0.90093L17.5621 0.87093L17.6471 0.84093L17.7331 0.81093L17.8191 0.78293L17.9931 0.72793L18.0801 0.70193L18.1681 0.67493L18.3441 0.62393L18.4301 0.59993L18.5181 0.57693L18.6071 0.55193L18.8741 0.48593L18.9631 0.46493L19.0391 0.44793L18.9961 0.43793L18.9061 0.41893L18.8161 0.40093L18.7241 0.38293L18.5441 0.34693L18.4531 0.33193L18.3631 0.31593L18.1791 0.28593L18.0881 0.27293L17.9951 0.25993L17.9051 0.24693L17.6281 0.21293L17.5351 0.20293L17.4451 0.19293L17.3501 0.18493L17.2581 0.17693L17.1651 0.16893L17.0721 0.16093L16.9781 0.15593L16.8861 0.15093L16.7921 0.14593L16.6071 0.13793L16.5121 0.13393H16.4191L16.3281 0.12993L16.2341 0.12793H16.1411L15.8591 0.13093L15.7651 0.13293L15.6721 0.13593L15.5781 0.13993L15.4841 0.14393L15.3891 0.14993L15.2971 0.15493L15.2021 0.16093L15.0151 0.17393L14.9221 0.18393L14.8271 0.19093L14.5461 0.22193L14.4521 0.23493L14.3591 0.24493L14.2641 0.25893L14.1721 0.27293L14.0781 0.28693L13.8931 0.31693L13.7061 0.34893L13.4261 0.40393L13.3351 0.42393L13.0571 0.48493L12.9661 0.50693L12.7821 0.55293L12.6891 0.57693L12.5061 0.62693L12.4161 0.65293L12.3241 0.67993L12.2341 0.70593L12.1441 0.73593L12.0531 0.76293L11.8731 0.82193L11.7831 0.85193L11.6931 0.88193L11.6051 0.91493L11.5151 0.94593L11.4251 0.98093L11.3371 1.01293L11.2481 1.04693L11.1601 1.08193L11.0711 1.11793L10.9851 1.15393L10.8971 1.18993L10.8091 1.22793L10.7231 1.26593L10.6371 1.30493L10.5481 1.34293L10.2931 1.46393L10.2071 1.50593L10.0371 1.59093L9.95406 1.63393L9.70106 1.76793L9.61806 1.81393L9.53706 1.85993L9.45306 1.90693L9.37106 1.95493L9.29106 2.00293L9.20806 2.05093L9.12706 2.09893L8.96706 2.20093L8.88706 2.25093L8.80806 2.30193L8.72806 2.35493L8.64906 2.40693L8.57106 2.46093L8.49406 2.51393L8.41506 2.56693L8.33806 2.62193L8.26206 2.67893L8.18506 2.73393L8.11006 2.78993L7.81006 3.01993L7.73806 3.07993L7.66406 3.13993L7.59106 3.19993L7.51906 3.25993L7.44606 3.31993L7.37506 3.38193L7.30506 3.44293L7.23506 3.50593L7.16506 3.56993L7.09506 3.63293L7.02506 3.69593L6.95706 3.76193L6.88806 3.82493L6.82006 3.89093L6.75406 3.95593L6.62106 4.08893L6.49006 4.22393L6.29806 4.42893L6.23606 4.49793L6.17206 4.56793L6.05006 4.70793L5.98806 4.77993L5.92806 4.84993L5.86806 4.92193L5.80906 4.99393L5.75006 5.06693L5.69206 5.13893L5.63406 5.21293L5.57806 5.28693L5.52106 5.35993L5.46406 5.43393L5.35406 5.58493L5.30106 5.65993L5.14106 5.88893L5.08906 5.96493L5.03906 6.04293L4.98606 6.11993L4.93606 6.19893L4.88706 6.27593L4.78906 6.43193L4.69406 6.59193L4.55606 6.83093L4.46606 6.99193L4.38106 7.15393L4.33806 7.23693L4.21406 7.48193L4.17406 7.56493L4.13506 7.64793L4.09606 7.72893L4.05906 7.81393L4.02106 7.89693L3.94806 8.06293L3.91206 8.14793L3.84206 8.31593L3.77606 8.48493L3.71206 8.65593L3.68106 8.73993L3.65106 8.82593L3.62106 8.91093L3.59006 8.99993L3.56006 9.08493L3.53406 9.17093L3.50806 9.25293L3.52806 9.23193L3.59006 9.16593Z" fill="white"/>
</svg>
