<svg width="57" height="57" viewBox="0 0 57 57" fill="none" xmlns="http://www.w3.org/2000/svg">
<path d="M20.0697 45.7984V56.4999H24.3021V41.8144L20.0837 45.7808L20.0697 45.7984Z" fill="url(#paint0_linear_4021_86477)"/>
<path d="M0.781738 23.6583V40.0024L4.92093 43.8987L5.01416 43.9865V19.6743L0.795722 23.6451L0.781738 23.6583Z" fill="url(#paint1_linear_4021_86477)"/>
<path d="M17.3756 27.0457H21.7013L25.8404 23.1538L25.9337 23.066H13.1432L17.3616 27.0325L17.3756 27.0457Z" fill="url(#paint2_linear_4021_86477)"/>
<path d="M20.1863 4.86591L16.0472 8.76217L15.954 8.84552H41.6095L37.3956 4.87906L37.377 4.86591H20.1863Z" fill="url(#paint3_linear_4021_86477)"/>
<path d="M30.9732 41.7354H26.5963V56.5H30.9732V41.7354Z" fill="url(#paint4_linear_4021_86477)"/>
<path d="M21.1702 0.5H15.1852L11.321 4.13738L11.307 4.15055V9.78434L21.077 0.587754L21.1702 0.5Z" fill="url(#paint5_linear_4021_86477)"/>
<path d="M10.645 10.4077H4.6599L0.795722 14.0406L0.781738 14.0583V19.692L10.5517 10.4954L10.645 10.4077Z" fill="url(#paint6_linear_4021_86477)"/>
<path d="M52.5496 19.6743V43.9865L56.7679 40.02L56.7819 40.0024V23.6583L52.6428 19.7621L52.5496 19.6743Z" fill="url(#paint7_linear_4021_86477)"/>
<path d="M35.848 27.0325L35.862 27.0457H40.1876L44.3269 23.1538L44.42 23.066H31.6295L35.848 27.0325Z" fill="url(#paint8_linear_4021_86477)"/>
<path d="M30.9732 23.066H26.5963V32.8023H30.9732V23.066Z" fill="url(#paint9_linear_4021_86477)"/>
<path d="M44.1684 11.2584H13.3948L7.32124 16.9712L7.30725 16.9887V29.2742L11.4464 33.1706L11.5397 33.2582V18.6385L15.1475 15.2424H42.4159L46.0236 18.6385V33.2582L50.2421 29.2918L50.2561 29.2742V16.9887L44.187 11.2716L44.1684 11.2584Z" fill="url(#paint10_linear_4021_86477)"/>
<path d="M7.30725 37.5101V46.145L11.4464 50.0413L11.5397 50.1291V33.5305L7.32124 37.497L7.30725 37.5101Z" fill="url(#paint11_linear_4021_86477)"/>
<path d="M46.0234 33.5305V50.1291L50.2419 46.1627L50.2559 46.145V37.5101L46.1167 33.6138L46.0234 33.5305Z" fill="url(#paint12_linear_4021_86477)"/>
<path d="M35.21 34.7463H22.3542L13.703 42.8899L13.689 42.9031V52.1522L17.8282 56.0485L17.9213 56.1363V44.5528L24.1068 38.7304H33.4573L39.6429 44.5528V56.1363L43.8612 52.1698L43.8752 52.1522V42.9031L35.2286 34.7595L35.21 34.7463Z" fill="url(#paint13_linear_4021_86477)"/>
<path d="M46.2565 9.78434V4.15055L42.397 0.513163L42.383 0.5H36.3979L46.1633 9.69658L46.2565 9.78434Z" fill="url(#paint14_linear_4021_86477)"/>
<path d="M52.9219 10.4208L52.9032 10.4077H46.9182L56.6883 19.6042L56.7814 19.692V14.0583L52.9219 10.4208Z" fill="url(#paint15_linear_4021_86477)"/>
<defs>
<linearGradient id="paint0_linear_4021_86477" x1="22.186" y1="65.2576" x2="22.186" y2="-9.38991" gradientUnits="userSpaceOnUse">
<stop stop-color="#4FCE0D"/>
<stop offset="1" stop-color="#4FEA0D"/>
</linearGradient>
<linearGradient id="paint1_linear_4021_86477" x1="2.89795" y1="65.2579" x2="2.89795" y2="-9.38972" gradientUnits="userSpaceOnUse">
<stop stop-color="#4FCE0D"/>
<stop offset="1" stop-color="#4FCE0D"/>
</linearGradient>
<linearGradient id="paint2_linear_4021_86477" x1="527.832" y1="610.419" x2="527.832" y2="-66.6347" gradientUnits="userSpaceOnUse">
<stop stop-color="#4FCE0D"/>
<stop offset="1" stop-color="#4FCE0D"/>
</linearGradient>
<linearGradient id="paint3_linear_4021_86477" x1="1557.09" y1="592.219" x2="1557.09" y2="-84.8349" gradientUnits="userSpaceOnUse">
<stop stop-color="#4FCE0D"/>
<stop offset="1" stop-color="#4FCE0D"/>
</linearGradient>
<linearGradient id="paint4_linear_4021_86477" x1="289.517" y1="2220.83" x2="289.517" y2="-291.058" gradientUnits="userSpaceOnUse">
<stop stop-color="#4FCE0D"/>
<stop offset="1" stop-color="#4FCE0D"/>
</linearGradient>
<linearGradient id="paint5_linear_4021_86477" x1="338.371" y1="1370.77" x2="338.371" y2="-208.769" gradientUnits="userSpaceOnUse">
<stop stop-color="#4FCE0D"/>
<stop offset="1" stop-color="#4FCE0D"/>
</linearGradient>
<linearGradient id="paint6_linear_4021_86477" x1="105.134" y1="1380.69" x2="105.134" y2="-198.862" gradientUnits="userSpaceOnUse">
<stop stop-color="#4FCE0D"/>
<stop offset="1" stop-color="#4FCE0D"/>
</linearGradient>
<linearGradient id="paint7_linear_4021_86477" x1="541.819" y1="3607.91" x2="541.819" y2="-528.322" gradientUnits="userSpaceOnUse">
<stop stop-color="#4FCE0D"/>
<stop offset="1" stop-color="#4FCE0D"/>
</linearGradient>
<linearGradient id="paint8_linear_4021_86477" x1="1053.59" y1="610.419" x2="1053.59" y2="-66.6347" gradientUnits="userSpaceOnUse">
<stop stop-color="#4FCE0D"/>
<stop offset="1" stop-color="#4FCE0D"/>
</linearGradient>
<linearGradient id="paint9_linear_4021_86477" x1="289.517" y1="1460.04" x2="289.517" y2="-196.389" gradientUnits="userSpaceOnUse">
<stop stop-color="#4FCE0D"/>
<stop offset="1" stop-color="#4FCE0D"/>
</linearGradient>
<linearGradient id="paint10_linear_4021_86477" x1="2587.24" y1="3258.22" x2="2587.24" y2="-484.617" gradientUnits="userSpaceOnUse">
<stop stop-color="#4FCE0D"/>
<stop offset="1" stop-color="#4FCE0D"/>
</linearGradient>
<linearGradient id="paint11_linear_4021_86477" x1="85.7763" y1="2483.32" x2="85.7763" y2="-340.603" gradientUnits="userSpaceOnUse">
<stop stop-color="#4FCE0D"/>
<stop offset="1" stop-color="#4FCE0D"/>
</linearGradient>
<linearGradient id="paint12_linear_4021_86477" x1="476.037" y1="2483.32" x2="476.037" y2="-340.603" gradientUnits="userSpaceOnUse">
<stop stop-color="#4FCE0D"/>
<stop offset="1" stop-color="#4FCE0D"/>
</linearGradient>
<linearGradient id="paint13_linear_4021_86477" x1="1826.98" y1="3191.69" x2="1826.98" y2="-447.383" gradientUnits="userSpaceOnUse">
<stop stop-color="#4FCE0D"/>
<stop offset="1" stop-color="#4FCE0D"/>
</linearGradient>
<linearGradient id="paint14_linear_4021_86477" x1="893.895" y1="1370.77" x2="893.895" y2="-208.769" gradientUnits="userSpaceOnUse">
<stop stop-color="#4FCE0D"/>
<stop offset="1" stop-color="#4FCE0D"/>
</linearGradient>
<linearGradient id="paint15_linear_4021_86477" x1="1127.53" y1="1380.69" x2="1127.53" y2="-198.862" gradientUnits="userSpaceOnUse">
<stop stop-color="#4FCE0D"/>
<stop offset="1" stop-color="#4FCE0D"/>
</linearGradient>
</defs>
</svg>
