<svg width="61" height="56" viewBox="0 0 61 56" fill="none" xmlns="http://www.w3.org/2000/svg">
<path fill-rule="evenodd" clip-rule="evenodd" d="M59.3993 36.2953L47.602 52.8012C45.8841 55.2081 42.5339 56.2682 38.2673 55.9246C32.3397 55.4086 24.4651 52.2565 16.9344 46.8411C14.4787 45.0965 12.1587 43.1681 9.99447 41.0724C6.00401 37.194 3.07104 33.159 1.50039 29.5612C-0.217482 25.607 -0.274296 22.1113 1.44358 19.7044L13.2689 3.19843C14.9874 0.791527 18.3089 -0.268561 22.6042 0.07502C28.5318 0.562269 36.3777 3.74314 43.9365 9.13039C51.4678 14.5464 56.9947 20.9937 59.3424 26.4384C59.5452 26.9055 59.7248 27.3659 59.8812 27.8195C61.0487 31.2033 60.9143 34.1727 59.3993 36.2953Z" fill="url(#paint0_linear_4021_86477)"/>
<path fill-rule="evenodd" clip-rule="evenodd" d="M57.5097 27.2407C55.2475 22.054 49.9497 15.9502 42.7343 10.7922C35.5469 5.63424 28.0737 2.5683 22.4325 2.10979C18.9962 1.82306 16.2758 2.45398 14.9019 4.37363L14.8438 4.48795C13.5554 6.40821 13.8419 9.13057 15.1878 12.2252C17.45 17.4407 22.7472 23.5438 29.9351 28.7018C37.1218 33.8599 44.5957 36.9264 50.2362 37.3849C53.6152 37.6423 56.2787 37.0408 57.6814 35.2354L57.7675 35.0923C59.1421 33.2008 58.8555 30.3928 57.5097 27.2407ZM46.9434 27.3556C46.3136 28.2433 45.0252 28.5019 43.4503 28.3583C40.615 28.129 36.8928 26.5817 33.2847 24.003C29.6767 21.4237 27.0137 18.3859 25.897 15.7784C25.2672 14.3173 25.0955 13.028 25.7253 12.139C26.3558 11.2507 27.6442 10.9928 29.2472 11.1077C32.0531 11.3657 35.8047 12.8843 39.384 15.4636C42.9921 18.0423 45.655 21.1082 46.7718 23.7162C47.4303 25.1774 47.602 26.4667 46.9434 27.3556Z" fill="white"/>
<defs>
<linearGradient id="paint0_linear_4021_86477" x1="20.7144" y1="-0.664719" x2="40.1555" y2="56.6614" gradientUnits="userSpaceOnUse">
<stop stop-color="#27B0E6"/>
<stop offset="0.107" stop-color="#49A1DB"/>
<stop offset="0.288" stop-color="#7D8ACA"/>
<stop offset="0.445" stop-color="#A279BD"/>
<stop offset="0.572" stop-color="#BA6FB6"/>
<stop offset="0.651" stop-color="#C26BB3"/>
<stop offset="0.678" stop-color="#D563AD"/>
<stop offset="0.715" stop-color="#E65BA7"/>
<stop offset="0.76" stop-color="#F156A3"/>
<stop offset="0.824" stop-color="#F853A1"/>
<stop offset="1" stop-color="#FA52A0"/>
</linearGradient>
</defs>
</svg>
