<svg width="72" height="72" viewBox="0 0 72 72" fill="none" xmlns="http://www.w3.org/2000/svg">
<circle cx="36" cy="36" r="36" fill="#071430"/>
<path d="M53.1222 31.7955L46.0086 44.329C43.8073 48.2084 39.7387 50.5973 35.3359 50.5973V50.5926L38.892 44.329L42.4479 38.0655L46.0039 31.7987L49.563 25.5319L53.1222 31.7955Z" fill="url(#paint0_linear_4021_86477)"/>
<path d="M63.7944 25.5319L60.2383 31.7987L56.6792 38.0655L53.1232 44.329L53.1201 44.3339C50.9219 48.2101 46.8549 50.5973 42.4554 50.5973H35.337C39.7382 50.5973 43.8083 48.2067 46.0097 44.329L53.1232 31.7955L49.5673 25.5319H63.7944Z" fill="url(#paint1_linear_4021_86477)"/>
<path d="M49.5033 25.4159C47.2875 21.6052 43.2544 19.2651 38.8966 19.2651L24.6663 19.2684L23.3663 21.5611L21.1103 25.5303L17.5544 19.2668L14 13.0033L21.1103 13L28.2238 13.0033H35.347C35.8966 13.0033 36.4397 13.0392 36.9747 13.1111C37.2447 13.1471 37.5099 13.1912 37.775 13.2484C37.8858 13.2696 37.9967 13.2941 38.1076 13.3219C38.3936 13.3873 38.6781 13.4641 38.9576 13.5523C39.2082 13.6308 39.4558 13.7157 39.7016 13.8121C39.843 13.8661 39.9829 13.9216 40.1225 13.9837C40.4745 14.1324 40.8184 14.3024 41.1526 14.4838C41.1558 14.4854 41.1573 14.4887 41.159 14.4854C41.7439 14.8057 42.2999 15.1717 42.827 15.5802C42.9346 15.6652 43.0407 15.7486 43.1451 15.8352C43.3491 16.0084 43.5499 16.1849 43.7445 16.3695C43.8409 16.4627 43.9372 16.5574 44.0336 16.6539C44.7922 17.4235 45.4589 18.2994 46.0085 19.2668H46.0102L49.5033 25.4159Z" fill="url(#paint2_linear_4021_86477)"/>
<path d="M35.3372 50.5974L28.2236 63.1228L24.6676 56.8609L22.4904 53.0289L21.1101 50.5974L17.5509 44.329L17.5493 44.3257C17.342 43.9629 17.1572 43.5903 16.9885 43.2145C16.823 42.8371 16.6735 42.453 16.545 42.0642C16.5097 41.9546 16.4727 41.8436 16.4422 41.734C16.3988 41.5919 16.3586 41.448 16.32 41.3059C16.1754 40.7553 16.0678 40.1947 15.9971 39.6309C15.9826 39.5133 15.9714 39.3989 15.9585 39.2812C15.9473 39.1586 15.9376 39.0345 15.9296 38.912C15.9264 38.8956 15.9264 38.876 15.9264 38.8564C15.9167 38.7289 15.9103 38.6015 15.9071 38.474V38.4691C15.9023 38.3449 15.8991 38.2223 15.8991 38.0965C15.8974 36.7354 16.1112 35.3741 16.545 34.0685C16.6318 33.8087 16.725 33.5521 16.8294 33.2972C16.8792 33.1697 16.9355 33.0422 16.9901 32.918C17.1026 32.6664 17.2231 32.4164 17.3516 32.1713C17.4159 32.0488 17.4818 31.9262 17.5509 31.8069V31.802L21.0426 25.6512C18.9071 29.5077 18.928 34.2286 21.1069 38.0688L28.222 50.6023H35.3372V50.5974Z" fill="url(#paint3_linear_4021_86477)"/>
<defs>
<linearGradient id="paint0_linear_4021_86477" x1="51.1876" y1="29.7002" x2="36.9208" y2="51.0002" gradientUnits="userSpaceOnUse">
<stop stop-color="#4D4AFE"/>
<stop offset="1" stop-color="#4D7EFE" stop-opacity="0"/>
</linearGradient>
<linearGradient id="paint1_linear_4021_86477" x1="62.6493" y1="25.3264" x2="34.7712" y2="49.2918" gradientUnits="userSpaceOnUse">
<stop stop-color="#02F0FE"/>
<stop offset="1" stop-color="#4D7EFE"/>
</linearGradient>
<linearGradient id="paint2_linear_4021_86477" x1="15.0388" y1="14.5155" x2="48.8594" y2="25.4706" gradientUnits="userSpaceOnUse">
<stop stop-color="#02F0FE"/>
<stop offset="1" stop-color="#4D7EFE"/>
</linearGradient>
<linearGradient id="paint3_linear_4021_86477" x1="29.3002" y1="62.8938" x2="21.4012" y2="25.7257" gradientUnits="userSpaceOnUse">
<stop stop-color="#02F0FE"/>
<stop offset="1" stop-color="#4D7EFE"/>
</linearGradient>
</defs>
</svg>
