<svg width="46" height="46" viewBox="0 0 46 46" fill="none" xmlns="http://www.w3.org/2000/svg">
<path d="M23 23V6.20001" stroke="#3383C5" stroke-width="3" stroke-linecap="round" stroke-linejoin="round"/>
<path d="M37.5423 14.6L8.45728 31.4" stroke="#3383C5" stroke-width="3" stroke-linecap="round" stroke-linejoin="round"/>
<path d="M23.0007 6.20001C25.9445 6.20035 28.8366 6.97419 31.3871 8.44403C33.9377 9.91387 36.0573 12.0281 37.5336 14.575C39.0099 17.1218 39.791 20.0119 39.7988 22.9556C39.8066 25.8994 39.0407 28.7936 37.5779 31.3482C36.1151 33.9028 34.0067 36.0282 31.4639 37.5115C28.9211 38.9948 26.0332 39.7839 23.0895 39.7998C20.1457 39.8157 17.2495 39.0578 14.6909 37.602C12.1322 36.1462 10.001 34.0437 8.51074 31.505" stroke="#3383C5" stroke-width="3" stroke-linecap="round" stroke-linejoin="round"/>
<path d="M16.0002 19.1675L6.2877 24.785C6.2352 24.19 6.2002 23.595 6.2002 23C6.19918 19.7824 7.12218 16.6322 8.85946 13.9239C10.5967 11.2156 13.0752 9.0632 16.0002 7.72253V19.1675Z" stroke="#3383C5" stroke-width="3" stroke-linecap="round" stroke-linejoin="round"/>
</svg>
