<svg width="46" height="46" viewBox="0 0 46 46" fill="none" xmlns="http://www.w3.org/2000/svg">
<path d="M17.4001 21.6001C25.1321 21.6001 31.4002 18.7795 31.4002 15.3001C31.4002 11.8207 25.1321 9.00006 17.4001 9.00006C9.66816 9.00006 3.40015 11.8207 3.40015 15.3001C3.40015 18.7795 9.66816 21.6001 17.4001 21.6001Z" stroke="#3383C5" stroke-width="3" stroke-linecap="round" stroke-linejoin="round"/>
<path d="M3.40015 15.3V22.3C3.40015 25.7825 9.66515 28.6 17.4001 28.6C25.1351 28.6 31.4002 25.7825 31.4002 22.3V15.3" stroke="#3383C5" stroke-width="3" stroke-linecap="round" stroke-linejoin="round"/>
<path d="M11.8 21.075V28.075" stroke="#3383C5" stroke-width="3" stroke-linecap="round" stroke-linejoin="round"/>
<path d="M31.4001 17.5225C37.7876 18.1175 42.6002 20.655 42.6002 23.7C42.6002 27.1825 36.3351 30 28.6001 30C25.1701 30 22.0201 29.44 19.5876 28.53" stroke="#3383C5" stroke-width="3" stroke-linecap="round" stroke-linejoin="round"/>
<path d="M14.6001 28.4775V30.7C14.6001 34.1825 20.8651 37 28.6001 37C36.3351 37 42.6001 34.1825 42.6001 30.7V23.7" stroke="#3383C5" stroke-width="3" stroke-linecap="round" stroke-linejoin="round"/>
<path d="M34.2001 29.475V36.475" stroke="#3383C5" stroke-width="3" stroke-linecap="round" stroke-linejoin="round"/>
<path d="M23.0001 21.075V36.475" stroke="#3383C5" stroke-width="3" stroke-linecap="round" stroke-linejoin="round"/>
</svg>
