<svg width="46" height="46" viewBox="0 0 46 46" fill="none" xmlns="http://www.w3.org/2000/svg">
<path d="M37.2546 12.1269C35.3129 12.1269 33.3882 12.4857 31.5795 13.1849C29.028 7.94806 23.8732 5.34551 23.638 5.22914C23.4399 5.13107 23.2215 5.08002 23.0001 5.08002C22.7786 5.08002 22.5602 5.13107 22.3622 5.22914C22.1252 5.34551 16.9722 7.94806 14.4206 13.1849C12.612 12.4857 10.6873 12.1269 8.74552 12.1269C8.36747 12.1269 8.0049 12.2756 7.73757 12.5401C7.47025 12.8046 7.32007 13.1634 7.32007 13.5375V27.6435C7.32007 31.7587 8.97206 35.7054 11.9126 38.6153C14.8532 41.5252 18.8415 43.16 23.0001 43.16C27.1587 43.16 31.1469 41.5252 34.0875 38.6153C37.0281 35.7054 38.6801 31.7587 38.6801 27.6435V13.5375C38.6801 13.1634 38.5299 12.8046 38.2626 12.5401C37.9952 12.2756 37.6327 12.1269 37.2546 12.1269ZM21.5746 40.2612C18.4398 39.9105 15.5451 38.4307 13.442 36.1037C11.3389 33.7767 10.1746 30.7653 10.171 27.6435V24.8999C13.3057 25.2506 16.2005 26.7305 18.3036 29.0574C20.4066 31.3844 21.571 34.3958 21.5746 37.5176V40.2612ZM21.5746 28.6062C20.2674 26.7624 18.5702 25.2224 16.6009 24.093C14.6316 22.9636 12.4375 22.2721 10.171 22.0663V15.0257C13.3057 15.3764 16.2005 16.8563 18.3036 19.1833C20.4066 21.5103 21.571 24.5216 21.5746 27.6435V28.6062ZM16.9686 14.4386C18.6115 11.0514 21.6744 8.91432 23.0001 8.10851C24.3257 8.91608 27.3887 11.0531 29.0297 14.4386C26.3945 16.0524 24.2975 18.398 23.0001 21.183C21.7025 18.3975 19.6048 16.0518 16.9686 14.4386ZM35.8292 27.6435C35.8255 30.7653 34.6612 33.7767 32.5581 36.1037C30.4551 38.4307 27.5603 39.9105 24.4255 40.2612V37.5176C24.4292 34.3958 25.5935 31.3844 27.6966 29.0574C29.7996 26.7305 32.6944 25.2506 35.8292 24.8999V27.6435ZM35.8292 22.0663C33.5626 22.2721 31.3685 22.9636 29.3992 24.093C27.43 25.2224 25.7328 26.7624 24.4255 28.6062V27.6435C24.4292 24.5216 25.5935 21.5103 27.6966 19.1833C29.7996 16.8563 32.6944 15.3764 35.8292 15.0257V22.0663Z" fill="#3383C5"/>
</svg>
