<svg width="46" height="46" viewBox="0 0 46 46" fill="none" xmlns="http://www.w3.org/2000/svg">
<path d="M39.3808 26.7451C39.6711 25.4708 39.8121 24.167 39.8008 22.8601C39.7308 13.6026 32.0658 6.1126 22.8258 6.2001C18.8784 6.24172 15.0717 7.67209 12.0736 10.2402C9.07554 12.8084 7.07759 16.3503 6.4303 20.2445C5.783 24.1387 6.52772 28.1364 8.53377 31.5364C10.5398 34.9363 13.6791 37.5212 17.4008 38.8376C18.0339 39.0657 18.7126 39.1376 19.3795 39.0473C20.0463 38.9571 20.6815 38.7072 21.2311 38.319C21.7808 37.9308 22.2287 37.4157 22.5367 36.8175C22.8448 36.2193 23.004 35.5555 23.0008 34.8826V34.2001C22.9985 33.6479 23.1055 33.1007 23.3158 32.5901C23.526 32.0795 23.8353 31.6156 24.2258 31.2251C24.6162 30.8346 25.0802 30.5253 25.5908 30.3151C26.1014 30.1048 26.6486 29.9978 27.2008 30.0001H35.2858C36.2359 30.0007 37.1581 29.6792 37.9019 29.088C38.6457 28.4968 39.167 27.6708 39.3808 26.7451V26.7451Z" stroke="#3383C5" stroke-width="3" stroke-linecap="round" stroke-linejoin="round"/>
<path d="M23.0001 16.7C24.5465 16.7 25.8001 15.4464 25.8001 13.9C25.8001 12.3536 24.5465 11.1 23.0001 11.1C21.4537 11.1 20.2001 12.3536 20.2001 13.9C20.2001 15.4464 21.4537 16.7 23.0001 16.7Z" fill="#3383C5"/>
<path d="M15.1251 21.25C16.6715 21.25 17.9251 19.9964 17.9251 18.45C17.9251 16.9036 16.6715 15.65 15.1251 15.65C13.5787 15.65 12.3251 16.9036 12.3251 18.45C12.3251 19.9964 13.5787 21.25 15.1251 21.25Z" fill="#3383C5"/>
<path d="M15.1251 30.3501C16.6715 30.3501 17.9251 29.0965 17.9251 27.5501C17.9251 26.0037 16.6715 24.7501 15.1251 24.7501C13.5787 24.7501 12.3251 26.0037 12.3251 27.5501C12.3251 29.0965 13.5787 30.3501 15.1251 30.3501Z" fill="#3383C5"/>
<path d="M30.8751 21.25C32.4215 21.25 33.6751 19.9964 33.6751 18.45C33.6751 16.9036 32.4215 15.65 30.8751 15.65C29.3287 15.65 28.0751 16.9036 28.0751 18.45C28.0751 19.9964 29.3287 21.25 30.8751 21.25Z" fill="#3383C5"/>
</svg>
