<svg width="72" height="72" viewBox="0 0 72 72" fill="none" xmlns="http://www.w3.org/2000/svg">
<circle cx="36" cy="36" r="36" fill="#071430"/>
<path d="M35.6647 44.7133L43.8725 57.7023L51.4544 53.2717L40.6757 36.1408L35.6647 44.7133Z" fill="#28A0F0"/>
<path d="M58.3601 48.0613L58.3545 44.5124L46.5763 26.0145L42.204 33.4898L53.5743 52.0322L57.6875 49.63C57.8867 49.4673 58.0495 49.264 58.1655 49.0334C58.2814 48.8029 58.3479 48.5503 58.3605 48.2921L58.3601 48.0613Z" fill="#28A0F0"/>
<path d="M9.00214 51.4092L14.8077 54.7823L34.1272 23.5418L30.8485 23.4563C28.0549 23.4165 25.0454 24.1485 23.6643 26.4224L12.6934 43.5683L9.00426 49.2863V51.4109L9.00214 51.4092Z" fill="white"/>
<path d="M45.2774 23.5414L36.6362 23.573L17.0853 56.1044L23.9187 60.0719L25.7769 56.8937L45.2774 23.5414Z" fill="white"/>
<path d="M62 23.4965C61.9604 22.5972 61.7046 21.7212 61.2545 20.9439C60.8043 20.1666 60.1735 19.5114 59.4163 19.0347L37.9334 6.57761C37.1665 6.1976 36.3233 6 35.4688 6C34.6143 6 33.7712 6.1976 33.0043 6.57761C32.8249 6.66869 12.1125 18.7815 12.1125 18.7815C11.8247 18.9209 11.5495 19.0851 11.2898 19.2724C10.6173 19.7547 10.0619 20.3843 9.66527 21.114C9.26867 21.8438 9.04122 22.6547 9 23.4858V49.285L12.6892 43.567L12.6608 23.6615C12.678 23.3886 12.7551 23.1229 12.8864 22.8837C13.0178 22.6444 13.2001 22.4375 13.4202 22.2779C13.5178 22.2073 34.5839 9.91187 34.6509 9.87809C34.903 9.75431 35.1796 9.68935 35.4601 9.68801C35.7406 9.68668 36.0178 9.74901 36.2711 9.87039L57.4763 22.1697C57.7232 22.3278 57.9288 22.5436 58.0757 22.7987C58.2226 23.0538 58.3064 23.3408 58.3201 23.6354V48.2947C58.315 48.5504 58.2558 48.802 58.1465 49.0327C58.0372 49.2634 57.8802 49.468 57.6862 49.6326L53.573 52.0347L51.4528 53.2747L43.8708 57.7053L36.1817 62.1987C35.7565 62.3499 35.2915 62.3406 34.8726 62.1726L25.7756 56.8967L23.9174 60.0745L32.093 64.8206C32.3636 64.9754 32.6044 65.1131 32.802 65.2251C33.1082 65.3961 33.3168 65.5137 33.3902 65.5496C34.0742 65.8518 34.8137 66.0053 35.5604 65.9999C36.2453 66.0009 36.9242 65.8721 37.5619 65.6202L59.8951 52.579C60.5251 52.0848 61.0401 51.4573 61.4036 50.7408C61.7671 50.0242 61.9704 49.2359 61.9991 48.4315L62 23.4965Z" fill="#96BEDC"/>
</svg>
