<svg width="53" height="60" viewBox="0 0 53 60" fill="none" xmlns="http://www.w3.org/2000/svg">
<path d="M33.2052 27.4902L37.575 20.014L49.3532 38.5119L49.3587 42.0608L49.3201 17.6329C49.3064 17.3382 49.2226 17.0512 49.0757 16.7961C48.9288 16.541 48.7232 16.3253 48.4763 16.1671L27.2711 3.86868C27.0178 3.7473 26.7406 3.68497 26.4601 3.6863C26.1796 3.68763 25.903 3.7526 25.6508 3.87638C25.5854 3.90946 25.522 3.94644 25.4609 3.98712L25.3871 4.03415L4.80356 16.0611L4.72342 16.0974C4.61673 16.1472 4.51493 16.2071 4.41938 16.2761C4.03335 16.5541 3.77027 16.9731 3.68621 17.4439C3.67334 17.5153 3.66456 17.5874 3.65991 17.6598L3.69214 37.5661L14.663 20.4202C16.0441 18.1468 19.0536 17.4144 21.8472 17.4541L25.1259 17.5396L5.80643 48.7802L8.08396 50.1023L27.6349 17.5709L36.2765 17.5392L16.776 50.8903L24.9033 55.6065L25.8743 56.1696C26.2932 56.3375 26.7582 56.3467 27.1833 56.1957L48.6866 43.6305L44.5734 46.0326L33.2052 27.4902ZM34.8725 51.7027L26.6647 38.7133L31.6748 30.1408L42.454 47.2721L34.8725 51.7027Z" fill="#2D374B"/>
<path d="M26.6647 38.7133L34.8725 51.7023L42.4544 47.2717L31.6757 30.1408L26.6647 38.7133Z" fill="#28A0F0"/>
<path d="M49.3601 42.0612L49.3545 38.5123L37.5763 20.0145L33.204 27.4898L44.5743 46.0322L48.6875 43.63C48.8867 43.4673 49.0495 43.264 49.1655 43.0334C49.2814 42.8029 49.3479 42.5503 49.3605 42.2921L49.3601 42.0612Z" fill="#28A0F0"/>
<path d="M0.00213623 45.4092L5.80773 48.7823L25.1272 17.5417L21.8485 17.4562C19.0549 17.4165 16.0454 18.1485 14.6643 20.4223L3.69344 37.5682L0.00425852 43.2862V45.4109L0.00213623 45.4092Z" fill="white"/>
<path d="M36.2774 17.5414L27.6362 17.573L8.08527 50.1045L14.9187 54.0719L16.7769 50.8938L36.2774 17.5414Z" fill="white"/>
<path d="M53 17.4965C52.9604 16.5972 52.7046 15.7212 52.2545 14.9439C51.8043 14.1666 51.1735 13.5114 50.4163 13.0347L28.9334 0.577613C28.1665 0.197602 27.3233 0 26.4688 0C25.6143 0 24.7712 0.197602 24.0043 0.577613C23.8249 0.668687 3.11248 12.7815 3.11248 12.7815C2.82471 12.9209 2.54946 13.0851 2.28984 13.2724C1.61729 13.7547 1.06186 14.3843 0.665267 15.114C0.268671 15.8438 0.0412203 16.6547 0 17.4858V43.285L3.68918 37.567L3.66077 17.6615C3.67803 17.3886 3.7551 17.1229 3.88643 16.8837C4.01775 16.6444 4.20006 16.4375 4.42023 16.2779C4.51776 16.2073 25.5839 3.91187 25.6509 3.87809C25.903 3.75431 26.1796 3.68935 26.4601 3.68801C26.7406 3.68668 27.0178 3.74901 27.2711 3.87039L48.4763 16.1697C48.7232 16.3278 48.9288 16.5435 49.0757 16.7987C49.2226 17.0538 49.3064 17.3408 49.3201 17.6354V42.2947C49.315 42.5504 49.2558 42.802 49.1465 43.0327C49.0372 43.2634 48.8802 43.468 48.6862 43.6326L44.573 46.0347L42.4528 47.2747L34.8708 51.7053L27.1817 56.1987C26.7565 56.3499 26.2915 56.3406 25.8726 56.1726L16.7756 50.8967L14.9174 54.0745L23.093 58.8206C23.3636 58.9754 23.6044 59.1131 23.802 59.2251C24.1082 59.3961 24.3168 59.5137 24.3902 59.5496C25.0742 59.8518 25.8137 60.0053 26.5604 59.9999C27.2453 60.0009 27.9242 59.8721 28.5619 59.6202L50.895 46.579C51.5251 46.0848 52.0401 45.4573 52.4036 44.7408C52.7671 44.0242 52.9704 43.2359 52.9991 42.4315L53 17.4965Z" fill="#00BC8C"/>
</svg>
