<svg width="57" height="58" viewBox="0 0 57 58" fill="none" xmlns="http://www.w3.org/2000/svg">
<path fill-rule="evenodd" clip-rule="evenodd" d="M7.55699 18.187L19.424 0L1.73333 17.3852C0.261235 18.8319 0.954025 21.3035 2.97204 21.8054L12.3485 24.1382C11.5112 25.4314 10.5632 27.0623 9.8265 28.7911C9.15115 30.3745 8.58847 32.1877 8.5328 33.9834C8.4758 35.8223 8.95532 37.7926 10.5377 39.3474C12.9152 41.6839 14.6415 42.4992 16.0204 43.15C16.123 43.1985 16.2236 43.2459 16.3222 43.293C16.9637 43.5992 17.4378 43.8503 17.9405 44.2454C18.4482 44.6442 19.0645 45.2535 19.8559 46.3232C19.9967 46.5137 20.1463 46.717 20.3035 46.9319C22.0298 49.2858 24.7389 52.9804 28.2347 55.4328C30.1857 56.8011 32.5008 57.8761 35.1482 58.0867C37.8299 58.2999 40.6302 57.6075 43.4805 55.8036C46.2104 54.0754 48.0094 52.1506 48.8558 49.9087C49.7082 47.651 49.4557 45.4381 48.8357 43.4311C48.268 41.5929 47.3203 39.7185 46.4361 37.9689L46.4344 37.9656L46.417 37.9313L46.2694 37.639C45.302 35.7224 44.3896 33.8697 43.7823 31.93C42.5969 28.1435 43.401 26.503 43.9064 25.8532C44.1492 25.5409 44.4575 25.2835 44.8104 25.0985C44.9419 25.0296 45.0471 24.9888 45.1052 24.9683L45.1363 24.9578L45.192 24.9449L45.2876 24.9143L45.7074 24.7792L46.8133 24.4213C47.7291 24.1247 48.9527 23.7273 50.1824 23.3246C51.41 22.9225 52.6504 22.5126 53.5974 22.1919C54.0685 22.0324 54.479 21.891 54.7824 21.782C54.931 21.7286 55.0732 21.6759 55.1905 21.6294C55.2462 21.6073 55.3233 21.5757 55.4031 21.5388C55.4658 21.51 55.5273 21.4789 55.5876 21.4455L55.5912 21.4435C55.7806 21.3385 55.9546 21.2088 56.1087 21.058C57.062 20.1211 56.7568 18.9729 56.7257 18.8549L56.724 18.8493C56.6744 18.6587 56.6007 18.4749 56.5047 18.3023C56.4421 18.1903 56.3715 18.0828 56.2934 17.9807C56.2106 17.8719 56.1187 17.7655 56.049 17.6864C55.852 17.4668 55.6512 17.2506 55.4467 17.0378C55.157 16.734 49.5322 11.134 44.8067 6.42976C41.5342 3.1722 38.6933 0.343716 38.3533 0C38.3935 0.0405341 41.4199 4.72008 44.4154 9.35184C47.3509 13.8907 50.2568 18.3837 50.2947 18.4223C49.78 18.5926 49.2391 18.7703 48.6979 18.9475C47.2139 19.4334 45.7288 19.9161 44.2427 20.3956L43.8882 20.5099L43.8594 20.5178L43.838 20.5238C43.7551 20.5475 43.6508 20.5798 43.5288 20.6226C43.2857 20.7076 42.9664 20.8368 42.6056 21.0253C41.6576 21.5215 40.8294 22.2124 40.1772 23.051C38.5032 25.2023 37.7983 28.505 39.2952 33.2867C40.0293 35.6311 41.108 37.7949 42.0634 39.6888L42.1573 39.8743C43.1083 41.758 43.8933 43.3131 44.3436 44.7714C44.7926 46.2247 44.8228 47.328 44.4546 48.3038C44.0801 49.2957 43.1545 50.522 40.9384 51.9248C38.8426 53.2513 37.0552 53.6095 35.5265 53.4879C33.9638 53.3636 32.4465 52.719 30.9623 51.6777C28.1321 49.6922 25.8613 46.6083 24.0716 44.1775C23.9288 43.9838 23.7893 43.7943 23.6525 43.6097C22.676 42.2899 21.7797 41.3547 20.8712 40.6412C19.9581 39.9241 19.1124 39.4957 18.3727 39.1427C18.2661 39.0917 18.1601 39.0419 18.0545 38.9921C16.8396 38.4197 15.6723 37.8691 13.8572 36.0852C13.439 35.674 13.1952 35.0831 13.2251 34.1241C13.2563 33.1223 13.5906 31.901 14.1563 30.5736C15.2843 27.928 17.0736 25.4435 17.7886 24.505C18.9555 22.9726 18.1249 20.8161 16.2937 20.3603L7.55699 18.187ZM27.3471 37.0485C27.3471 37.0485 23.7289 37.0485 21.3172 34.8676C18.9055 32.6863 21.3172 28.3244 21.3172 28.3244C21.3172 28.3244 22.0208 28.7604 24.6839 31.814C27.3471 34.8676 27.3471 37.0485 27.3471 37.0485Z" fill="url(#paint0_linear_6896_71130)"/>
<defs>
<linearGradient id="paint0_linear_6896_71130" x1="28.9641" y1="26.1824" x2="28.8744" y2="58.1239" gradientUnits="userSpaceOnUse">
<stop stop-color="#22E1FF"/>
<stop offset="1" stop-color="#002EFF"/>
</linearGradient>
</defs>
</svg>
 