<svg width="72" height="72" viewBox="0 0 72 72" fill="none" xmlns="http://www.w3.org/2000/svg">
<circle cx="36" cy="36" r="36" fill="#0F1D40"/>
<path d="M40.8535 68V44.984C46.3522 45.572 50.0835 48.092 50.0835 48.092L53.5904 44.144C47.8392 40.056 39.3105 39.888 39.3105 39.888L37.9077 24.432C38.8335 23.816 39.4507 22.78 39.4507 21.576C39.4507 19.7 37.9077 18.16 36.0281 18.16C34.1484 18.16 32.6054 19.7 32.6054 21.576C32.6054 22.78 33.2226 23.844 34.1484 24.432L32.7456 39.888C32.7456 39.888 24.217 40.028 18.4657 44.144L21.9726 48.092C21.9726 48.092 25.7039 45.572 31.2026 44.984V68C9.71258 52.096 7.94513 28.996 8.00124 21.324C8.00124 19.728 8.9551 18.272 10.414 17.628C14.7064 15.724 24.4975 12 36 12C47.5025 12 57.2936 15.724 61.586 17.628C63.0449 18.272 63.9988 19.728 63.9988 21.324C64.0549 28.996 62.2874 52.096 40.8535 68Z" fill="#FFAF1D"/>
</svg>
