<svg width="72" height="72" viewBox="0 0 72 72" fill="none" xmlns="http://www.w3.org/2000/svg">
<circle cx="36" cy="36" r="35.5" fill="#0F1D40" stroke="#8B90A0"/>
<path d="M41.1415 19.9577C41.321 19.6122 41.608 19.3354 41.959 19.1692C42.4412 18.9433 42.9292 18.9205 43.3782 19.243C43.53 19.3536 43.651 19.5015 43.7298 19.6724C44.1344 20.5623 44.5371 21.4538 44.9069 22.3618C45.5005 23.8286 46.3052 25.192 46.9625 26.629C47.8961 28.673 48.8376 30.7122 49.7868 32.7469C50.3306 33.9119 50.8458 35.1031 51.5287 36.2006C51.7156 36.4899 51.9201 36.7671 52.1412 37.031C52.2345 37.1388 52.3505 37.2247 52.4807 37.2823C53.4771 37.745 54.5505 37.8336 55.6205 37.9014C56.1664 37.9366 56.7021 37.8621 57.2445 37.8618C58.2832 37.8636 59.3218 37.8654 60.3549 37.9015C61.0394 37.9264 61.7233 38.0064 62.4044 38.0787C62.6676 38.1161 62.928 38.1715 63.1837 38.2449C63.2904 38.2754 63.3934 38.3177 63.4908 38.3712C64.0461 38.6596 64.1572 39.1431 63.7748 39.6341C63.4557 40.0486 63.0434 40.381 62.5713 40.604C61.5651 41.0628 60.516 41.4205 59.439 41.6715C58.3773 41.9358 57.3234 42.2305 56.2771 42.5553C54.6765 43.0679 53.0357 43.4457 51.3719 43.6846C50.2644 43.8294 49.1484 43.9004 48.0311 43.8969C47.0266 43.9008 46.0235 43.8238 45.0161 43.7868C43.4795 43.7295 41.9475 43.6137 40.4128 43.4866C38.1662 43.3185 35.9095 43.5748 33.7596 44.2421C32.308 44.6727 30.8509 45.088 29.4045 45.556C28.7231 45.7762 28.0641 46.0948 27.414 46.381C26.5548 46.7564 25.7051 47.1621 24.838 47.5254C22.7265 48.4198 20.5276 48.986 18.209 48.994C16.9917 49.0232 15.7739 48.9458 14.5694 48.7627C13.8501 48.6364 13.1233 48.5792 12.4173 48.3292C10.1557 47.5156 8.64845 45.991 8.1129 43.6069C7.96779 42.9864 7.96249 42.3417 8.09741 41.7199C8.23232 41.098 8.50404 40.5149 8.89264 40.0131C9.27348 39.5035 9.64074 38.9666 10.051 38.4732C10.8702 37.4669 11.8896 36.6436 13.0442 36.0558C14.1185 35.501 15.2929 35.1678 16.4986 35.0758C17.2696 35.0016 18.0462 35.0056 18.8169 35.0879C19.0794 35.1171 19.3377 35.1864 19.5986 35.2303C19.7199 35.2438 19.8376 35.2569 19.9897 35.274C20.0222 35.1783 20.0468 35.0802 20.0634 34.9803C20.1226 34.1385 20.1746 33.296 20.2301 32.4537C20.254 32.2319 20.2649 32.0104 20.2741 31.7888C20.2925 31.3436 20.2963 30.8986 20.3237 30.4564C20.3854 29.4713 20.3748 28.4781 20.5891 27.5064C20.6192 27.3536 20.6359 27.1984 20.6389 27.0426C20.6705 26.2695 20.942 25.5674 21.2665 24.8822C21.2985 24.8115 21.3364 24.7437 21.3799 24.6795C22.0011 23.829 22.7572 23.0871 23.6182 22.4834C25.2862 21.3076 27.1415 20.4256 29.1054 19.8751C30.4788 19.4864 31.8837 19.2195 33.3043 19.0775C34.6163 18.9605 35.938 19.0054 37.2401 19.2113C37.6888 19.2816 38.1419 19.345 38.5874 19.3764C39.3618 19.4279 40.1243 19.5955 40.8499 19.8736C40.9399 19.9058 41.0259 19.9245 41.1415 19.9577ZM21.0153 35.5339C21.1575 35.592 21.2966 35.6609 21.444 35.705C22.5305 36.0397 23.6186 36.3728 24.7079 36.7042L24.868 36.7331C24.7534 36.6436 24.6221 36.5782 24.4818 36.541C23.6677 36.29 22.8576 36.0376 22.0407 35.7954C21.7034 35.6953 21.3576 35.6217 21.0169 35.5358C20.9503 35.0978 20.9881 35.0192 21.3829 34.8405C21.5546 34.7603 21.7283 34.6951 21.8983 34.6128C24.5294 33.4457 27.2884 32.5931 30.1193 32.0722C32.2706 31.6625 34.4455 31.3865 36.6316 31.2458C38.5078 31.1108 40.3911 31.0984 42.2696 31.2087C43.719 31.2762 45.1596 31.4783 46.5728 31.8123C47.2205 31.9609 47.8531 32.17 48.4624 32.4373C48.6792 32.5307 48.856 32.6985 48.9613 32.9107C49.2513 33.486 49.5586 34.054 49.8601 34.625L51.2151 37.1926C51.2639 37.2845 51.3567 37.3758 51.2458 37.5383C51.0082 37.464 50.7555 37.3953 50.5102 37.3071C49.2442 36.8636 47.935 36.5571 46.605 36.3929C45.2905 36.213 43.9635 36.098 42.6391 36.0109C41.5926 35.9439 40.5393 35.9607 39.4884 35.952C38.8583 35.9312 38.2277 35.9437 37.5991 35.9897C36.4324 36.106 35.272 36.282 34.1097 36.4247L28.4197 37.1681C28.3566 37.1758 28.2946 37.1892 28.2332 37.1988L28.2258 37.268C29.0751 37.3754 29.9139 37.5565 30.7327 37.809C30.2175 37.7774 29.7061 37.7129 29.1927 37.6648C28.6793 37.6166 28.1579 37.5916 27.6378 37.539C27.1176 37.4866 26.6482 37.3183 26.1318 37.3858C26.2377 37.4649 26.3542 37.5286 26.4779 37.5753C27.4644 37.9727 28.4727 38.313 29.4977 38.5951C30.9031 38.9525 32.298 39.3566 33.6949 39.7426C34.1968 39.8796 34.6936 40.0473 35.2045 40.1355C36.0319 40.2794 36.8671 40.3837 37.7018 40.4768C38.2957 40.5431 38.8926 40.5803 39.4886 40.6266C39.9756 40.6644 40.4583 40.6906 40.9437 40.7263C42.1375 40.8191 43.3314 40.8088 44.526 40.7913C46.3962 40.7681 48.2611 40.599 50.1044 40.2856C50.7341 40.1719 51.3534 39.9999 51.9728 39.8297C52.5389 39.6758 53.0882 39.474 53.6528 39.3179C54.6189 39.0576 55.6074 39.1679 56.5933 39.2338C56.8463 39.2491 57.0974 39.2993 57.35 39.3367C57.6782 39.3863 58.0027 39.4518 58.3325 39.4849C59.0134 39.5609 59.6974 39.6227 60.3821 39.6621C61.0214 39.6986 61.659 39.7146 62.3047 39.7075C62.5801 39.6891 62.8526 39.6404 63.1173 39.5625C63.2342 39.5295 63.3424 39.4714 63.4343 39.3918C63.7037 39.1697 63.6876 38.9103 63.3758 38.7596C63.1272 38.638 62.8618 38.555 62.5887 38.5134C61.6146 38.3643 60.6307 38.2913 59.6457 38.2954C59.2036 38.3013 58.7608 38.3126 58.3192 38.313C58.0317 38.3123 57.7438 38.2966 57.4552 38.2883C58.0164 38.4357 58.5823 38.5411 59.1458 38.6519C59.6661 38.754 60.1858 38.8618 60.7054 38.9713C60.8132 39.002 60.9187 39.0403 61.0212 39.0857L61.0031 39.1518C60.9295 39.1545 60.8553 39.1628 60.7826 39.1584C60.5729 39.1479 60.3617 39.1354 60.1532 39.1158C59.4693 39.0524 58.7855 39.0037 58.1063 38.9131C57.4271 38.8226 56.7091 38.6855 56.0098 38.5761C55.3649 38.4747 54.7151 38.4003 54.0734 38.2845C53.2833 38.133 52.5101 37.9018 51.7656 37.5945C51.5983 37.5342 51.4597 37.4129 51.3769 37.2549C50.7222 36.015 50.0481 34.7858 49.4051 33.5381C48.6817 32.1359 47.978 30.7213 47.2741 29.3066C46.7436 28.2407 46.2094 27.1762 45.7096 26.0972C44.9985 24.5456 44.3056 22.9959 43.6178 21.4322C43.3914 20.9136 43.1133 20.4152 43.0549 19.8492C42.6089 19.6687 41.9402 19.8389 41.6673 20.1967C42.0098 20.419 42.4874 20.3564 42.8403 20.7381C42.7388 20.7902 42.6299 20.8265 42.5173 20.8456C42.3298 20.8415 42.1433 20.8164 41.9611 20.7706C41.5329 20.6621 41.1169 20.4924 40.6826 20.4089C39.9455 20.2604 39.2008 20.1478 38.4591 20.0246C37.6935 19.9038 36.9186 19.8549 36.1443 19.8785C35.2943 19.8941 34.4393 19.8723 33.5907 19.9082C30.8035 20.0499 28.21 20.8941 25.7317 22.134C24.9246 22.551 24.1543 23.0357 23.4287 23.5831C22.9897 23.888 22.6366 24.3018 22.4037 24.7846C21.7472 26.2075 21.4963 27.7254 21.4034 29.2738C21.3555 30.0948 21.3073 30.9194 21.251 31.7339C21.1947 32.5485 21.1303 33.3529 21.0656 34.161C21.03 34.492 20.9943 34.8248 20.9715 35.1572C20.922 35.2934 20.9001 35.429 21.0153 35.5339ZM63.0607 39.8341C62.7485 39.9428 62.4433 40.0726 62.1251 40.1512C61.722 40.2662 61.3088 40.3433 60.8912 40.3816C60.0818 40.4292 59.2825 40.2793 58.4821 40.1752C57.6816 40.0712 56.9257 39.9611 56.1481 39.8485C55.763 39.8015 55.3731 39.8157 54.9929 39.8907C54.0934 40.0444 53.2574 40.4075 52.3873 40.6618C51.8689 40.8139 51.3562 40.9977 50.83 41.1211C50.1212 41.2886 49.3974 41.392 48.6869 41.5592C47.7974 41.7388 46.8911 41.8228 45.9831 41.8097C44.6308 41.828 43.288 41.7077 41.9404 41.6308C41.1902 41.5876 40.4391 41.5865 39.6867 41.5633C38.8459 41.5284 38.0047 41.5118 37.1698 41.4223C36.4347 41.3403 35.7072 41.1874 34.9784 41.0471C34.1521 40.8898 33.3392 40.668 32.5468 40.3837C31.1904 39.8955 29.8352 39.4113 28.4672 38.9605C26.7214 38.384 24.9689 37.8289 23.2099 37.2952C21.8546 36.8807 20.4937 36.4842 19.1217 36.123C18.6073 35.9885 18.0775 35.9237 17.5465 35.9308C16.2912 35.9595 15.0572 36.2559 13.9262 36.8003C13.2559 37.117 12.6056 37.4747 11.979 37.8713C11.4907 38.1762 11.0323 38.5267 10.6097 38.9183C9.64568 39.8313 8.98048 41.0173 8.70177 42.3198C8.47684 43.238 8.61491 44.2093 9.08697 45.0295C9.48461 45.7005 9.9929 46.2986 10.59 46.7984C10.6294 46.83 10.6711 46.8587 10.7146 46.8841C10.6064 46.6771 10.4762 46.4823 10.3262 46.3034C9.87246 45.7533 9.51439 45.1303 9.26713 44.4607C8.94284 43.4878 8.95325 42.5376 9.46893 41.6252C9.82672 41.0238 10.3158 40.5121 10.8993 40.1285C11.9543 39.3979 13.1455 38.9859 14.3783 38.6984C16.0254 38.3058 17.7105 38.0933 19.4042 38.0649C20.1215 38.0566 20.8397 38.0742 21.5586 38.0845C21.9793 38.0909 22.4017 38.0829 22.8184 38.1257C23.5347 38.1764 24.247 38.2737 24.951 38.4171C25.7226 38.6026 26.4691 38.9012 27.2219 39.1601C28.7734 39.6921 30.3256 40.2187 31.8696 40.77C33.1295 41.2276 34.4263 41.5743 35.7452 41.8062C37.3863 42.0605 39.0426 42.2005 40.7021 42.2251C41.7522 42.2576 42.8025 42.3049 43.8514 42.3299C44.6024 42.3494 45.3582 42.3914 46.1059 42.3387C47.8947 42.2144 49.6711 42.0004 51.3966 41.4752C52.0633 41.2718 52.7353 41.089 53.4003 40.8853C53.7375 40.7813 54.0634 40.6299 54.4031 40.5372C55.5137 40.2287 56.6397 40.3543 57.7627 40.4759C58.1357 40.5175 58.5037 40.6046 58.8771 40.6426C59.2504 40.6805 59.6283 40.6768 60.0017 40.7147C60.4532 40.7577 60.9077 40.7516 61.3576 40.6968C62.0303 40.6264 62.5568 40.2785 63.0561 39.8594L63.0607 39.8341Z" fill="#DE6B38"/>
</svg>
