<svg xmlns="http://www.w3.org/2000/svg" width="128" height="128" viewBox="0 0 128 128">
  <circle id="Ellipse_2" data-name="Ellipse 2" cx="64" cy="64" r="64" fill="#00a9b3"/>
  <path id="Path_6" data-name="Path 6" d="M89.792,64.988a7.917,7.917,0,1,0-7.917-7.917A7.917,7.917,0,0,0,89.792,64.988Z" fill="#fff"/>
  <path id="Path_7" data-name="Path 7" d="M34.149,63.781a7.969,7.969,0,0,1-2.714-10.933L44.7,30.757a7.965,7.965,0,0,1,13.647,8.218L45.082,61.067A8.036,8.036,0,0,1,34.149,63.781Z" fill="#fff"/>
  <path id="Path_8" data-name="Path 8" d="M59.86,63.781a7.969,7.969,0,0,1-2.714-10.933l13.27-22.091a7.965,7.965,0,0,1,13.647,8.218L70.792,61.067A8.036,8.036,0,0,1,59.86,63.781Z" fill="#fff"/>
  <path id="Path_11" data-name="Path 11" d="M29.5,0c16.291,0,29.5,12.52,29.5,27.965S45.788,55.929,29.5,55.929,0,43.409,0,27.965,13.206,0,29.5,0Z" transform="translate(55.521 55.61)"/>
  <path id="Path_9" data-name="Path 9" d="M69.308,77.5v26.187H85.2v-5.2H74.616V77.5Z" transform="translate(-4 -4)" fill="#fff"/>
  <path id="Path_10" data-name="Path 10" d="M95.285,77.5v26.187h5.494V94.51h6.152a8.335,8.335,0,0,0,6.377-2.539,8.756,8.756,0,0,0,2.151-5.989,8.647,8.647,0,0,0-2.2-5.951,8.369,8.369,0,0,0-6.326-2.531Zm14.55,8.482a3.348,3.348,0,0,1-.847,2.386,3.44,3.44,0,0,1-2.577.938h-5.633V82.7h5.633a3.462,3.462,0,0,1,2.563.935A3.262,3.262,0,0,1,109.835,85.982Z" transform="translate(-4 -4)" fill="#fff" fill-rule="evenodd"/>
</svg>
