<svg width="72" height="72" viewBox="0 0 72 72" fill="none" xmlns="http://www.w3.org/2000/svg">
<circle cx="36" cy="36" r="36" fill="#0F1D40"/>
<path d="M27.5991 52.6805V62.9999H31.6803V48.8389L27.6126 52.6636L27.5991 52.6805Z" fill="url(#paint0_linear_1349_2850)"/>
<path d="M9 31.3312V47.0916L12.9914 50.8487L13.0813 50.9334V27.4895L9.01348 31.3185L9 31.3312Z" fill="url(#paint1_linear_1349_2850)"/>
<path d="M25.0011 34.5976H29.1724L33.1637 30.8448L33.2536 30.7601H20.9199L24.9876 34.5849L25.0011 34.5976Z" fill="url(#paint2_linear_1349_2850)"/>
<path d="M27.7116 13.21L23.7203 16.9671L23.6304 17.0474H48.3696L44.3063 13.2226L44.2883 13.21H27.7116Z" fill="url(#paint3_linear_1349_2850)"/>
<path d="M38.1131 48.7627H33.8926V63H38.1131V48.7627Z" fill="url(#paint4_linear_1349_2850)"/>
<path d="M28.6604 9H22.8891L19.1629 12.5075L19.1494 12.5202V17.9528L28.5705 9.08462L28.6604 9Z" fill="url(#paint5_linear_1349_2850)"/>
<path d="M18.511 18.5538H12.7397L9.01348 22.057L9 22.0741V27.5066L18.4211 18.6385L18.511 18.5538Z" fill="url(#paint6_linear_1349_2850)"/>
<path d="M40.3247 48.8389V62.9999H44.4015V52.6805L40.4102 48.9234L40.3247 48.8389Z" fill="url(#paint7_linear_1349_2850)"/>
<path d="M58.9189 27.4895V50.9334L62.9867 47.1086L63.0002 47.0916V31.3312L59.0089 27.5742L58.9189 27.4895Z" fill="url(#paint8_linear_1349_2850)"/>
<path d="M42.8139 34.5849L42.8274 34.5976H46.9985L50.99 30.8448L51.0798 30.7601H38.7461L42.8139 34.5849Z" fill="url(#paint9_linear_1349_2850)"/>
<path d="M38.1131 30.7601H33.8926V40.1487H38.1131V30.7601Z" fill="url(#paint10_linear_1349_2850)"/>
<path d="M50.8372 19.3741H21.1627L15.306 24.8829L15.2925 24.8998V36.7465L19.2838 40.5037L19.3737 40.5882V26.4906L22.8527 23.2158H49.1472L52.6261 26.4906V40.5882L56.6939 36.7634L56.7074 36.7465V24.8998L50.8551 19.3868L50.8372 19.3741Z" fill="url(#paint11_linear_1349_2850)"/>
<path d="M15.2925 44.6883V53.0148L19.2838 56.772L19.3737 56.8566V40.8508L15.306 44.6756L15.2925 44.6883Z" fill="url(#paint12_linear_1349_2850)"/>
<path d="M52.626 40.8508V56.8566L56.6938 53.0319L56.7073 53.0148V44.6883L52.7159 40.9312L52.626 40.8508Z" fill="url(#paint13_linear_1349_2850)"/>
<path d="M42.1987 42.0232H29.802L21.4598 49.876L21.4463 49.8887V58.8075L25.4377 62.5647L25.5275 62.6493V51.4795L31.4921 45.865H40.5087L46.4733 51.4795V62.6493L50.541 58.8244L50.5545 58.8075V49.8887L42.2167 42.0359L42.1987 42.0232Z" fill="url(#paint14_linear_1349_2850)"/>
<path d="M52.8507 17.9528V12.5202L49.129 9.01269L49.1155 9H43.3442L52.7608 17.8681L52.8507 17.9528Z" fill="url(#paint15_linear_1349_2850)"/>
<path d="M59.278 18.5665L59.26 18.5538H53.4888L62.9099 27.4219L62.9997 27.5066V22.0741L59.278 18.5665Z" fill="url(#paint16_linear_1349_2850)"/>
<defs>
<linearGradient id="paint0_linear_1349_2850" x1="29.6398" y1="71.4449" x2="29.6398" y2="-0.53671" gradientUnits="userSpaceOnUse">
<stop stop-color="#4FCE0D"/>
<stop offset="1" stop-color="#4FEA0D"/>
</linearGradient>
<linearGradient id="paint1_linear_1349_2850" x1="11.0406" y1="71.4451" x2="11.0406" y2="-0.536535" gradientUnits="userSpaceOnUse">
<stop stop-color="#4FCE0D"/>
<stop offset="1" stop-color="#4FCE0D"/>
</linearGradient>
<linearGradient id="paint2_linear_1349_2850" x1="517.227" y1="597.136" x2="517.227" y2="-55.737" gradientUnits="userSpaceOnUse">
<stop stop-color="#4FCE0D"/>
<stop offset="1" stop-color="#4FCE0D"/>
</linearGradient>
<linearGradient id="paint3_linear_1349_2850" x1="1509.72" y1="579.586" x2="1509.72" y2="-73.2873" gradientUnits="userSpaceOnUse">
<stop stop-color="#4FCE0D"/>
<stop offset="1" stop-color="#4FCE0D"/>
</linearGradient>
<linearGradient id="paint4_linear_1349_2850" x1="287.423" y1="2150.03" x2="287.423" y2="-272.145" gradientUnits="userSpaceOnUse">
<stop stop-color="#4FCE0D"/>
<stop offset="1" stop-color="#4FCE0D"/>
</linearGradient>
<linearGradient id="paint5_linear_1349_2850" x1="334.533" y1="1330.34" x2="334.533" y2="-192.795" gradientUnits="userSpaceOnUse">
<stop stop-color="#4FCE0D"/>
<stop offset="1" stop-color="#4FCE0D"/>
</linearGradient>
<linearGradient id="paint6_linear_1349_2850" x1="109.626" y1="1339.89" x2="109.626" y2="-183.242" gradientUnits="userSpaceOnUse">
<stop stop-color="#4FCE0D"/>
<stop offset="1" stop-color="#4FCE0D"/>
</linearGradient>
<linearGradient id="paint7_linear_1349_2850" x1="342.902" y1="2138.87" x2="342.902" y2="-270.352" gradientUnits="userSpaceOnUse">
<stop stop-color="#4FCE0D"/>
<stop offset="1" stop-color="#4FCE0D"/>
</linearGradient>
<linearGradient id="paint8_linear_1349_2850" x1="530.714" y1="3487.57" x2="530.714" y2="-500.935" gradientUnits="userSpaceOnUse">
<stop stop-color="#4FCE0D"/>
<stop offset="1" stop-color="#4FCE0D"/>
</linearGradient>
<linearGradient id="paint9_linear_1349_2850" x1="1024.21" y1="597.136" x2="1024.21" y2="-55.737" gradientUnits="userSpaceOnUse">
<stop stop-color="#4FCE0D"/>
<stop offset="1" stop-color="#4FCE0D"/>
</linearGradient>
<linearGradient id="paint10_linear_1349_2850" x1="287.423" y1="1416.41" x2="287.423" y2="-180.857" gradientUnits="userSpaceOnUse">
<stop stop-color="#4FCE0D"/>
<stop offset="1" stop-color="#4FCE0D"/>
</linearGradient>
<linearGradient id="paint11_linear_1349_2850" x1="2503.08" y1="3150.37" x2="2503.08" y2="-458.792" gradientUnits="userSpaceOnUse">
<stop stop-color="#4FCE0D"/>
<stop offset="1" stop-color="#4FCE0D"/>
</linearGradient>
<linearGradient id="paint12_linear_1349_2850" x1="90.9591" y1="2403.15" x2="90.9591" y2="-319.921" gradientUnits="userSpaceOnUse">
<stop stop-color="#4FCE0D"/>
<stop offset="1" stop-color="#4FCE0D"/>
</linearGradient>
<linearGradient id="paint13_linear_1349_2850" x1="467.282" y1="2403.15" x2="467.282" y2="-319.921" gradientUnits="userSpaceOnUse">
<stop stop-color="#4FCE0D"/>
<stop offset="1" stop-color="#4FCE0D"/>
</linearGradient>
<linearGradient id="paint14_linear_1349_2850" x1="1769.98" y1="3086.22" x2="1769.98" y2="-422.888" gradientUnits="userSpaceOnUse">
<stop stop-color="#4FCE0D"/>
<stop offset="1" stop-color="#4FCE0D"/>
</linearGradient>
<linearGradient id="paint15_linear_1349_2850" x1="870.216" y1="1330.34" x2="870.216" y2="-192.795" gradientUnits="userSpaceOnUse">
<stop stop-color="#4FCE0D"/>
<stop offset="1" stop-color="#4FCE0D"/>
</linearGradient>
<linearGradient id="paint16_linear_1349_2850" x1="1095.51" y1="1339.89" x2="1095.51" y2="-183.242" gradientUnits="userSpaceOnUse">
<stop stop-color="#4FCE0D"/>
<stop offset="1" stop-color="#4FCE0D"/>
</linearGradient>
</defs>
</svg>
