<svg width="128" height="128" viewBox="0 0 128 128" fill="none" xmlns="http://www.w3.org/2000/svg">
<path d="M64 7.68C79.0309 7.68 93.184 13.5314 103.826 24.1737C114.469 34.816 120.32 48.9691 120.32 64C120.32 79.0309 114.469 93.184 103.826 103.826C93.184 114.469 79.0309 120.32 64 120.32C48.9691 120.32 34.816 114.469 24.1737 103.826C13.5314 93.184 7.68 79.0309 7.68 64C7.68 48.9691 13.5314 34.816 24.1737 24.1737C34.816 13.5314 48.9691 7.68 64 7.68ZM64 0C28.672 0 0 28.672 0 64C0 99.328 28.672 128 64 128C99.328 128 128 99.328 128 64C128 28.672 99.328 0 64 0Z" fill="black"/>
<path d="M64.0367 31.8538C72.1556 31.8538 80.311 31.8538 88.4298 31.8538C89.1247 31.8538 89.8196 31.8538 90.4778 31.9635C91.9407 32.1829 92.9281 33.1338 92.9647 34.6332C93.0378 38.5098 93.0378 42.3863 92.9647 46.2629C92.9281 48.1646 91.831 49.0423 89.6367 49.0423C84.8824 49.0789 80.1281 49.0423 75.3738 49.0789C72.7407 49.0789 72.6676 49.152 72.7041 51.7852C72.7041 56.1006 72.3384 55.4423 76.471 55.9909C80.7498 56.5395 84.9921 57.0515 88.9418 58.9898C89.1978 59.0995 89.4173 59.2458 89.6733 59.3555C91.4653 60.3429 92.9647 61.5863 93.0013 63.8538C93.0378 66.1943 91.5018 67.4743 89.6367 68.4618C85.7236 70.5829 81.4447 71.2046 77.1293 71.7898C76.3247 71.8995 75.4836 71.936 74.679 72.0458C72.8504 72.2652 72.7041 72.4115 72.7041 74.2766C72.7041 79.8355 72.7041 85.3943 72.7041 90.9532C72.7041 91.6846 72.7041 92.416 72.5944 93.1475C72.3018 94.9395 71.3876 95.8172 69.559 95.8538C65.8653 95.9269 62.1716 95.9269 58.4413 95.8538C56.6127 95.8172 55.6984 94.9395 55.4058 93.1475C55.2961 92.416 55.2961 91.6846 55.2961 90.9532C55.2961 85.3943 55.2961 79.8355 55.2961 74.2766C55.2961 72.3749 55.1133 72.2652 53.175 72.0823C48.567 71.68 43.959 71.1315 39.7533 69.0469C38.4001 68.3886 37.0836 67.4378 36.023 66.3406C34.4504 64.7315 34.5967 62.8663 36.1327 61.2206C37.8516 59.392 40.0093 58.2583 42.3864 57.7098C46.0436 56.9052 49.7373 56.32 53.431 55.7349C55.0767 55.4789 55.2961 55.3692 55.3327 53.7235C55.3327 52.8092 55.3327 51.8949 55.3327 50.9806C55.2961 49.3715 55.0401 49.0789 53.3578 49.0789C48.9327 49.0423 44.5076 49.0789 40.0458 49.0789C35.4378 49.0789 34.9624 48.64 34.9624 43.9589C34.9624 41.1795 34.9624 38.4 34.9624 35.6206C34.999 32.9143 35.9864 31.8903 38.6927 31.8903C47.1407 31.8538 55.5887 31.8903 64.0367 31.8538ZM64.0001 37.5223C57.4173 37.5223 50.8344 37.5223 44.2516 37.5223C40.1556 37.5223 40.3384 37.0835 40.375 41.472C40.375 43.3738 40.631 43.5932 42.5327 43.5932C47.287 43.5932 52.0413 43.5932 56.7956 43.5932C60.0504 43.5932 60.9281 44.4709 60.9281 47.7623C60.9281 52.9189 60.9281 58.0755 60.9281 63.232C60.9281 66.9258 60.9281 66.9258 64.5853 66.8892C66.8893 66.8892 67.0356 66.7429 67.0356 64.3658C67.0356 58.6606 67.0356 52.9555 67.0356 47.2503C67.0356 44.6172 68.0596 43.6298 70.7293 43.5932C75.1178 43.5566 79.5064 43.5932 83.895 43.5932C87.6253 43.5932 87.6253 43.5932 87.5887 39.8629C87.5521 37.7052 87.4058 37.5223 85.2481 37.5223C78.1533 37.5223 71.095 37.5223 64.0001 37.5223ZM60.9281 81.1155C60.9281 83.5658 60.9281 86.0526 60.9281 88.5029C60.9281 89.6366 61.367 90.2218 62.5373 90.1852C63.5247 90.1486 64.5487 90.1852 65.5361 90.1852C66.487 90.1852 66.9624 89.7098 66.9624 88.7589C66.9624 83.7852 66.9624 78.8115 66.9624 73.8378C66.9624 72.8138 66.4138 72.3383 65.4264 72.3749C64.6218 72.4115 63.7807 72.448 62.9761 72.4115C61.2573 72.3383 60.9281 72.5943 60.8916 74.2766C60.9281 76.544 60.9281 78.848 60.9281 81.1155ZM42.1304 63.6343C42.1304 63.7806 42.1304 63.9269 42.0938 64.0732C42.6058 64.2926 43.1178 64.5852 43.6664 64.6949C46.519 65.2435 49.4081 65.8652 52.2973 66.2675C55.223 66.7063 55.2596 66.6332 55.2596 63.5978C55.2596 63.3418 55.223 63.0492 55.2596 62.7932C55.3327 61.5863 54.7841 61.1109 53.5773 61.3303C50.1761 61.952 46.7384 62.5372 43.3373 63.1589C42.935 63.1955 42.5327 63.4515 42.1304 63.6343ZM85.8333 64.0732C85.8333 63.9269 85.8333 63.7806 85.8333 63.6343C85.3213 63.4149 84.8093 63.1223 84.2607 63.0126C81.4081 62.464 78.519 61.8423 75.6298 61.4035C72.7041 60.9646 72.6676 61.0378 72.7041 64.0732C72.7041 64.3292 72.7407 64.6218 72.7041 64.8778C72.631 66.0846 73.1796 66.56 74.3864 66.3406C77.751 65.7555 81.1156 65.1703 84.4801 64.5486C84.9556 64.5486 85.3944 64.256 85.8333 64.0732Z" fill="black"/>
</svg>
