<svg width="72" height="72" viewBox="0 0 72 72" fill="none" xmlns="http://www.w3.org/2000/svg">
<circle cx="36" cy="36" r="36" fill="#0F1D40"/>
<path d="M53.1222 31.7954L46.0086 44.3289C43.8073 48.2083 39.7387 50.5973 35.3359 50.5973V50.5925L38.892 44.3289L42.4479 38.0654L46.0039 31.7986L49.563 25.5319L53.1222 31.7954Z" fill="url(#paint0_linear_1349_2851)"/>
<path d="M53.1222 31.7954L46.0086 44.3289C43.8073 48.2083 39.7387 50.5973 35.3359 50.5973V50.5925L38.892 44.3289L42.4479 38.0654L46.0039 31.7986L49.563 25.5319L53.1222 31.7954Z" fill="url(#paint1_linear_1349_2851)"/>
<path d="M63.7942 25.5319L60.2382 31.7986L56.6791 38.0654L53.1231 44.3289L53.12 44.3338C50.9218 48.21 46.8548 50.5973 42.4553 50.5973H35.3369C39.7381 50.5973 43.8082 48.2066 46.0096 44.3289L53.1231 31.7954L49.5672 25.5319H63.7942Z" fill="url(#paint2_linear_1349_2851)"/>
<path d="M49.5677 25.5319H21.1104L23.3648 21.5593L24.6647 19.2667L38.895 19.2634C43.2527 19.2634 47.286 21.6051 49.5018 25.4142L49.5677 25.5319Z" fill="url(#paint3_linear_1349_2851)"/>
<path d="M49.5677 25.5319H21.1104L23.3648 21.5593L24.6647 19.2667L38.895 19.2634C43.2527 19.2634 47.286 21.6051 49.5018 25.4142L49.5677 25.5319Z" fill="url(#paint4_linear_1349_2851)"/>
<path d="M49.5033 25.4159C47.2875 21.6052 43.2544 19.2651 38.8966 19.2651L24.6663 19.2684L23.3663 21.5611L21.1103 25.5303L17.5544 19.2668L14 13.0033L21.1103 13L28.2238 13.0033H35.347C35.8966 13.0033 36.4397 13.0392 36.9747 13.1111C37.2447 13.1471 37.5099 13.1912 37.775 13.2484C37.8858 13.2696 37.9967 13.2941 38.1076 13.3219C38.3936 13.3873 38.6781 13.4641 38.9576 13.5523C39.2082 13.6308 39.4558 13.7157 39.7016 13.8121C39.843 13.8661 39.9829 13.9216 40.1225 13.9837C40.4745 14.1324 40.8184 14.3024 41.1526 14.4838C41.1558 14.4854 41.1573 14.4887 41.159 14.4854C41.7439 14.8057 42.2999 15.1717 42.827 15.5802C42.9346 15.6652 43.0407 15.7486 43.1451 15.8352C43.3491 16.0084 43.5499 16.1849 43.7445 16.3695C43.8409 16.4627 43.9372 16.5574 44.0336 16.6539C44.7922 17.4235 45.4589 18.2994 46.0085 19.2668H46.0102L49.5033 25.4159Z" fill="url(#paint5_linear_1349_2851)"/>
<path d="M21.1089 38.064L28.2273 50.5975H28.224L21.1089 38.064Z" fill="url(#paint6_linear_1349_2851)"/>
<path d="M35.3375 50.5925V50.5973H28.2239L21.1088 38.0638C18.9299 34.2237 18.9074 29.5028 21.0445 25.6463L21.1088 25.5319L22.412 27.8262L24.6664 31.7986L28.2256 38.0654L31.7814 44.3272L35.3375 50.5925Z" fill="url(#paint7_linear_1349_2851)"/>
<path d="M35.3375 50.5925V50.5973H28.2239L21.1088 38.0638C18.9299 34.2237 18.9074 29.5028 21.0445 25.6463L21.1088 25.5319L22.412 27.8262L24.6664 31.7986L28.2256 38.0654L31.7814 44.3272L35.3375 50.5925Z" fill="url(#paint8_linear_1349_2851)"/>
<path d="M35.337 50.5975L28.2234 63.1229L24.6675 56.8609L22.4902 53.029L21.1099 50.5975L17.5508 44.3291L17.5492 44.3257C17.3419 43.963 17.1571 43.5904 16.9884 43.2146C16.8229 42.8371 16.6734 42.453 16.5449 42.0642C16.5095 41.9547 16.4726 41.8436 16.442 41.7341C16.3987 41.5919 16.3585 41.4481 16.3199 41.3059C16.1753 40.7553 16.0676 40.1948 15.9969 39.631C15.9825 39.5133 15.9712 39.3989 15.9584 39.2813C15.9471 39.1587 15.9375 39.0346 15.9295 38.912C15.9262 38.8957 15.9262 38.876 15.9262 38.8564C15.9166 38.729 15.9102 38.6015 15.907 38.4741V38.4692C15.9021 38.3449 15.8989 38.2224 15.8989 38.0966C15.8973 36.7354 16.111 35.3741 16.5449 34.0686C16.6317 33.8087 16.7248 33.5521 16.8293 33.2972C16.8791 33.1698 16.9353 33.0423 16.99 32.9181C17.1025 32.6665 17.223 32.4165 17.3515 32.1714C17.4158 32.0488 17.4817 31.9263 17.5508 31.8069V31.802L21.0425 25.6512C18.907 29.5077 18.9278 34.2287 21.1067 38.0688L28.2219 50.6024H35.337V50.5975Z" fill="url(#paint9_linear_1349_2851)"/>
<defs>
<linearGradient id="paint0_linear_1349_2851" x1="61.1086" y1="23.5335" x2="33.2305" y2="47.4988" gradientUnits="userSpaceOnUse">
<stop stop-color="#02F0FE"/>
<stop offset="1" stop-color="#4D7EFE"/>
</linearGradient>
<linearGradient id="paint1_linear_1349_2851" x1="51.1876" y1="29.7002" x2="36.9208" y2="51.0001" gradientUnits="userSpaceOnUse">
<stop stop-color="#4D4AFE"/>
<stop offset="1" stop-color="#4D7EFE" stop-opacity="0"/>
</linearGradient>
<linearGradient id="paint2_linear_1349_2851" x1="62.6492" y1="25.3264" x2="34.771" y2="49.2918" gradientUnits="userSpaceOnUse">
<stop stop-color="#02F0FE"/>
<stop offset="1" stop-color="#4D7EFE"/>
</linearGradient>
<linearGradient id="paint3_linear_1349_2851" x1="14.2972" y1="16.8051" x2="48.1178" y2="27.7603" gradientUnits="userSpaceOnUse">
<stop stop-color="#02F0FE"/>
<stop offset="1" stop-color="#4D7EFE"/>
</linearGradient>
<linearGradient id="paint4_linear_1349_2851" x1="20.7715" y1="22.4498" x2="48.8168" y2="22.3662" gradientUnits="userSpaceOnUse">
<stop stop-color="#4D4AFE"/>
<stop offset="1" stop-color="#4D7EFE" stop-opacity="0"/>
</linearGradient>
<linearGradient id="paint5_linear_1349_2851" x1="15.0388" y1="14.5155" x2="48.8594" y2="25.4706" gradientUnits="userSpaceOnUse">
<stop stop-color="#02F0FE"/>
<stop offset="1" stop-color="#4D7EFE"/>
</linearGradient>
<linearGradient id="paint6_linear_1349_2851" x1="28.5143" y1="63.0484" x2="20.6152" y2="25.8803" gradientUnits="userSpaceOnUse">
<stop stop-color="#02F0FE"/>
<stop offset="1" stop-color="#4D7EFE"/>
</linearGradient>
<linearGradient id="paint7_linear_1349_2851" x1="31.6197" y1="62.3882" x2="23.7206" y2="25.2202" gradientUnits="userSpaceOnUse">
<stop stop-color="#02F0FE"/>
<stop offset="1" stop-color="#4D7EFE"/>
</linearGradient>
<linearGradient id="paint8_linear_1349_2851" x1="32.8484" y1="52.4964" x2="18.2845" y2="27.6273" gradientUnits="userSpaceOnUse">
<stop stop-color="#4D4AFE"/>
<stop offset="1" stop-color="#4D7EFE" stop-opacity="0"/>
</linearGradient>
<linearGradient id="paint9_linear_1349_2851" x1="29.3001" y1="62.8938" x2="21.4011" y2="25.7257" gradientUnits="userSpaceOnUse">
<stop stop-color="#02F0FE"/>
<stop offset="1" stop-color="#4D7EFE"/>
</linearGradient>
</defs>
</svg>
