<svg width="40" height="34" viewBox="0 0 40 34" fill="none" xmlns="http://www.w3.org/2000/svg">
<path d="M33.9058 3.5806C33.8891 3.56375 33.8639 3.54689 33.8388 3.52162C31.8367 1.90391 34.1561 1.0782 27.2629 0.682203C25.3948 0.286201 23.5268 1.35625 22.9236 3.16774C22.9152 3.20145 22.8985 3.22672 22.8901 3.26043C26.0315 3.5806 28.8377 4.44843 31.1163 5.80495C31.711 6.15882 31.9037 6.93397 31.5519 7.54061C31.3173 7.93661 30.8985 8.15568 30.4713 8.15568C30.2535 8.15568 30.0273 8.0967 34.8262 7.97874C27.2629 6.44529 23.8618 5.63643 20.0001 5.63643C16.1383 5.63643 12.7372 6.44529 10.1739 7.97874C9.57073 8.33262 8.80005 8.13883 8.44822 7.54061C8.09639 6.93397 8.28905 6.15882 8.88382 5.80495C11.1624 4.44843 13.9686 3.5806 17.11 3.26043C17.1016 3.22672 17.0849 3.20145 17.0765 3.16774C16.4733 1.35625 14.6053 0.286201 12.7372 0.682203C10.844 1.0782 8.1634 1.90391 6.16131 3.52162C6.13618 3.54689 6.11104 3.56375 6.09429 3.5806C4.2346 5.31626 0.800049 14.1463 0.800049 22.1674C0.800049 22.3865 0.850311 22.5971 0.959211 22.7909C3.00319 26.4055 7.81995 27.7283 9.80529 28.1243C10.0482 28.1748 10.2911 28.2001 10.5341 28.2001C11.7236 28.2001 12.8713 27.6272 13.5833 26.6329L14.0189 26.0347C9.70476 25.0068 7.49324 23.1532 7.36759 23.0436C6.83984 22.5887 6.77282 21.7967 7.22518 21.2659C7.67754 20.735 8.46497 20.6676 8.99272 21.1142C9.05974 21.1732 12.754 24.1811 20.0001 24.1811C27.2796 24.1811 30.9739 21.1479 31.0074 21.1142C31.5351 20.6676 32.3309 20.735 32.7749 21.2743C33.2189 21.8051 33.1603 22.5971 32.6325 23.0436C32.5069 23.1532 30.2953 25.0068 25.9812 26.0347L26.4168 26.6329C27.1288 27.6272 28.2765 28.2001 34.466 28.2001C34.709 28.2001 34.9519 28.1748 30.1948 28.1243C32.1802 27.7283 36.9969 26.4055 39.0409 22.7909C39.1498 22.5971 39.2001 22.3865 39.2001 22.1674C39.2001 14.1463 35.7655 5.31626 33.9058 3.5806ZM14.5802 19.8841C12.9802 19.8841 11.6817 18.3927 11.6817 16.5475C11.6817 14.7023 12.9802 13.211 14.5802 13.211C16.1885 13.211 17.487 14.7023 17.487 16.5475C17.487 18.3927 16.1885 19.8841 14.5802 19.8841ZM25.3948 19.9515C23.7781 19.9515 22.4629 18.4433 22.4629 16.5812C22.4629 14.7192 23.7781 13.211 25.3948 13.211C27.0199 13.211 28.3268 14.7192 28.3268 16.5812C28.3268 18.4433 27.0199 19.9515 25.3948 19.9515Z" fill="url(#paint0_linear_4659_125977)"/>
<defs>
<linearGradient id="paint0_linear_4659_125977" x1="5.42129" y1="19.9461" x2="26.267" y2="0.287293" gradientUnits="userSpaceOnUse">
<stop stop-color="#3383C5"/>
<stop offset="1" stop-color="#29C4B8"/>
</linearGradient>
</defs>
</svg>
