<svg width="40" height="40" viewBox="0 0 40 40" fill="none" xmlns="http://www.w3.org/2000/svg">
<path d="M20 0.800049C9.39685 0.800049 0.800049 9.53146 0.800049 20.3007C0.800049 29.4384 6.99525 37.0842 15.3472 39.2001C15.2576 38.9368 15.2 38.6313 15.2 38.2526V34.9197C14.4208 34.9197 13.1152 34.9197 12.7872 34.9197C11.4736 34.9197 10.3056 34.346 9.73925 33.28C9.11045 32.0953 9.00165 30.2834 7.44325 29.1751C6.98085 28.8062 7.33285 28.3853 7.86565 28.4422C8.84965 28.725 9.66565 29.4107 10.4336 30.428C11.1984 31.4469 11.5584 31.6777 12.9872 31.6777C13.68 31.6777 14.7168 31.6371 15.6928 31.481C16.2176 30.1274 17.1248 28.881 18.2336 28.2927C11.84 27.6248 8.78885 24.3942 8.78885 20.0082C8.78885 18.1199 9.58085 16.2933 10.9264 14.7544C10.4848 13.2268 9.92965 10.1116 11.096 8.92531C13.9728 8.92531 15.712 10.8201 16.1296 11.332C17.5632 10.8331 19.1376 10.5504 20.792 10.5504C22.4496 10.5504 24.0304 10.8331 25.4672 11.3353C25.88 10.8266 27.6209 8.92531 30.5041 8.92531C31.6753 10.1132 31.1136 13.2415 30.6672 14.7658C32.0048 16.3014 32.7921 18.1231 32.7921 20.0082C32.7921 24.3909 29.7456 27.6199 23.3616 28.2911C25.1184 29.2222 26.4 31.8386 26.4 33.8098V38.2526C26.4 38.4217 26.3632 38.5435 26.344 38.6882C33.8256 36.0247 39.2 28.8095 39.2 20.3007C39.2 9.53146 30.6032 0.800049 20 0.800049Z" fill="url(#paint0_linear_4659_125973)"/>
<defs>
<linearGradient id="paint0_linear_4659_125973" x1="5.42129" y1="27.7162" x2="32.4076" y2="9.42416" gradientUnits="userSpaceOnUse">
<stop stop-color="#3383C5"/>
<stop offset="1" stop-color="#29C4B8"/>
</linearGradient>
</defs>
</svg>
