<svg width="44" height="32" viewBox="0 0 44 32" fill="none" xmlns="http://www.w3.org/2000/svg">
<path d="M12.6181 0C9.375 0.00747186 6.26733 1.27505 3.97679 3.52468C1.68626 5.7743 0.399902 8.82228 0.399902 12C0.399902 15.1777 1.68626 18.2257 3.97679 20.4753C6.26733 22.7249 9.375 23.9925 12.6181 24C15.8612 23.9925 18.9689 22.7249 21.2594 20.4753C23.55 18.2257 24.8363 15.1777 24.8363 12C24.8363 8.82228 23.55 5.7743 21.2594 3.52468C18.9689 1.27505 15.8612 0.00747186 12.6181 0ZM31.7068 0.705801C30.0851 0.71305 28.5312 1.90617 27.3859 4.02346C26.2406 6.14074 25.5974 9.00933 25.5974 12C25.5974 14.9907 26.2406 17.8593 27.3859 19.9765C28.5312 22.0938 30.0851 23.2869 31.7068 23.2942C33.3284 23.2869 34.8824 22.0938 36.0277 19.9765C37.173 17.8593 37.8162 14.9907 37.8162 12C37.8162 9.00933 37.173 6.14074 36.0277 4.02346C34.8824 1.90617 33.3284 0.71305 31.7068 0.705801ZM41.0724 1.4116C40.7408 1.40812 40.4123 1.67942 40.1057 2.20998C39.7991 2.74053 39.5204 3.51991 39.2856 4.50348C39.0509 5.48705 38.8646 6.65549 38.7375 7.94186C38.6104 9.22824 38.545 10.6073 38.545 12C38.545 13.3927 38.6104 14.7718 38.7375 16.0581C38.8646 17.3445 39.0509 18.5129 39.2856 19.4965C39.5204 20.4801 39.7991 21.2595 40.1057 21.79C40.4123 22.3206 40.7408 22.5919 41.0724 22.5884C41.4041 22.5919 41.7326 22.3206 42.0392 21.79C42.3458 21.2595 42.6245 20.4801 42.8592 19.4965C43.094 18.5129 43.2803 17.3445 43.4074 16.0581C43.5345 14.7718 43.5999 13.3927 43.5999 12C43.5999 10.6073 43.5345 9.22824 43.4074 7.94186C43.2803 6.65549 43.094 5.48705 42.8592 4.50348C42.6245 3.51991 42.3458 2.74053 42.0392 2.20998C41.7326 1.67942 41.4041 1.40812 41.0724 1.4116Z" fill="url(#paint0_linear_4659_125979)"/>
<defs>
<linearGradient id="paint0_linear_4659_125979" x1="5.5988" y1="16.8226" x2="23.4032" y2="-4.90035" gradientUnits="userSpaceOnUse">
<stop stop-color="#3383C5"/>
<stop offset="1" stop-color="#29C4B8"/>
</linearGradient>
</defs>
</svg>
