<svg width="40" height="40" viewBox="0 0 40 40" fill="none" xmlns="http://www.w3.org/2000/svg">
<path d="M7.22715 5.6508L31.7359 4.42052L23.4 0.199951L2.43515 0.956927L7.22715 5.6508ZM4.99995 7.90136L0.199951 3.19964V24.326C0.199951 25.2601 0.478351 26.1612 1.00635 26.9339L4.99995 32.8032V7.90136ZM8.19995 8.74139V33.7999L33.7999 32.2327V7.45626L8.19995 8.74139ZM29.7327 13.2707C28.8832 13.4431 28.8832 13.4431 28.8832 14.2816C28.8832 18.7858 28.8799 23.2901 28.8911 27.7943C28.8911 28.1077 28.8047 28.2989 28.5007 28.393C27.9551 28.5622 27.4208 28.7817 26.864 28.8961C25.9728 29.0779 25.1888 28.8381 24.6544 28.0889C23.9167 27.0561 23.1983 26.0108 22.4975 24.9545C20.8687 22.4986 19.2544 20.0318 17.6352 17.5696C17.6 17.5164 17.5599 17.4678 17.4671 17.3471C17.448 17.5148 17.4272 17.6151 17.4272 17.7154C17.4256 20.7809 17.4288 23.848 17.4191 26.9135C17.4176 27.1846 17.5072 27.2943 17.7744 27.3445C18.3743 27.4573 18.9695 27.5984 19.5616 27.7269C19.4895 28.3632 19.1296 28.7581 18.4639 28.8663C17.976 28.9447 17.4767 28.9556 16.9807 28.9838C15.7808 29.0544 14.5776 29.1076 13.3792 29.1907C13.0304 29.2158 12.96 29.0732 13.0192 28.7942C13.0928 28.4463 13.2736 28.1939 13.6576 28.103C14.0352 28.0137 14.408 27.8977 14.7824 27.7943C14.7824 23.3841 14.7824 18.9974 14.7824 14.5794C14.2128 14.5308 13.6559 14.4822 13.1039 14.4352C12.8847 13.6766 13.368 12.9761 14.1856 12.9118C15.6576 12.7958 17.1376 12.7504 18.6047 12.5921C19.232 12.5231 19.5264 12.7488 19.8399 13.219C21.9167 16.3331 24.0208 19.43 26.1167 22.5315C26.1936 22.6459 26.2783 22.7572 26.4287 22.9688C26.4287 19.8327 26.4287 16.8127 26.4287 13.7691C25.9167 13.7111 25.4271 13.6421 24.9343 13.6061C24.6655 13.5873 24.5999 13.4682 24.6303 13.2362C24.6959 12.7394 25.0943 12.2881 25.6287 12.2489C27.2543 12.1298 28.8848 12.0483 30.5055 11.9542C30.7407 12.7378 30.5135 13.1124 29.7327 13.2707Z" fill="url(#paint0_linear_4659_125971)"/>
<defs>
<linearGradient id="paint0_linear_4659_125971" x1="4.24354" y1="23.7516" x2="27.8566" y2="7.74605" gradientUnits="userSpaceOnUse">
<stop stop-color="#3383C5"/>
<stop offset="1" stop-color="#29C4B8"/>
</linearGradient>
</defs>
</svg>
