<svg width="34" height="32" viewBox="0 0 34 32" fill="none" xmlns="http://www.w3.org/2000/svg">
<path d="M33.1655 1.02901C32.5923 0.532925 31.6921 0.461945 30.7613 0.843366H30.7598C29.7809 1.24429 3.04947 12.9474 1.96126 13.4256C1.76334 13.4958 0.0347399 14.1541 0.212796 15.6205C0.371748 16.9426 1.76105 17.4902 1.9307 17.5534L8.72664 19.9285C9.17752 21.4604 10.8396 27.1123 11.2072 28.3197C11.4365 29.0724 11.8102 30.0615 12.4651 30.2651C13.0397 30.4913 13.6114 30.2846 13.9812 29.9882L18.1361 26.0546L24.8434 31.3937L25.0031 31.4912C25.4586 31.6971 25.8949 31.8001 26.3114 31.8001C26.6332 31.8001 26.9419 31.7385 27.2369 31.6152C28.2418 31.194 28.6437 30.2167 28.6858 30.1059L33.6958 3.52579C34.0015 2.10619 33.5766 1.38391 33.1655 1.02901ZM14.7202 20.8785L12.4276 27.1185L10.135 19.3185L27.7114 6.05846L14.7202 20.8785Z" fill="url(#paint0_linear_4659_125975)"/>
<defs>
<linearGradient id="paint0_linear_4659_125975" x1="4.24354" y1="22.4694" x2="26.7258" y2="6.05815" gradientUnits="userSpaceOnUse">
<stop stop-color="#3383C5"/>
<stop offset="1" stop-color="#29C4B8"/>
</linearGradient>
</defs>
</svg>
