<svg width="40" height="40" viewBox="0 0 40 40" fill="none" xmlns="http://www.w3.org/2000/svg">
<path d="M39.2001 3.89301C37.7845 4.52149 36.2672 4.94346 34.672 5.135C36.3001 4.15936 37.551 2.6151 38.1376 0.777552C36.6173 1.67837 34.9264 2.33378 33.1337 2.68693C31.6972 1.15464 29.6502 0.199951 27.3847 0.199951C23.0332 0.199951 19.5047 3.72541 19.5047 8.07687C19.5047 8.69338 19.5766 9.29492 19.7113 9.87253C13.1631 9.54332 7.36016 6.40692 3.47258 1.63947C2.79322 2.80664 2.40716 4.15936 2.40716 5.60187C2.40716 8.33425 3.79579 10.7464 5.91167 12.162C4.6188 12.1201 3.40374 11.7639 2.34132 11.1744C2.34132 11.2073 2.34132 11.2402 2.34132 11.2731C2.34132 15.0919 5.05873 18.2732 8.65902 19.0004C8.00061 19.18 7.3033 19.2758 6.58504 19.2758C6.07627 19.2758 5.58247 19.2279 5.10063 19.1321C6.1062 22.2595 9.01515 24.543 12.4598 24.6058C9.76633 26.7187 6.36956 27.9757 2.6765 27.9757C2.03905 27.9757 1.41356 27.9398 0.800049 27.865C4.28361 30.1035 8.42558 31.4054 12.8758 31.4054C27.3667 31.4054 35.2915 19.4015 35.2915 8.99266C35.2915 8.65148 35.2825 8.30732 35.2706 7.97213C36.8088 6.86182 38.1436 5.47318 39.2001 3.89301Z" fill="url(#paint0_linear_4659_125969)"/>
<defs>
<linearGradient id="paint0_linear_4659_125969" x1="5.42129" y1="22.0731" x2="28.6474" y2="2.70016" gradientUnits="userSpaceOnUse">
<stop stop-color="#3383C5"/>
<stop offset="1" stop-color="#29C4B8"/>
</linearGradient>
</defs>
</svg>
