<svg width="32" height="32" viewBox="0 0 32 32" fill="none" xmlns="http://www.w3.org/2000/svg">
<path d="M16 16V4" stroke="#9CFFFD" stroke-width="2" stroke-linecap="round" stroke-linejoin="round"/>
<path d="M26.3873 10L5.6123 22" stroke="#9CFFFD" stroke-width="2" stroke-linecap="round" stroke-linejoin="round"/>
<path d="M16.0004 4C18.1031 4.00024 20.1688 4.55298 21.9907 5.60287C23.8125 6.65275 25.3265 8.16292 26.381 9.9821C27.4355 11.8013 27.9934 13.8656 27.999 15.9683C28.0045 18.071 27.4575 20.1382 26.4126 21.963C25.3678 23.7877 23.8618 25.3058 22.0455 26.3653C20.2292 27.4248 18.1665 27.9885 16.0638 27.9998C13.9611 28.0112 11.8924 27.4698 10.0648 26.43C8.23717 25.3901 6.71488 23.8883 5.65039 22.075" stroke="#9CFFFD" stroke-width="2" stroke-linecap="round" stroke-linejoin="round"/>
<path d="M11 13.2625L4.0625 17.275C4.025 16.85 4 16.425 4 16C3.99928 13.7017 4.65856 11.4516 5.89947 9.51709C7.14038 7.5826 8.91072 6.04514 11 5.08752V13.2625Z" stroke="#9CFFFD" stroke-width="2" stroke-linecap="round" stroke-linejoin="round"/>
</svg>
