<svg width="29" height="28" viewBox="0 0 29 28" fill="none" xmlns="http://www.w3.org/2000/svg">
<path d="M9.71428 4.99615V3.00031H7.53235" stroke="#9CFFFD" stroke-linecap="round" stroke-linejoin="round"/>
<path d="M8.17237 9.58627C7.80072 9.24682 7.50588 8.84367 7.30471 8.39989C7.10354 7.95611 7 7.48041 7 6.99999C7 6.51958 7.10354 6.04388 7.30471 5.6001C7.50588 5.15632 7.80072 4.75317 8.17237 4.41372L9.71336 2.99999" stroke="#9CFFFD" stroke-linecap="round" stroke-linejoin="round"/>
<path d="M12.2869 9.00416V11H14.4688" stroke="#9CFFFD" stroke-linecap="round" stroke-linejoin="round"/>
<path d="M13.8279 4.41372C14.1995 4.75318 14.4943 5.15633 14.6955 5.6001C14.8967 6.04388 15.0002 6.51958 15.0002 7C15.0002 7.48041 14.8967 7.95612 14.6955 8.3999C14.4943 8.84367 14.1995 9.24682 13.8279 9.58628L12.2869 11" stroke="#9CFFFD" stroke-linecap="round" stroke-linejoin="round"/>
<path d="M24.5 24.75H3.5V7.25" stroke="#9CFFFD" stroke-width="2" stroke-linecap="round" stroke-linejoin="round"/>
<path d="M22.75 9L14 17.75L10.5 14.25L3.5 21.25" stroke="#9CFFFD" stroke-width="2" stroke-linecap="round" stroke-linejoin="round"/>
<path d="M22.75 13.375V9H18.375" stroke="#9CFFFD" stroke-width="2" stroke-linecap="round" stroke-linejoin="round"/>
</svg>
