<svg width="40" height="22" viewBox="0 0 40 22" fill="none" xmlns="http://www.w3.org/2000/svg">
<path d="M23.6725 0.969774C23.8007 0.722995 24.0057 0.52526 24.2564 0.406585C24.6008 0.245215 24.9494 0.2289 25.2702 0.459255C25.3786 0.538283 25.465 0.643893 25.5213 0.765958C25.8103 1.4016 26.0979 2.03839 26.362 2.68702C26.7861 3.73473 27.3608 4.70853 27.8303 5.73503C28.4972 7.19499 29.1697 8.65159 29.8477 10.1049C30.2362 10.9371 30.6041 11.7879 31.0919 12.5719C31.2254 12.7785 31.3715 12.9765 31.5294 13.165C31.596 13.242 31.6789 13.3034 31.7719 13.3445C32.4837 13.675 33.2503 13.7383 34.0147 13.7867C34.4046 13.8119 34.7872 13.7586 35.1746 13.7584C35.9166 13.7597 36.6584 13.761 37.3964 13.7868C37.8853 13.8046 38.3738 13.8617 38.8603 13.9134C39.0483 13.9401 39.2343 13.9797 39.4169 14.0321C39.4931 14.0538 39.5667 14.0841 39.6362 14.1223C40.0329 14.3283 40.1123 14.6736 39.8391 15.0244C39.6112 15.3204 39.3167 15.5578 38.9795 15.7171C38.2607 16.0448 37.5114 16.3003 36.7421 16.4796C35.9838 16.6684 35.231 16.8789 34.4836 17.1109C33.3404 17.4771 32.1684 17.7469 30.9799 17.9176C30.1889 18.021 29.3917 18.0717 28.5936 18.0692C27.8761 18.072 27.1596 18.017 26.4401 17.9905C25.3425 17.9496 24.2482 17.8669 23.152 17.7762C21.5473 17.6561 19.9354 17.8391 18.3997 18.3158C17.3629 18.6234 16.3221 18.92 15.2889 19.2543C14.8022 19.4116 14.3315 19.6391 13.8672 19.8436C13.2535 20.1117 12.6465 20.4015 12.0271 20.661C10.5189 21.2998 8.94825 21.7043 7.29211 21.71C6.42265 21.7309 5.55281 21.6755 4.69242 21.5448C4.17862 21.4546 3.65951 21.4137 3.1552 21.2352C1.53982 20.654 0.46318 19.565 0.0806436 17.862C-0.0230061 17.4189 -0.0267914 16.9583 0.0695761 16.5142C0.165943 16.07 0.360031 15.6535 0.637601 15.295C0.909629 14.931 1.17196 14.5476 1.465 14.1951C2.05016 13.4763 2.77828 12.8883 3.60298 12.4684C4.37033 12.0722 5.20924 11.8341 6.07046 11.7685C6.62113 11.7154 7.17589 11.7183 7.72635 11.7771C7.91387 11.7979 8.09833 11.8474 8.28473 11.8788C8.37138 11.8884 8.45542 11.8978 8.56405 11.91C8.58727 11.8416 8.60488 11.7716 8.61668 11.7002C8.65899 11.0989 8.69611 10.4971 8.73582 9.89549C8.75284 9.73707 8.76066 9.57887 8.76718 9.42055C8.78038 9.10253 8.78309 8.78472 8.80262 8.46885C8.84674 7.76519 8.83915 7.05579 8.9922 6.36169C9.01372 6.25257 9.02561 6.14173 9.02776 6.03045C9.05039 5.47824 9.24426 4.97667 9.4761 4.48725C9.49894 4.43675 9.52603 4.38832 9.55708 4.34247C10.0008 3.73498 10.5409 3.20508 11.1559 2.77386C12.3473 1.93397 13.6725 1.30397 15.0753 0.910797C16.0563 0.63312 17.0598 0.442488 18.0745 0.341096C19.0117 0.257506 19.9557 0.289588 20.8858 0.436622C21.2063 0.48685 21.5299 0.53217 21.8482 0.554534C22.4013 0.591341 22.9459 0.71106 23.4642 0.909732C23.5285 0.932677 23.5899 0.946097 23.6725 0.969774ZM9.29664 12.0956C9.39818 12.1372 9.4976 12.1863 9.60285 12.2179C10.379 12.4569 11.1562 12.6949 11.9342 12.9315L12.0485 12.9522C11.9667 12.8883 11.8729 12.8416 11.7727 12.815C11.1912 12.6357 10.6126 12.4554 10.029 12.2825C9.78816 12.2109 9.54117 12.1584 9.29779 12.097C9.25025 11.7842 9.27723 11.728 9.55921 11.6003C9.68183 11.5431 9.80589 11.4965 9.92739 11.4377C11.8067 10.6041 13.7774 9.99504 15.7995 9.62299C17.3362 9.33037 18.8896 9.1332 20.4511 9.03268C21.7913 8.93625 23.1365 8.92743 24.4783 9.00621C25.5136 9.05442 26.5425 9.19874 27.552 9.43734C28.0146 9.54346 28.4665 9.69284 28.9017 9.88376C29.0566 9.95049 29.1828 10.0704 29.2581 10.2219C29.4652 10.6328 29.6847 11.0386 29.9001 11.4464L30.8679 13.2804C30.9028 13.3461 30.969 13.4113 30.8899 13.5273C30.7201 13.4743 30.5396 13.4252 30.3644 13.3622C29.4601 13.0454 28.525 12.8265 27.575 12.7092C26.6361 12.5807 25.6882 12.4986 24.7422 12.4364C23.9947 12.3885 23.2423 12.4005 22.4917 12.3943C22.0416 12.3794 21.5912 12.3884 21.1422 12.4212C20.3088 12.5043 19.48 12.63 18.6498 12.7319L14.5855 13.2629C14.5404 13.2684 14.4962 13.278 14.4523 13.2849L14.447 13.3343C15.0536 13.411 15.6528 13.5403 16.2376 13.7207C15.8697 13.6981 15.5043 13.6521 15.1376 13.6177C14.7709 13.5833 14.3985 13.5654 14.027 13.5279C13.6554 13.4904 13.3202 13.3702 12.9513 13.4184C13.0269 13.4749 13.1101 13.5204 13.1985 13.5538C13.9032 13.8376 14.6234 14.0807 15.3555 14.2822C16.3593 14.5375 17.3557 14.8261 18.3535 15.1018C18.712 15.1997 19.0669 15.3195 19.4318 15.3825C20.0228 15.4853 20.6194 15.5598 21.2156 15.6263C21.6398 15.6736 22.0661 15.7002 22.4918 15.7333C22.8397 15.7603 23.1845 15.779 23.5312 15.8045C24.3839 15.8708 25.2367 15.8634 26.09 15.8509C27.4258 15.8343 28.758 15.7136 30.0746 15.4897C30.5243 15.4085 30.9667 15.2857 31.4091 15.1641C31.8135 15.0542 32.2058 14.91 32.6092 14.7985C33.2992 14.6126 34.0053 14.6914 34.7095 14.7384C34.8902 14.7494 35.0696 14.7852 35.25 14.8119C35.4844 14.8473 35.7162 14.8941 35.9518 14.9178C36.4381 14.9721 36.9267 15.0162 37.4158 15.0444C37.8724 15.0704 38.3279 15.0818 38.7891 15.0768C38.9858 15.0636 39.1805 15.0289 39.3695 14.9732C39.453 14.9497 39.5303 14.9081 39.5959 14.8513C39.7884 14.6927 39.7769 14.5073 39.5541 14.3997C39.3766 14.3129 39.187 14.2536 38.9919 14.2239C38.2961 14.1173 37.5933 14.0652 36.8898 14.0681C36.574 14.0723 36.2577 14.0804 35.9423 14.0807C35.7369 14.0802 35.5313 14.069 35.3251 14.0631C35.726 14.1683 36.1302 14.2437 36.5327 14.3228C36.9044 14.3957 37.2756 14.4727 37.6467 14.5509C37.7237 14.5729 37.799 14.6002 37.8723 14.6326L37.8593 14.6799C37.8068 14.6818 37.7538 14.6877 37.7018 14.6846C37.552 14.6771 37.4012 14.6681 37.2523 14.6541C36.7638 14.6088 36.2753 14.5741 35.7902 14.5094C35.3051 14.4447 34.7922 14.3468 34.2927 14.2686C33.832 14.1962 33.3679 14.143 32.9096 14.0604C32.3452 13.9521 31.7929 13.787 31.2611 13.5675C31.1416 13.5244 31.0426 13.4378 30.9835 13.3249C30.5159 12.4393 30.0343 11.5613 29.5751 10.6701C29.0584 9.66852 28.5557 8.65805 28.0529 7.64758C27.674 6.88622 27.2924 6.12588 26.9354 5.35515C26.4275 4.24682 25.9325 3.13994 25.4413 2.02296C25.2796 1.6526 25.0809 1.29653 25.0392 0.892254C24.7206 0.763365 24.243 0.884903 24.048 1.14052C24.2927 1.29928 24.6339 1.25453 24.886 1.52717C24.8134 1.56443 24.7356 1.59033 24.6552 1.60396C24.5213 1.60108 24.388 1.58312 24.2579 1.55041C23.9521 1.47291 23.655 1.35167 23.3447 1.29207C22.8182 1.18599 22.2863 1.10559 21.7565 1.01756C21.2096 0.931256 20.6561 0.896333 20.1031 0.913218C19.4959 0.924336 18.8852 0.908752 18.2791 0.934442C16.2882 1.03563 14.4357 1.63866 12.6655 2.5243C12.089 2.82213 11.5388 3.16837 11.0205 3.55933C10.7069 3.77714 10.4547 4.07273 10.2884 4.41753C9.81941 5.43392 9.64021 6.51814 9.57383 7.62417C9.53966 8.21055 9.50522 8.79957 9.46501 9.38138C9.4248 9.96319 9.37881 10.5378 9.33256 11.115C9.30717 11.3514 9.28165 11.5892 9.26532 11.8266C9.23001 11.9239 9.21438 12.0207 9.29664 12.0956ZM39.3291 15.1672C39.106 15.2449 38.8881 15.3375 38.6608 15.3937C38.3729 15.4758 38.0777 15.5309 37.7794 15.5583C37.2013 15.5923 36.6303 15.4852 36.0586 15.4108C35.4868 15.3366 34.9469 15.2579 34.3915 15.1775C34.1164 15.1439 33.838 15.154 33.5664 15.2076C32.9238 15.3174 32.3267 15.5768 31.7052 15.7585C31.3349 15.867 30.9687 15.9983 30.5928 16.0865C30.0866 16.2062 29.5696 16.28 29.0621 16.3995C28.4267 16.5277 27.7793 16.5877 27.1308 16.5783C26.1649 16.5915 25.2057 16.5055 24.2431 16.4506C23.7073 16.4197 23.1708 16.4189 22.6334 16.4024C22.0328 16.3774 21.4319 16.3656 20.8356 16.3016C20.3105 16.2431 19.7909 16.1338 19.2703 16.0336C18.6801 15.9213 18.0994 15.7629 17.5334 15.5598C16.5645 15.2111 15.5966 14.8652 14.6195 14.5432C13.3724 14.1314 12.1206 13.7349 10.8642 13.3537C9.89614 13.0577 8.92407 12.7744 7.94405 12.5164C7.57666 12.4203 7.19823 12.374 6.81891 12.3791C5.9223 12.3997 5.04086 12.6114 4.23297 13.0002C3.75419 13.2264 3.28971 13.4819 2.84213 13.7652C2.49336 13.983 2.16589 14.2333 1.86406 14.513C1.17548 15.1652 0.700343 16.0123 0.501265 16.9427C0.340598 17.5986 0.439219 18.2923 0.776407 18.8782C1.06044 19.3575 1.4235 19.7847 1.85002 20.1417C1.87817 20.1643 1.90789 20.1848 1.93898 20.2029C1.8617 20.0551 1.76869 19.9159 1.66157 19.7882C1.33747 19.3952 1.08171 18.9502 0.90509 18.4719C0.673458 17.777 0.680889 17.0982 1.04924 16.4466C1.3048 16.017 1.65413 15.6515 2.07096 15.3775C2.82453 14.8556 3.67536 14.5614 4.55592 14.356C5.73242 14.0756 6.93608 13.9238 8.14589 13.9035C8.65823 13.8975 9.17121 13.9101 9.68474 13.9175C9.98523 13.9221 10.2869 13.9164 10.5846 13.9469C11.0962 13.9831 11.605 14.0526 12.1079 14.1551C12.659 14.2876 13.1922 14.5009 13.7299 14.6858C14.8382 15.0658 15.9468 15.4419 17.0497 15.8357C17.9497 16.1626 18.8759 16.4102 19.818 16.5758C20.9902 16.7575 22.1733 16.8575 23.3587 16.875C24.1087 16.8983 24.8589 16.9321 25.6082 16.9499C26.1446 16.9638 26.6844 16.9939 27.2185 16.9562C28.4962 16.8674 29.7651 16.7146 30.9975 16.3394C31.4738 16.1941 31.9538 16.0636 32.4288 15.9181C32.6697 15.8438 32.9024 15.7356 33.1451 15.6694C33.9383 15.449 34.7427 15.5388 35.5448 15.6256C35.8112 15.6553 36.074 15.7176 36.3408 15.7447C36.6074 15.7718 36.8773 15.7691 37.1441 15.7962C37.4665 15.8269 37.7912 15.8226 38.1125 15.7834C38.593 15.7332 38.9691 15.4847 39.3258 15.1853L39.3291 15.1672Z" fill="#DE6B38"/>
<path d="M14.991 3.5854C14.9353 3.54239 14.8424 3.50573 14.825 3.44858C14.8076 3.39142 14.8587 3.30511 14.9017 3.2468C14.9456 3.20114 14.9979 3.16457 15.0559 3.13912C15.6058 2.81024 16.1996 2.56139 16.8195 2.39998C17.193 2.31021 17.5741 2.22129 17.9512 2.14768C18.0287 2.13422 18.1078 2.13329 18.1857 2.14493C18.2039 2.14984 18.2206 2.15907 18.2345 2.17183C18.2483 2.18459 18.259 2.20051 18.2655 2.21826C18.2652 2.24045 18.2599 2.26228 18.2501 2.28211C18.2403 2.30196 18.2262 2.3193 18.2087 2.33285C18.1213 2.37184 18.0305 2.40219 17.9372 2.42349C17.5489 2.53002 17.1602 2.63563 16.7712 2.74032C16.5098 2.81026 16.2718 2.94883 16.0816 3.14185C15.9066 3.31428 15.6865 3.43327 15.4467 3.48508C15.3052 3.52319 15.1596 3.55033 14.991 3.5854Z" fill="#DE6B38"/>
<path d="M27.0198 6.06147C26.8548 6.05803 26.6968 5.99358 26.576 5.88047C26.4102 5.75839 26.2545 5.62321 26.1103 5.4762C25.6102 4.95692 25.1749 4.37861 24.8137 3.75403C24.7706 3.68758 24.7374 3.61524 24.715 3.53927C24.7093 3.51368 24.7094 3.48712 24.7153 3.4616C24.7212 3.43608 24.7327 3.41225 24.7492 3.39191C24.7707 3.37681 24.7957 3.36722 24.8217 3.36395C24.8479 3.36069 24.8744 3.36383 24.8991 3.37314C24.9624 3.40389 25.0176 3.44924 25.0602 3.5055C25.214 3.7067 25.3546 3.92088 25.5181 4.11659C25.8745 4.55074 26.2422 4.97826 26.6014 5.4114C26.7265 5.56337 26.8442 5.72243 26.9603 5.88393C26.9864 5.94082 27.0063 6.00035 27.0198 6.06147Z" fill="#DE6B38"/>
<path d="M7.52875 12.6004C7.60388 12.6023 7.67873 12.6107 7.75247 12.6254C8.68365 12.8914 9.61462 13.1592 10.5454 13.4288C10.5888 13.4411 10.6282 13.4645 10.6598 13.4967C9.56197 13.3979 8.53962 13.0222 7.50378 12.6989L7.52875 12.6004Z" fill="#DE6B38"/>
</svg>
