<svg width="16" height="16" viewBox="0 0 16 16" fill="none" xmlns="http://www.w3.org/2000/svg">
<g id="Icons/Basic/More">
<path id="dots" fill-rule="evenodd" clip-rule="evenodd" d="M7.9998 11.384C8.66255 11.384 9.1998 11.889 9.1998 12.512C9.1998 13.135 8.66255 13.64 7.9998 13.64C7.33706 13.64 6.7998 13.135 6.7998 12.512C6.7998 11.889 7.33706 11.384 7.9998 11.384ZM7.9998 6.87201C8.66255 6.87201 9.1998 7.37704 9.1998 8.00001C9.1998 8.62299 8.66255 9.12801 7.9998 9.12801C7.33706 9.12801 6.7998 8.62299 6.7998 8.00001C6.7998 7.37704 7.33706 6.87201 7.9998 6.87201ZM9.1998 3.48801C9.1998 2.86504 8.66255 2.36002 7.9998 2.36002C7.33706 2.36002 6.7998 2.86504 6.7998 3.48801C6.7998 4.11099 7.33706 4.61601 7.9998 4.61601C8.66255 4.61601 9.1998 4.11099 9.1998 3.48801Z" fill="#3383C5"/>
</g>
</svg>
