<svg width="40" height="41" viewBox="0 0 40 41" fill="none" xmlns="http://www.w3.org/2000/svg">
<g opacity="0.7">
<circle cx="20" cy="20.5" r="18.5" stroke="url(#paint0_linear_6624_5646)" stroke-width="3"/>
<path fill-rule="evenodd" clip-rule="evenodd" d="M21.3332 13.8333C21.3332 13.097 20.7363 12.5 19.9999 12.5C19.2635 12.5 18.6665 13.097 18.6665 13.8333V19.1667H13.3332C12.5968 19.1667 11.9999 19.7636 11.9999 20.5C11.9999 21.2364 12.5968 21.8333 13.3332 21.8333H18.6665V27.1667C18.6665 27.903 19.2635 28.5 19.9999 28.5C20.7363 28.5 21.3332 27.903 21.3332 27.1667V21.8333H26.6665C27.4029 21.8333 27.9999 21.2364 27.9999 20.5C27.9999 19.7636 27.4029 19.1667 26.6665 19.1667H21.3332V13.8333Z" fill="url(#paint1_linear_6624_5646)"/>
</g>
<defs>
<linearGradient id="paint0_linear_6624_5646" x1="4.81379" y1="28.5376" x2="32.9246" y2="9.48345" gradientUnits="userSpaceOnUse">
<stop stop-color="#3383C5"/>
<stop offset="1" stop-color="#29C4B8"/>
</linearGradient>
<linearGradient id="paint1_linear_6624_5646" x1="13.9254" y1="23.7151" x2="25.1697" y2="16.0934" gradientUnits="userSpaceOnUse">
<stop stop-color="#3383C5"/>
<stop offset="1" stop-color="#29C4B8"/>
</linearGradient>
</defs>
</svg>
