<svg width="25" height="24" viewBox="0 0 25 24" fill="none" xmlns="http://www.w3.org/2000/svg">
<path d="M23.0656 11.4189L20.75 12.5721L17.75 6.83456L20.0938 5.66269C20.2679 5.5739 20.4701 5.55759 20.6563 5.6173C20.8425 5.67701 20.9975 5.80791 21.0875 5.98144L23.3937 10.3971C23.4405 10.4855 23.4691 10.5823 23.4779 10.6819C23.4867 10.7815 23.4755 10.8819 23.4449 10.9771C23.4143 11.0723 23.365 11.1605 23.2999 11.2363C23.2348 11.3122 23.1551 11.3743 23.0656 11.4189V11.4189Z" stroke="#9CFFFD" stroke-width="2" stroke-linecap="round" stroke-linejoin="round"/>
<path d="M4.24984 12.478L1.93422 11.3155C1.84506 11.2718 1.76559 11.2106 1.70055 11.1356C1.63551 11.0606 1.58622 10.9732 1.55561 10.8788C1.52499 10.7843 1.51369 10.6847 1.52236 10.5858C1.53103 10.4868 1.55951 10.3907 1.60609 10.303L3.91234 5.88737C4.00256 5.71396 4.15691 5.58263 4.34253 5.52134C4.52814 5.46005 4.73035 5.47365 4.90609 5.55925L7.24984 6.73112L4.24984 12.478Z" stroke="#9CFFFD" stroke-width="2" stroke-linecap="round" stroke-linejoin="round"/>
<path d="M20.75 12.5717L19.25 14.3342L15.8 17.7842C15.706 17.8721 15.592 17.936 15.468 17.9703C15.3439 18.0046 15.2133 18.0083 15.0875 17.9811L9.65 16.6217C9.55067 16.594 9.45812 16.5462 9.37812 16.4811L4.25 12.478" stroke="#9CFFFD" stroke-width="2" stroke-linecap="round" stroke-linejoin="round"/>
<path d="M19.2503 14.3345L15.1253 11.3345L13.9253 12.2345C13.4054 12.6226 12.7741 12.8322 12.1253 12.8322C11.4766 12.8322 10.8452 12.6226 10.3253 12.2345L9.81908 11.8502C9.73347 11.7851 9.66266 11.7026 9.61134 11.6081C9.56002 11.5135 9.52936 11.4092 9.52138 11.302C9.5134 11.1947 9.52829 11.087 9.56507 10.986C9.60185 10.8849 9.65967 10.7928 9.7347 10.7158L13.4097 7.05016C13.4787 6.98147 13.5606 6.92707 13.6507 6.89007C13.7408 6.85307 13.8373 6.8342 13.9347 6.83454H17.7503" stroke="#9CFFFD" stroke-width="2" stroke-linecap="round" stroke-linejoin="round"/>
<path d="M7.30603 6.73133L12.1154 5.32508C12.2863 5.27607 12.469 5.28936 12.631 5.36258L15.8748 6.83445" stroke="#9CFFFD" stroke-width="2" stroke-linecap="round" stroke-linejoin="round"/>
<path d="M11 19.9594L8.17813 19.2469C8.06313 19.2209 7.95666 19.166 7.86875 19.0875L5.75 17.25" stroke="#9CFFFD" stroke-width="2" stroke-linecap="round" stroke-linejoin="round"/>
</svg>
