<svg width="41" height="38" viewBox="0 0 41 38" fill="none" xmlns="http://www.w3.org/2000/svg">
<path fill-rule="evenodd" clip-rule="evenodd" d="M39.6665 24.4866L31.8636 35.4039C30.7274 36.9958 28.5115 37.697 25.6895 37.4697C21.7688 37.1285 16.5604 35.0436 11.5795 31.4618C9.95526 30.3079 8.4208 29.0324 6.98932 27.6462C4.34997 25.081 2.41005 22.4122 1.3712 20.0326C0.234964 17.4172 0.197386 15.105 1.33362 13.5131L9.15507 2.59576C10.2917 1.0038 12.4886 0.302636 15.3296 0.529886C19.2502 0.85216 24.4397 2.95604 29.4392 6.51926C34.4205 10.1015 38.0761 14.3659 39.6289 17.9671C39.763 18.276 39.8818 18.5805 39.9853 18.8805C40.7574 21.1187 40.6686 23.0826 39.6665 24.4866Z" fill="url(#paint0_linear_6517_15171)"/>
<path fill-rule="evenodd" clip-rule="evenodd" d="M38.417 18.4976C36.9208 15.0671 33.4167 11.0299 28.6443 7.61835C23.8905 4.20677 18.9475 2.17891 15.2164 1.87564C12.9435 1.686 11.1442 2.10329 10.2355 3.37298L10.1971 3.4486C9.34493 4.71869 9.53444 6.5193 10.4246 8.56617C11.9209 12.0158 15.4245 16.0525 20.1787 19.4641C24.9322 22.8757 29.8755 24.9039 33.6062 25.2072C35.8411 25.3774 37.6028 24.9796 38.5306 23.7855L38.5876 23.6908C39.4967 22.4397 39.3072 20.5825 38.417 18.4976ZM31.4283 18.5737C31.0117 19.1608 30.1596 19.3318 29.1179 19.2368C27.2426 19.0852 24.7806 18.0617 22.3942 16.3562C20.0078 14.6502 18.2465 12.6409 17.5079 10.9163C17.0913 9.94989 16.9777 9.0971 17.3943 8.50916C17.8113 7.92162 18.6635 7.75098 19.7238 7.827C21.5796 7.99764 24.061 9.00207 26.4284 10.7081C28.8148 12.4137 30.5761 14.4415 31.3148 16.1665C31.7504 17.1329 31.8639 17.9857 31.4283 18.5737Z" fill="white"/>
<defs>
<linearGradient id="paint0_linear_6517_15171" x1="14.0797" y1="0.0406103" x2="26.9383" y2="37.9571" gradientUnits="userSpaceOnUse">
<stop stop-color="#27B0E6"/>
<stop offset="0.107" stop-color="#49A1DB"/>
<stop offset="0.288" stop-color="#7D8ACA"/>
<stop offset="0.445" stop-color="#A279BD"/>
<stop offset="0.572" stop-color="#BA6FB6"/>
<stop offset="0.651" stop-color="#C26BB3"/>
<stop offset="0.678" stop-color="#D563AD"/>
<stop offset="0.715" stop-color="#E65BA7"/>
<stop offset="0.76" stop-color="#F156A3"/>
<stop offset="0.824" stop-color="#F853A1"/>
<stop offset="1" stop-color="#FA52A0"/>
</linearGradient>
</defs>
</svg>
