<svg xmlns="http://www.w3.org/2000/svg" width="24" height="12" viewBox="0 0 24 12" fill="none">
  <path d="M0.971222 3.75655C1.26886 3.52755 1.61529 3.37026 1.9836 3.29691C2.35191 3.22356 2.73217 3.23613 3.09483 3.33363L7.27806 4.29545C7.18074 3.88432 7.17774 3.45649 7.26927 3.04403C7.36081 2.63157 7.54452 2.24518 7.80663 1.91382C8.06873 1.58246 8.40244 1.31472 8.78275 1.13067C9.16305 0.946622 9.58007 0.851039 10.0026 0.851084H15.0076C15.428 0.850031 15.8443 0.932279 16.2327 1.09308C16.621 1.25388 16.9737 1.49004 17.2702 1.78791L19.5318 4.0505H22.4003C22.8246 4.0505 23.2315 4.21904 23.5315 4.51904C23.8315 4.81904 24 5.22594 24 5.65021V9.64947C24 10.0737 23.8315 10.4806 23.5315 10.7806C23.2315 11.0806 22.8246 11.2492 22.4003 11.2492H12.0022C11.9368 11.2492 11.8717 11.2411 11.8082 11.2252L5.40941 9.62547C5.36862 9.61577 5.3288 9.60238 5.29043 9.58548L1.40414 7.93179L1.36015 7.91179C0.986649 7.72516 0.666809 7.44651 0.430761 7.1021C0.194714 6.75769 0.0502338 6.35886 0.0109253 5.94318C-0.0283833 5.5275 0.0387783 5.10865 0.206083 4.7261C0.373388 4.34355 0.635326 4.00989 0.967222 3.75655H0.971222ZM22.4003 5.65021H20.0007V9.64947H22.4003V5.65021ZM2.06102 6.47106L5.86032 8.08876L12.1022 9.64947H18.401V5.18129L16.1384 2.91971C15.9904 2.77051 15.8142 2.65223 15.6201 2.57173C15.426 2.49123 15.2178 2.45012 15.0076 2.45079H10.0026C9.68436 2.45079 9.3792 2.5772 9.15419 2.8022C8.92919 3.0272 8.80279 3.33237 8.80279 3.65057C8.80279 3.96877 8.92919 4.27394 9.15419 4.49894C9.3792 4.72395 9.68436 4.85035 10.0026 4.85035H12.8021C13.0142 4.85035 13.2176 4.93462 13.3676 5.08462C13.5176 5.23462 13.6019 5.43807 13.6019 5.65021C13.6019 5.86234 13.5176 6.06579 13.3676 6.21579C13.2176 6.36579 13.0142 6.45006 12.8021 6.45006H9.60264C9.54244 6.44989 9.48243 6.44318 9.42367 6.43006L2.7249 4.88934L2.6939 4.88135C2.48941 4.82458 2.27115 4.84544 2.08111 4.93992C1.89108 5.0344 1.7427 5.19582 1.66452 5.39312C1.58634 5.59042 1.5839 5.80967 1.65765 6.00866C1.7314 6.20766 1.87614 6.37236 2.06402 6.47106H2.06102Z" fill="#9CFFFD"/>
</svg>