<svg xmlns="http://www.w3.org/2000/svg" width="28" height="29" viewBox="0 0 28 29" fill="none">
  <path d="M26.3266 13.3748L23.625 14.7201L20.125 8.02637L22.8594 6.65919C23.0626 6.5556 23.2985 6.53657 23.5157 6.60623C23.7329 6.67589 23.9137 6.8286 24.0188 7.03106L26.7094 12.1826C26.7639 12.2857 26.7973 12.3987 26.8076 12.515C26.8178 12.6312 26.8047 12.7483 26.7691 12.8593C26.7334 12.9704 26.6759 13.0733 26.5999 13.1618C26.5239 13.2503 26.431 13.3227 26.3266 13.3748V13.3748Z" stroke="#9CFFFD" stroke-width="2" stroke-linecap="round" stroke-linejoin="round"/>
  <path d="M4.37481 14.6104L1.67325 13.2542C1.56923 13.2032 1.47652 13.1318 1.40064 13.0443C1.32476 12.9568 1.26725 12.8549 1.23154 12.7447C1.19583 12.6345 1.18264 12.5182 1.19276 12.4028C1.20287 12.2874 1.23609 12.1752 1.29044 12.0729L3.98106 6.92135C4.08632 6.71904 4.2664 6.56582 4.48295 6.49432C4.6995 6.42281 4.93541 6.43868 5.14044 6.53854L7.87481 7.90573L4.37481 14.6104Z" stroke="#9CFFFD" stroke-width="2" stroke-linecap="round" stroke-linejoin="round"/>
  <path d="M23.625 14.7197L21.875 16.776L17.85 20.801C17.7403 20.9036 17.6074 20.978 17.4626 21.018C17.3179 21.058 17.1656 21.0624 17.0188 21.0307L10.675 19.4447C10.5591 19.4124 10.4511 19.3566 10.3578 19.2807L4.375 14.6104" stroke="#9CFFFD" stroke-width="2" stroke-linecap="round" stroke-linejoin="round"/>
  <path d="M21.8753 16.7764L17.0628 13.2764L15.6628 14.3264C15.0563 14.7791 14.3197 15.0236 13.5628 15.0236C12.806 15.0236 12.0694 14.7791 11.4628 14.3264L10.8722 13.8779C10.7723 13.802 10.6897 13.7057 10.6299 13.5955C10.57 13.4852 10.5342 13.3635 10.5249 13.2384C10.5156 13.1133 10.533 12.9876 10.5759 12.8697C10.6188 12.7518 10.6862 12.6444 10.7738 12.5545L15.0613 8.27793C15.1418 8.19779 15.2374 8.13432 15.3425 8.09115C15.4476 8.04799 15.5602 8.02597 15.6738 8.02637H20.1253" stroke="#9CFFFD" stroke-width="2" stroke-linecap="round" stroke-linejoin="round"/>
  <path d="M7.94043 7.90597L13.5514 6.26535C13.7507 6.20817 13.9639 6.22368 14.1529 6.3091L17.9373 8.02629" stroke="#9CFFFD" stroke-width="2" stroke-linecap="round" stroke-linejoin="round"/>
  <path d="M12.25 23.3387L8.95781 22.5074C8.82366 22.4771 8.69943 22.4131 8.59687 22.3215L6.125 20.1777" stroke="#9CFFFD" stroke-width="2" stroke-linecap="round" stroke-linejoin="round"/>
</svg>