<svg xmlns="http://www.w3.org/2000/svg" width="16" height="17" viewBox="0 0 16 17" fill="none">
  <path fill-rule="evenodd" clip-rule="evenodd" d="M7.34277 0.573991C5.80053 0.706346 4.38584 1.24747 3.16619 2.17156C2.60591 2.59608 2.04429 3.15758 1.62052 3.71692C0.77968 4.82676 0.242577 6.13168 0.0636557 7.49944C-0.0212186 8.14822 -0.0212186 8.95668 0.0636557 9.60547C0.265092 11.1453 0.916596 12.5948 1.94162 13.7837C2.15429 14.0304 2.55839 14.4333 2.79871 14.6381C3.98113 15.6462 5.42334 16.2897 6.94702 16.4891C7.59578 16.574 8.40422 16.574 9.05298 16.4891C10.5767 16.2897 12.0189 15.6462 13.2013 14.6381C13.4416 14.4333 13.8457 14.0304 14.0584 13.7837C15.0834 12.5948 15.7349 11.1453 15.9363 9.60547C16.0212 8.95668 16.0212 8.14822 15.9363 7.49944C15.737 5.9757 15.0935 4.53344 14.0855 3.35098C13.8806 3.11065 13.4778 2.70654 13.2311 2.49386C12.0422 1.4688 10.5928 0.817273 9.05298 0.615829C8.56695 0.552238 7.81154 0.533765 7.34277 0.573991ZM7.66078 1.41488C5.87324 1.50182 4.21334 2.23658 2.94845 3.50081C2.44822 4.00077 2.02545 4.57109 1.68171 5.20966C1.59269 5.375 1.42727 5.72982 1.4354 5.73795C1.43848 5.74103 1.50639 5.71634 1.5863 5.68306C1.77632 5.60394 1.85198 5.58459 1.97216 5.58439C2.07867 5.58421 2.24184 5.62288 2.33489 5.67036C2.36582 5.68613 2.42083 5.72986 2.45712 5.76753C2.49878 5.81077 2.59345 5.8764 2.71391 5.94557C3.26588 6.26252 4.00969 6.73916 4.45238 7.05959C4.68381 7.22711 4.8627 7.40667 4.95397 7.56304C4.99253 7.62912 5.10465 7.85561 5.20312 8.06637C5.40095 8.48972 5.49894 8.67018 5.54875 8.70281C5.57691 8.72126 5.59366 8.72187 5.66367 8.70701C5.74121 8.69056 5.75367 8.68154 5.89467 8.53976C5.97663 8.45734 6.14484 8.27224 6.26844 8.12842C6.62687 7.71138 6.74882 7.58416 6.86406 7.50708C7.10597 7.34527 7.3797 7.32526 7.63958 7.45036C7.7645 7.51049 7.87302 7.5987 7.9479 7.70098C7.97488 7.73783 8.09864 7.95112 8.22291 8.17494L8.44884 8.58188L8.47166 8.49296C8.48421 8.44406 8.51025 8.33798 8.5295 8.25723C8.60791 7.92839 8.73884 7.77089 8.99535 7.69685C9.22794 7.62971 9.62837 7.72645 9.91021 7.91784C10.0368 8.00381 10.1092 8.07366 10.2311 8.22736C10.5256 8.59866 11.6245 9.8778 12.3804 10.7292C12.8658 11.2759 13.1456 11.5791 13.4393 11.8769C13.679 12.1198 13.7076 12.1443 13.7933 12.1786C13.9024 12.2222 14.1036 12.2487 14.1294 12.2228C14.1384 12.2137 14.192 12.1235 14.2485 12.0225C15.0932 10.51 15.354 8.70043 14.9734 6.9906C14.5854 5.24717 13.557 3.71989 12.0712 2.6807C10.7967 1.78933 9.2267 1.33871 7.66078 1.41488ZM1.75987 6.53872C1.67436 6.57297 1.48673 6.64022 1.34292 6.68818C1.19911 6.73614 1.07979 6.77669 1.07778 6.77829C1.06817 6.78592 0.984863 7.17594 0.954645 7.35477C0.700644 8.85771 0.935762 10.4199 1.61929 11.771C2.63011 13.7689 4.51926 15.1816 6.71829 15.5839C7.01721 15.6386 7.00763 15.6728 6.8025 15.284C5.37387 12.576 3.20929 8.63455 2.35662 7.18848C2.22301 6.96191 1.92231 6.47366 1.91753 6.47557C1.91633 6.47605 1.84538 6.50447 1.75987 6.53872ZM3.53574 7.50803C4.46451 9.15605 5.17628 10.4458 6.09992 12.1542C6.33761 12.5939 6.33933 12.5966 6.35002 12.5429C6.35594 12.5132 6.43057 11.7161 6.51587 10.7716C6.60116 9.82702 6.67357 9.03514 6.6768 9.01182C6.68193 8.97455 6.65756 8.99442 6.47561 9.17584C6.29111 9.35981 6.25552 9.38867 6.14845 9.44108C6.08238 9.47342 5.96471 9.51615 5.88698 9.53603C5.76318 9.56767 5.72372 9.57146 5.56896 9.56654C5.37151 9.56025 5.25291 9.52791 5.10636 9.44039C4.86782 9.29792 4.75232 9.12953 4.45081 8.48462C4.23783 8.02907 4.19982 7.9612 4.11666 7.88777C4.0461 7.82545 3.8016 7.6475 3.61261 7.52091L3.50076 7.44597L3.53574 7.50803ZM9.29686 8.73176C9.24205 8.94574 9.15288 9.12201 9.04248 9.23461C8.99383 9.28422 8.93852 9.33441 8.91955 9.34614L8.88507 9.3675L10.3383 11.9812C11.1375 13.4188 11.7939 14.5976 11.7969 14.6009C11.8047 14.6096 12.1068 14.4041 12.2967 14.261C12.6226 14.0153 12.9186 13.7496 13.2047 13.4461C13.3672 13.2737 13.5689 13.0386 13.5686 13.022C13.5685 13.0164 13.5074 12.987 13.4329 12.9567C13.3584 12.9264 13.2583 12.873 13.2105 12.8382C13.0411 12.7147 12.5874 12.2475 11.9791 11.5702C11.2359 10.7426 9.91105 9.20528 9.56303 8.7666C9.49504 8.68089 9.37669 8.58072 9.34343 8.58072C9.33909 8.58072 9.31813 8.64869 9.29686 8.73176ZM7.56197 8.77154C7.56158 8.77931 7.45399 9.95531 7.3229 11.3849L7.08453 13.9841L7.36749 14.5157C7.52312 14.808 7.72647 15.1951 7.81935 15.3758L7.98825 15.7045L8.17433 15.6968C8.79283 15.6712 9.20504 15.6151 9.73621 15.4844C10.239 15.3607 11.0541 15.058 11.0329 15.0029C11.0277 14.9892 7.65106 8.91154 7.57486 8.7786C7.56818 8.76694 7.56238 8.76376 7.56197 8.77154Z" fill="white"/>
</svg>