<svg width="14" height="14" viewBox="0 0 14 14" fill="none" xmlns="http://www.w3.org/2000/svg">
<path d="M12.0632 5.23438H6.81315C6.16882 5.23438 5.64648 5.75671 5.64648 6.40104V11.651C5.64648 12.2954 6.16882 12.8177 6.81315 12.8177H12.0632C12.7075 12.8177 13.2298 12.2954 13.2298 11.651V6.40104C13.2298 5.75671 12.7075 5.23438 12.0632 5.23438Z" stroke="white" stroke-width="1.16667" stroke-linecap="round" stroke-linejoin="round"/>
<path d="M3.31348 8.73446H2.73014C2.42072 8.73446 2.12398 8.61154 1.90519 8.39275C1.68639 8.17395 1.56348 7.87721 1.56348 7.56779V2.31779C1.56348 2.00837 1.68639 1.71162 1.90519 1.49283C2.12398 1.27404 2.42072 1.15112 2.73014 1.15112H7.98014C8.28956 1.15112 8.58631 1.27404 8.8051 1.49283C9.02389 1.71162 9.14681 2.00837 9.14681 2.31779V2.90112" stroke="white" stroke-width="1.16667" stroke-linecap="round" stroke-linejoin="round"/>
</svg>
