<svg width="34" height="40" viewBox="0 0 34 40" fill="none" xmlns="http://www.w3.org/2000/svg">
<path fill-rule="evenodd" clip-rule="evenodd" d="M9.625 0C6.69491 0 4.64279 0.489073 3.26458 1.04036C2.14371 1.4887 0.5 2.27396 0.5 3.6875V38.1251C0.5 39.1607 1.33947 40.0001 2.375 40.0001C3.41053 40.0001 4.25 39.1607 4.25 38.1251V26.4517C5.03347 26.0704 6.67885 25.5 9.625 25.5C11.9326 25.5 13.8791 26.2586 16.1786 27.1784C18.7372 28.2021 21.3315 29.125 24.125 29.125C27.0551 29.125 29.1072 28.6359 30.4854 28.0846C31.6118 27.6341 33.25 26.8555 33.25 25.4375V3.6875C33.25 2.92913 32.7932 2.24544 32.0925 1.95523C31.4106 1.67276 30.6284 1.81719 30.0927 2.31954C30.0485 2.35557 29.7516 2.58928 29.0927 2.85286C28.2053 3.20782 26.6324 3.625 24.125 3.625C21.8175 3.625 19.8709 2.86643 17.5714 1.94661C15.0128 0.922942 12.4185 0 9.625 0ZM4.25 4.70165C4.36668 4.64487 4.50202 4.58426 4.65729 4.52214C5.54471 4.16718 7.11759 3.75 9.625 3.75C11.9326 3.75 13.8791 4.50857 16.1786 5.42839C18.7372 6.45205 21.3315 7.375 24.125 7.375C26.4245 7.375 28.1833 7.07377 29.5 6.67765V24.4233C28.7165 24.8046 27.0711 25.375 24.125 25.375C21.8175 25.375 19.8709 24.6164 17.5714 23.6966C15.0128 22.6729 12.4185 21.75 9.625 21.75C7.32545 21.75 5.56667 22.0512 4.25 22.4473V4.70165Z" fill="url(#paint0_linear_4450_981)"/>
<defs>
<linearGradient id="paint0_linear_4450_981" x1="4.44129" y1="28.0377" x2="30.1221" y2="13.7857" gradientUnits="userSpaceOnUse">
<stop stop-color="#3383C5"/>
<stop offset="1" stop-color="#29C4B8"/>
</linearGradient>
</defs>
</svg>
