<svg width="24" height="40" viewBox="0 0 24 40" fill="none" xmlns="http://www.w3.org/2000/svg">
<path fill-rule="evenodd" clip-rule="evenodd" d="M13.8863 1.875C13.8863 0.839466 13.0469 0 12.0113 0C10.9758 0 10.1363 0.839466 10.1363 1.875V6.59088H7.89205C5.86525 6.59088 3.92146 7.39602 2.4883 8.82918C1.05514 10.2623 0.25 12.2061 0.25 14.2329C0.25 16.2597 1.05514 18.2035 2.4883 19.6367C3.92146 21.0698 5.86525 21.875 7.89205 21.875H10.1363V29.6591H2.125C1.08947 29.6591 0.25 30.4985 0.25 31.5341C0.25 32.5696 1.08947 33.4091 2.125 33.4091H10.1363V38.125C10.1363 39.1605 10.9758 40 12.0113 40C13.0469 40 13.8863 39.1605 13.8863 38.125V33.4091H16.1307C18.1575 33.4091 20.1013 32.6039 21.5344 31.1708C22.9676 29.7376 23.7727 27.7938 23.7727 25.767C23.7727 23.7402 22.9676 21.7964 21.5344 20.3633C20.1013 18.9301 18.1575 18.125 16.1307 18.125H13.8863V10.3409H20.25C21.2855 10.3409 22.125 9.50142 22.125 8.46588C22.125 7.43035 21.2855 6.59088 20.25 6.59088H13.8863V1.875ZM10.1363 10.3409H7.89205C6.85981 10.3409 5.86985 10.7509 5.13995 11.4808C4.41005 12.2107 4 13.2007 4 14.2329C4 15.2652 4.41005 16.2551 5.13995 16.985C5.86985 17.7149 6.85981 18.125 7.89205 18.125H10.1363V10.3409ZM13.8863 21.875V29.6591H16.1307C17.1629 29.6591 18.1529 29.249 18.8828 28.5191C19.6127 27.7892 20.0227 26.7993 20.0227 25.767C20.0227 24.7348 19.6127 23.7448 18.8828 23.0149C18.1529 22.285 17.1629 21.875 16.1307 21.875H13.8863Z" fill="url(#paint0_linear_4450_1017)"/>
<defs>
<linearGradient id="paint0_linear_4450_1017" x1="3.08084" y1="28.0376" x2="23.8992" y2="19.7393" gradientUnits="userSpaceOnUse">
<stop stop-color="#3383C5"/>
<stop offset="1" stop-color="#29C4B8"/>
</linearGradient>
</defs>
</svg>
