<svg width="37" height="41" viewBox="0 0 37 41" fill="none" xmlns="http://www.w3.org/2000/svg">
<path fill-rule="evenodd" clip-rule="evenodd" d="M13.1053 6.35517C14.4532 5.00725 16.2814 4.25 18.1876 4.25C20.0939 4.25 21.922 5.00725 23.27 6.35517C24.6179 7.70309 25.3751 9.53126 25.3751 11.4375V16.8125H11.0001V11.4375C11.0001 9.53126 11.7574 7.70309 13.1053 6.35517ZM9.11772 20.5625C9.12019 20.5625 9.12265 20.5625 9.12512 20.5625C9.12759 20.5625 9.13006 20.5625 9.13252 20.5625H27.2427C27.2452 20.5625 27.2477 20.5625 27.2501 20.5625C27.2526 20.5625 27.2551 20.5625 27.2575 20.5625H30.8751C31.8416 20.5625 32.6251 21.346 32.6251 22.3125V35C32.6251 35.9665 31.8416 36.75 30.8751 36.75H5.50006C4.53356 36.75 3.75006 35.9665 3.75006 35V22.3125C3.75006 21.346 4.53356 20.5625 5.50006 20.5625H9.11772ZM7.25012 16.8125V11.4375C7.25012 8.5367 8.40246 5.7547 10.4536 3.70352C12.5048 1.65234 15.2868 0.5 18.1876 0.5C21.0884 0.5 23.8704 1.65234 25.9216 3.70352C27.9728 5.7547 29.1251 8.5367 29.1251 11.4375V16.8125H30.8751C33.9126 16.8125 36.3751 19.2749 36.3751 22.3125V35C36.3751 38.0376 33.9126 40.5 30.8751 40.5H5.50006C2.4625 40.5 6.10352e-05 38.0376 6.10352e-05 35V22.3125C6.10352e-05 19.2749 2.4625 16.8125 5.50006 16.8125H7.25012Z" fill="url(#paint0_linear_4540_78299)"/>
<defs>
<linearGradient id="paint0_linear_4540_78299" x1="4.3776" y1="28.5376" x2="31.4136" y2="11.8727" gradientUnits="userSpaceOnUse">
<stop stop-color="#3383C5"/>
<stop offset="1" stop-color="#29C4B8"/>
</linearGradient>
</defs>
</svg>
