<svg width="61" height="60" viewBox="0 0 61 60" fill="none" xmlns="http://www.w3.org/2000/svg">
<path fill-rule="evenodd" clip-rule="evenodd" d="M14.4617 18.4218C14.7595 17.8753 15.3404 17.5 16.0001 17.5H45.0001C45.6598 17.5 46.2407 17.8753 46.5385 18.4219L30.5002 29.6488L14.4617 18.4218ZM10.5001 19.2289C10.5 19.2404 10.5 19.252 10.5001 19.2635V41C10.5001 44.0293 12.9708 46.5 16.0001 46.5H45.0001C48.0293 46.5 50.5001 44.0293 50.5001 41C50.5001 38.581 50.5076 36.1616 50.5152 33.7421C50.5303 28.912 50.5455 24.0814 50.5003 19.2525C50.5004 19.238 50.5002 19.2235 50.4999 19.209C50.4999 19.2058 50.4999 19.2025 50.4998 19.1993C50.472 16.2464 48.0121 13.75 45.0001 13.75H16.0001C12.9778 13.75 10.5116 16.2092 10.5001 19.2289ZM46.7501 22.8513V41C46.7501 41.9582 45.9583 42.75 45.0001 42.75H16.0001C15.0418 42.75 14.2501 41.9582 14.2501 41V22.8512L29.4249 33.4736C30.0705 33.9255 30.9298 33.9255 31.5754 33.4736L46.7501 22.8513Z" fill="url(#paint0_linear_4021_83165)"/>
<defs>
<linearGradient id="paint0_linear_4021_83165" x1="15.3175" y1="36.7058" x2="39.6633" y2="16.5351" gradientUnits="userSpaceOnUse">
<stop stop-color="#3383C5"/>
<stop offset="1" stop-color="#29C4B8"/>
</linearGradient>
</defs>
</svg>
