<svg width="20" height="20" viewBox="0 0 20 20" fill="none" xmlns="http://www.w3.org/2000/svg">
<path fill-rule="evenodd" clip-rule="evenodd" d="M3.5 10C3.5 6.41015 6.41015 3.5 10 3.5C13.5899 3.5 16.5 6.41015 16.5 10C16.5 13.5899 13.5899 16.5 10 16.5C6.41015 16.5 3.5 13.5899 3.5 10ZM10 2C5.58172 2 2 5.58172 2 10C2 14.4183 5.58172 18 10 18C14.4183 18 18 14.4183 18 10C18 5.58172 14.4183 2 10 2Z" fill="#A8A9B3"/>
<path d="M7.5 7.6447C7.70163 7.09632 8.09962 6.63391 8.62346 6.33937C9.1473 6.04483 9.7632 5.93716 10.3621 6.03544C10.9609 6.13371 11.5041 6.43159 11.8954 6.87631C12.2867 7.32103 12.5009 7.8839 12.5 8.46521C12.5 10.1062 9.9271 10.9267 9.9271 10.9267" stroke="#A8A9B3" stroke-width="1.5" stroke-linecap="round" stroke-linejoin="round"/>
<path d="M10 13.3845V13.9999" stroke="#A8A9B3" stroke-width="1.5" stroke-linecap="round" stroke-linejoin="round"/>
</svg>
