<svg xmlns="http://www.w3.org/2000/svg" xmlns:xlink="http://www.w3.org/1999/xlink" width="500" zoomAndPan="magnify" viewBox="0 0 375 374.999991" height="500" preserveAspectRatio="xMidYMid meet" version="1.0"><defs><clipPath id="id1"><path d="M 115 71.066406 L 260 71.066406 L 260 255 L 115 255 Z M 115 71.066406 " clip-rule="nonzero"/></clipPath><clipPath id="id2"><path d="M 155 140 L 259 140 L 259 303.566406 L 155 303.566406 Z M 155 140 " clip-rule="nonzero"/></clipPath></defs><path fill="#1d3557" d="M 187.5 0 C 83.945312 0 0 83.945312 0 187.5 C 0 291.054688 83.945312 375 187.5 375 C 291.054688 375 375 291.054688 375 187.5 C 375 83.945312 291.054688 0 187.5 0 " fill-opacity="1" fill-rule="nonzero"/><g clip-path="url(#id1)"><path fill="#457b9d" d="M 173.320312 164.691406 C 220.621094 137.167969 244.269531 123.40625 244.269531 123.40625 C 261.433594 113.398438 264.152344 96.089844 252.640625 71.277344 C 223.96875 87.75 166.832031 116.109375 143.808594 135.5 C 104.882812 168.65625 105.929688 208.273438 146.949219 254.773438 C 127.695312 219.324219 136.484375 189.296875 173.320312 164.902344 Z M 173.320312 164.691406 " fill-opacity="1" fill-rule="evenodd"/></g><g clip-path="url(#id2)"><path fill="#f1faee" d="M 253.058594 140.921875 C 263.941406 166.152344 258.292969 185.128906 235.898438 197.847656 C 200.738281 218.28125 188.808594 225.164062 200.738281 218.28125 C 183.574219 229.75 178.96875 244.554688 187.132812 262.90625 C 186.921875 250.394531 193.621094 238.71875 206.804688 228.082031 C 214.132812 242.472656 216.433594 247.265625 214.132812 242.472656 C 227.527344 265.617188 217.898438 286.050781 185.667969 303.566406 C 160.972656 249.144531 152.808594 230.792969 160.972656 249.144531 C 151.136719 227.039062 154.484375 207.855469 170.808594 191.382812 C 186.921875 175.328125 231.710938 153.433594 253.058594 140.921875 Z M 253.058594 140.921875 " fill-opacity="1" fill-rule="evenodd"/></g></svg>