<svg xmlns="http://www.w3.org/2000/svg" xmlns:xlink="http://www.w3.org/1999/xlink" width="500" zoomAndPan="magnify" viewBox="0 0 375 374.999991" height="500" preserveAspectRatio="xMidYMid meet" version="1.0"><defs><clipPath id="id1"><path d="M 108 60.628906 L 266 60.628906 L 266 261 L 108 261 Z M 108 60.628906 " clip-rule="nonzero"/></clipPath><clipPath id="id2"><path d="M 152 136 L 265 136 L 265 314.128906 L 152 314.128906 Z M 152 136 " clip-rule="nonzero"/></clipPath></defs><path fill="#f1faee" d="M 187.5 0 C 83.945312 0 0 83.945312 0 187.5 C 0 291.054688 83.945312 375 187.5 375 C 291.054688 375 375 291.054688 375 187.5 C 375 83.945312 291.054688 0 187.5 0 " fill-opacity="1" fill-rule="nonzero"/><g clip-path="url(#id1)"><path fill="#1d3557" d="M 171.820312 162.710938 C 223.183594 132.703125 248.867188 117.695312 248.867188 117.695312 C 267.5 106.78125 270.457031 87.914062 257.957031 60.855469 C 226.820312 78.816406 164.777344 109.738281 139.777344 130.882812 C 97.503906 167.03125 98.640625 210.230469 143.1875 260.929688 C 122.277344 222.277344 131.824219 189.539062 171.820312 162.9375 Z M 171.820312 162.710938 " fill-opacity="1" fill-rule="evenodd"/></g><g clip-path="url(#id2)"><path fill="#457b9d" d="M 258.410156 136.792969 C 270.226562 164.304688 264.09375 184.992188 239.773438 198.863281 C 201.59375 221.140625 188.640625 228.644531 201.59375 221.140625 C 182.957031 233.648438 177.957031 249.789062 186.820312 269.796875 C 186.59375 256.15625 193.867188 243.421875 208.183594 231.828125 C 216.140625 247.515625 218.640625 252.746094 216.140625 247.515625 C 230.683594 272.75 220.230469 295.03125 185.230469 314.128906 C 158.414062 254.789062 149.550781 234.785156 158.414062 254.789062 C 147.730469 230.691406 151.367188 209.773438 169.09375 191.8125 C 186.59375 174.308594 235.230469 150.433594 258.410156 136.792969 Z M 258.410156 136.792969 " fill-opacity="1" fill-rule="evenodd"/></g></svg>