<svg width="20" height="20" viewBox="0 0 20 20" fill="none" xmlns="http://www.w3.org/2000/svg">
<path d="M18.316 11.8064C16.8435 12.2194 15.2876 12.2329 13.8081 11.8457C12.3287 11.4584 10.979 10.6844 9.89758 9.60297C8.8162 8.52159 8.04214 7.17187 7.6549 5.69241C7.26766 4.21295 7.28119 2.65707 7.69411 1.18457C6.24236 1.58864 4.92181 2.36603 3.86399 3.43929C2.80618 4.51255 2.04802 5.84423 1.66504 7.30169C1.28205 8.75915 1.2876 10.2915 1.68114 11.7462C2.07468 13.2008 2.84247 14.5269 3.90804 15.5925C4.97361 16.6581 6.29976 17.4259 7.7544 17.8194C9.20904 18.213 10.7414 18.2185 12.1989 17.8355C13.6563 17.4525 14.988 16.6944 16.0613 15.6366C17.1345 14.5787 17.9119 13.2582 18.316 11.8064Z" stroke="#3D40C4" stroke-width="2" stroke-linecap="round" stroke-linejoin="round"/>
</svg>
