<svg width="30" height="37" viewBox="0 0 30 37" fill="none" xmlns="http://www.w3.org/2000/svg">
<path fill-rule="evenodd" clip-rule="evenodd" d="M12.9799 13.8207C14.1493 12.4013 14.7937 10.4975 14.7937 8.45926C14.7937 4.57853 12.3165 0.649994 7.58109 0.649994C5.37732 0.649994 3.51819 1.49698 2.20439 3.09933C1.04064 4.51887 0.399902 6.4223 0.399902 8.45926C0.399902 12.3404 2.86658 16.2687 7.58109 16.2687C9.79306 16.2689 11.6603 15.4225 12.9799 13.8207ZM7.58113 4.28102C10.1757 4.28102 11.3574 6.44832 11.3574 8.462C11.3574 9.55739 11.028 10.5714 10.4293 11.3169C9.76144 12.1496 8.79082 12.5899 7.6232 12.5899C4.96297 12.5899 3.7511 10.4229 3.7511 8.40941C3.7511 6.35479 4.93556 4.28102 7.58113 4.28102ZM24.1089 2.94997C23.7001 2.95961 23.1422 3.29258 22.869 3.68967L2.58331 33.1644C2.31007 33.5618 2.50363 34.1187 2.91229 34.1187H5.56732C5.97598 34.1187 6.53337 33.793 6.80617 33.3954L26.9662 3.92663C27.2391 3.5286 27.221 2.88101 26.5457 2.88124L24.1089 2.94997ZM16.5984 23.1809C17.9123 21.5787 19.7715 20.7312 21.9747 20.7312C26.7098 20.7312 29.1874 24.66 29.1874 28.5406C29.1874 30.5784 28.5434 32.4823 27.3738 33.9019C26.0539 35.5035 24.1872 36.35 21.9747 36.35C17.2603 36.35 14.7937 32.4214 14.7937 28.5406C14.7937 26.5037 15.4348 24.6 16.5984 23.1809ZM18.1767 28.4904C18.1767 30.5494 19.3789 32.7664 22.0172 32.7664C23.2035 32.7664 24.1898 32.3163 24.8698 31.4653C25.4791 30.7025 25.8147 29.6645 25.8147 28.5435C25.8147 26.4841 24.6132 24.2676 21.9746 24.2676C20.7882 24.2676 19.8018 24.7174 19.1221 25.5688C18.5123 26.3317 18.1767 27.3692 18.1767 28.4904Z" fill="url(#paint0_linear_337_18)"/>
<defs>
<linearGradient id="paint0_linear_337_18" x1="3.86433" y1="25.6736" x2="26.5985" y2="13.2475" gradientUnits="userSpaceOnUse">
<stop stop-color="#3383C5"/>
<stop offset="1" stop-color="#29C4B8"/>
</linearGradient>
</defs>
</svg>
