<svg width="40" height="40" viewBox="0 0 40 40" fill="none" xmlns="http://www.w3.org/2000/svg">
<path fill-rule="evenodd" clip-rule="evenodd" d="M20 0C8.95417 0 0 8.95417 0 20C0 31.0457 8.95417 40 20 40C31.0438 40 40 31.0457 40 19.9979C40 8.95417 31.0438 0 20 0ZM20 35.8312C11.2562 35.8312 4.16667 28.7437 4.16667 19.9979C4.16667 11.2521 11.2542 4.16667 20 4.16667C28.7437 4.16667 35.8355 11.2542 35.8355 20C35.8355 28.7458 28.7437 35.8312 20 35.8312ZM17.9167 15.8333C17.9167 17.8479 16.5188 19.4792 14.7938 19.4792C13.0667 19.4792 11.6667 17.8479 11.6667 15.8333C11.6667 13.8188 13.0667 12.1875 14.7917 12.1875C16.5167 12.1875 17.9167 13.8188 17.9167 15.8333ZM25.2083 19.4792C26.9355 19.4792 28.3333 17.8479 28.3333 15.8333C28.3333 13.8188 26.9333 12.1875 25.2083 12.1875C23.4833 12.1875 22.0833 13.8208 22.0833 15.8333C22.0833 17.8458 23.4833 19.4792 25.2083 19.4792ZM26.9438 23.45C27.3458 22.6938 28.2875 22.3958 29.0438 22.7833C29.8063 23.175 30.1145 24.0979 29.7313 24.8625C29.6293 25.0688 27.1375 29.8937 20.0021 29.8937C12.8688 29.8937 10.3729 25.0707 10.2688 24.8646C9.88332 24.0917 10.1958 23.1542 10.9667 22.7667C11.7417 22.3813 12.6667 22.6917 13.0583 23.4521C13.1458 23.6167 14.8958 26.7687 20.0021 26.7687C25.1333 26.7687 26.873 23.5875 26.9438 23.45Z" fill="url(#paint0_linear_5305_125148)"/>
<defs>
<linearGradient id="paint0_linear_5305_125148" x1="4.81379" y1="28.0376" x2="32.9246" y2="8.98345" gradientUnits="userSpaceOnUse">
<stop stop-color="#3383C5"/>
<stop offset="1" stop-color="#29C4B8"/>
</linearGradient>
</defs>
</svg>
