<svg xmlns="http://www.w3.org/2000/svg" xmlns:xlink="http://www.w3.org/1999/xlink" width="208" height="192" viewBox="0 0 208 192">
  <defs>
    <linearGradient id="linear-gradient" x1="0.529" y1="-0.734" x2="0.538" y2="1.229" gradientUnits="objectBoundingBox">
      <stop offset="0" stop-color="#fff"/>
      <stop offset="1" stop-color="#3383c5"/>
    </linearGradient>
  </defs>
  <path id="Path_1" data-name="Path 1" d="M216,40H40A16,16,0,0,0,24,56V192a16,16,0,0,0,16,16H56v16a8,8,0,0,0,16,0V208H184v16a8,8,0,0,0,16,0V208h16a16,16,0,0,0,16-16V56A16,16,0,0,0,216,40Zm-8,96H179.1a36,36,0,1,1,0-16H208a8,8,0,0,1,0,16Zm-44-8a20,20,0,1,1-20-20,20,20,0,0,1,20,20Z" transform="translate(-24 -40)" fill="url(#linear-gradient)"/>
</svg>
